<svg width="449" height="449" viewBox="0 0 449 449" fill="none" xmlns="http://www.w3.org/2000/svg">
<g clip-path="url(#clip0_174_5425)">
<g opacity="0.4">
<path fill-rule="evenodd" clip-rule="evenodd" d="M36.8978 137.092V116.904C36.8978 116.904 70.1243 100.305 70.3878 100.448L103.255 117.072V137.235C103.255 137.235 103.327 137.57 103.063 137.713L70.6513 156.346C70.4118 156.489 70.0045 156.489 69.765 156.346L37.0655 137.546C36.8259 137.402 36.8978 137.092 36.8978 137.092Z" fill="#EDEDED"/>
<path fill-rule="evenodd" clip-rule="evenodd" d="M37.0654 116.569L69.4774 97.9369C69.717 97.7933 70.1242 97.7933 70.3638 97.9369L103.039 116.737C103.279 116.88 103.279 117.12 103.039 117.263L70.6513 135.872C70.4117 136.015 70.0045 136.015 69.7649 135.872L37.0654 117.096C36.8259 116.952 36.8259 116.713 37.0654 116.569Z" fill="#F3F3F3"/>
<path fill-rule="evenodd" clip-rule="evenodd" d="M70.5656 135.961L70.0918 156.457C69.9481 156.457 69.7751 156.483 69.6553 156.435L36.9797 137.635C36.7402 137.492 36.7881 137.157 36.7881 137.157V116.993L70.5656 135.961Z" fill="#E3E3E3"/>
<path fill-rule="evenodd" clip-rule="evenodd" d="M77.8252 138.916L98.1499 127.547V140.534L77.8252 152.223V138.916Z" fill="#C4C4C4" fill-opacity="0.6"/>
<path fill-rule="evenodd" clip-rule="evenodd" d="M98.1494 140.445L86.8145 133.927L98.1494 127.547V140.445Z" fill="#797B84" fill-opacity="0.5"/>
<path opacity="0.4" d="M10.8613 154.498L36.842 137.513L70.0916 156.457L44.111 172.885L10.8613 154.498Z" fill="url(#paint0_linear_174_5425)"/>
<path d="M85.5635 140.607L92.4035 136.698L98.8527 140.216L92.2081 144.32L85.5635 140.607Z" fill="url(#paint1_linear_174_5425)"/>
<path d="M85.5635 140.607V148.424L92.2081 152.333V144.32L85.5635 140.607Z" fill="url(#paint2_linear_174_5425)"/>
<path d="M92.208 144.32L98.8526 140.216V148.268L92.208 152.333V144.32Z" fill="url(#paint3_linear_174_5425)"/>
<g opacity="0.8">
<path d="M95.5322 146.492L102.203 142.68L108.492 146.111L102.012 150.113L95.5322 146.492Z" fill="url(#paint4_linear_174_5425)"/>
<path d="M95.5322 146.492V154.116L102.012 157.928V150.113L95.5322 146.492Z" fill="url(#paint5_linear_174_5425)"/>
<path d="M102.013 150.113L108.493 146.111V153.963L102.013 157.928V150.113Z" fill="url(#paint6_linear_174_5425)"/>
</g>
<g opacity="0.6">
<path d="M105.004 151.975L111.675 148.163L117.964 151.594L111.484 155.596L105.004 151.975Z" fill="url(#paint7_linear_174_5425)"/>
<path d="M105.004 151.975V159.599L111.484 163.411V155.596L105.004 151.975Z" fill="url(#paint8_linear_174_5425)"/>
<path d="M111.484 155.596L117.964 151.594V159.446L111.484 163.41V155.596Z" fill="url(#paint9_linear_174_5425)"/>
</g>
<g opacity="0.4">
<path d="M114.475 157.458L121.145 153.646L127.435 157.077L120.955 161.079L114.475 157.458Z" fill="url(#paint10_linear_174_5425)"/>
<path d="M114.475 157.458V165.082L120.955 168.894V161.079L114.475 157.458Z" fill="url(#paint11_linear_174_5425)"/>
<path d="M120.954 161.079L127.434 157.077V164.929L120.954 168.894V161.079Z" fill="url(#paint12_linear_174_5425)"/>
</g>
<g opacity="0.2">
<path d="M123.945 162.941L130.616 159.13L136.906 162.56L130.425 166.563L123.945 162.941Z" fill="url(#paint13_linear_174_5425)"/>
<path d="M123.945 162.942V170.565L130.425 174.377V166.563L123.945 162.942Z" fill="url(#paint14_linear_174_5425)"/>
<path d="M130.426 166.563L136.906 162.561V170.413L130.426 174.377V166.563Z" fill="url(#paint15_linear_174_5425)"/>
</g>
<g opacity="0.1">
<path d="M133.417 168.425L140.088 164.613L146.377 168.043L139.897 172.046L133.417 168.425Z" fill="url(#paint16_linear_174_5425)"/>
<path d="M133.417 168.425V176.049L139.897 179.86V172.046L133.417 168.425Z" fill="url(#paint17_linear_174_5425)"/>
<path d="M139.896 172.046L146.377 168.044V175.896L139.896 179.86V172.046Z" fill="url(#paint18_linear_174_5425)"/>
</g>
</g>
<g opacity="0.4">
<path fill-rule="evenodd" clip-rule="evenodd" d="M-17.153 166.243V146.056C-17.153 146.056 16.0735 129.456 16.337 129.6L49.2042 146.223V166.387C49.2042 166.387 49.2761 166.721 49.0126 166.865L16.6006 185.498C16.361 185.641 15.9538 185.641 15.7142 185.498L-16.9853 166.698C-17.2248 166.554 -17.153 166.243 -17.153 166.243Z" fill="#EDEDED"/>
<path fill-rule="evenodd" clip-rule="evenodd" d="M-16.9854 145.721L15.4267 127.088C15.6662 126.945 16.0735 126.945 16.313 127.088L48.9886 145.888C49.2281 146.032 49.2281 146.271 48.9886 146.415L16.6005 165.023C16.3609 165.167 15.9537 165.167 15.7141 165.023L-16.9854 146.247C-17.2249 146.104 -17.2249 145.864 -16.9854 145.721Z" fill="#F3F3F3"/>
<path fill-rule="evenodd" clip-rule="evenodd" d="M16.5148 165.112L16.041 185.608C15.8973 185.608 15.7243 185.634 15.6045 185.587L-17.071 166.787C-17.3106 166.643 -17.2627 166.308 -17.2627 166.308V146.145L16.5148 165.112Z" fill="#E3E3E3"/>
<path fill-rule="evenodd" clip-rule="evenodd" d="M23.7744 168.068L44.0992 156.698V169.685L23.7744 181.374V168.068Z" fill="#C4C4C4" fill-opacity="0.6"/>
<path fill-rule="evenodd" clip-rule="evenodd" d="M44.0986 169.597L32.7637 163.079L44.0986 156.698V169.597Z" fill="#797B84" fill-opacity="0.5"/>
<path opacity="0.4" d="M-43.1904 183.649L-17.2098 166.664L16.0398 185.608L-9.94078 202.036L-43.1904 183.649Z" fill="url(#paint19_linear_174_5425)"/>
<path d="M31.5117 169.759L38.3518 165.85L44.801 169.368L38.1563 173.472L31.5117 169.759Z" fill="url(#paint20_linear_174_5425)"/>
<path d="M31.5117 169.758V177.576L38.1563 181.484V173.472L31.5117 169.758Z" fill="url(#paint21_linear_174_5425)"/>
<path d="M38.1572 173.472L44.8019 169.368V177.419L38.1572 181.484V173.472Z" fill="url(#paint22_linear_174_5425)"/>
<g opacity="0.8">
<path d="M41.4805 175.644L48.1512 171.832L54.4407 175.262L47.9606 179.265L41.4805 175.644Z" fill="url(#paint23_linear_174_5425)"/>
<path d="M41.4805 175.643V183.267L47.9606 187.079V179.264L41.4805 175.643Z" fill="url(#paint24_linear_174_5425)"/>
<path d="M47.96 179.265L54.4401 175.262V183.115L47.96 187.079V179.265Z" fill="url(#paint25_linear_174_5425)"/>
</g>
<g opacity="0.6">
<path d="M50.9521 181.126L57.6228 177.315L63.9124 180.745L57.4323 184.748L50.9521 181.126Z" fill="url(#paint26_linear_174_5425)"/>
<path d="M50.9521 181.126V188.75L57.4323 192.562V184.748L50.9521 181.126Z" fill="url(#paint27_linear_174_5425)"/>
<path d="M57.4316 184.748L63.9117 180.745V188.598L57.4316 192.562V184.748Z" fill="url(#paint28_linear_174_5425)"/>
</g>
<g opacity="0.4">
<path d="M60.4229 186.61L67.0935 182.798L73.3831 186.229L66.903 190.231L60.4229 186.61Z" fill="url(#paint29_linear_174_5425)"/>
<path d="M60.4229 186.61V194.234L66.903 198.046V190.231L60.4229 186.61Z" fill="url(#paint30_linear_174_5425)"/>
<path d="M66.9023 190.231L73.3824 186.229V194.081L66.9023 198.045V190.231Z" fill="url(#paint31_linear_174_5425)"/>
</g>
<g opacity="0.2">
<path d="M69.8936 192.093L76.5642 188.281L82.8538 191.711L76.3737 195.714L69.8936 192.093Z" fill="url(#paint32_linear_174_5425)"/>
<path d="M69.8936 192.093V199.717L76.3737 203.528V195.714L69.8936 192.093Z" fill="url(#paint33_linear_174_5425)"/>
<path d="M76.374 195.714L82.8541 191.711V199.564L76.374 203.528V195.714Z" fill="url(#paint34_linear_174_5425)"/>
</g>
<g opacity="0.1">
<path d="M79.3643 197.576L86.035 193.764L92.3245 197.195L85.8444 201.197L79.3643 197.576Z" fill="url(#paint35_linear_174_5425)"/>
<path d="M79.3643 197.576V205.2L85.8444 209.012V201.198L79.3643 197.576Z" fill="url(#paint36_linear_174_5425)"/>
<path d="M85.8438 201.198L92.3239 197.195V205.047L85.8438 209.012V201.198Z" fill="url(#paint37_linear_174_5425)"/>
</g>
</g>
<g opacity="0.4">
<path fill-rule="evenodd" clip-rule="evenodd" d="M96.4193 108.547V88.3596C96.4193 88.3596 129.646 71.7601 129.909 71.9036L162.776 88.527V108.69C162.776 108.69 162.848 109.025 162.585 109.169L130.173 127.801C129.933 127.945 129.526 127.945 129.286 127.801L96.587 109.001C96.3474 108.858 96.4193 108.547 96.4193 108.547Z" fill="#EDEDED"/>
<path fill-rule="evenodd" clip-rule="evenodd" d="M96.5869 88.0248L128.999 69.3922C129.238 69.2487 129.646 69.2487 129.885 69.3922L162.561 88.1922C162.8 88.3357 162.8 88.5749 162.561 88.7184L130.173 107.327C129.933 107.471 129.526 107.471 129.286 107.327L96.5869 88.551C96.3473 88.4075 96.3473 88.1683 96.5869 88.0248Z" fill="#F3F3F3"/>
<path fill-rule="evenodd" clip-rule="evenodd" d="M130.087 107.416L129.613 127.912C129.47 127.912 129.297 127.938 129.177 127.89L96.5012 109.09C96.2617 108.947 96.3096 108.612 96.3096 108.612V88.4487L130.087 107.416Z" fill="#E3E3E3"/>
<path fill-rule="evenodd" clip-rule="evenodd" d="M137.347 110.372L157.671 99.002V111.989L137.347 123.678V110.372Z" fill="#C4C4C4" fill-opacity="0.6"/>
<path fill-rule="evenodd" clip-rule="evenodd" d="M157.671 111.9L146.336 105.383L157.671 99.002V111.9Z" fill="#797B84" fill-opacity="0.5"/>
<path opacity="0.4" d="M70.3818 125.953L96.3625 108.968L129.612 127.912L103.631 144.34L70.3818 125.953Z" fill="url(#paint38_linear_174_5425)"/>
<path d="M145.084 112.062L151.924 108.154L158.373 111.672L151.729 115.776L145.084 112.062Z" fill="url(#paint39_linear_174_5425)"/>
<path d="M145.084 112.062V119.879L151.729 123.788V115.775L145.084 112.062Z" fill="url(#paint40_linear_174_5425)"/>
<path d="M151.729 115.776L158.374 111.671V119.723L151.729 123.788V115.776Z" fill="url(#paint41_linear_174_5425)"/>
<g opacity="0.8">
<path d="M155.053 117.947L161.723 114.135L168.013 117.566L161.533 121.568L155.053 117.947Z" fill="url(#paint42_linear_174_5425)"/>
<path d="M155.053 117.947V125.571L161.533 129.383V121.569L155.053 117.947Z" fill="url(#paint43_linear_174_5425)"/>
<path d="M161.532 121.569L168.012 117.566V125.418L161.532 129.383V121.569Z" fill="url(#paint44_linear_174_5425)"/>
</g>
<g opacity="0.6">
<path d="M164.524 123.43L171.195 119.618L177.485 123.049L171.005 127.051L164.524 123.43Z" fill="url(#paint45_linear_174_5425)"/>
<path d="M164.524 123.431V131.054L171.005 134.866V127.052L164.524 123.431Z" fill="url(#paint46_linear_174_5425)"/>
<path d="M171.005 127.051L177.485 123.049V130.901L171.005 134.866V127.051Z" fill="url(#paint47_linear_174_5425)"/>
</g>
<g opacity="0.4">
<path d="M173.995 128.914L180.666 125.102L186.955 128.532L180.475 132.535L173.995 128.914Z" fill="url(#paint48_linear_174_5425)"/>
<path d="M173.995 128.914V136.538L180.475 140.349V132.535L173.995 128.914Z" fill="url(#paint49_linear_174_5425)"/>
<path d="M180.476 132.535L186.956 128.532V136.385L180.476 140.349V132.535Z" fill="url(#paint50_linear_174_5425)"/>
</g>
<g opacity="0.2">
<path d="M183.466 134.397L190.137 130.585L196.426 134.016L189.946 138.018L183.466 134.397Z" fill="url(#paint51_linear_174_5425)"/>
<path d="M183.466 134.397V142.021L189.946 145.833V138.018L183.466 134.397Z" fill="url(#paint52_linear_174_5425)"/>
<path d="M189.946 138.018L196.426 134.016V141.868L189.946 145.832V138.018Z" fill="url(#paint53_linear_174_5425)"/>
</g>
<g opacity="0.1">
<path d="M192.937 139.88L199.607 136.068L205.897 139.499L199.417 143.501L192.937 139.88Z" fill="url(#paint54_linear_174_5425)"/>
<path d="M192.937 139.88V147.503L199.417 151.315V143.501L192.937 139.88Z" fill="url(#paint55_linear_174_5425)"/>
<path d="M199.416 143.501L205.896 139.499V147.351L199.416 151.315V143.501Z" fill="url(#paint56_linear_174_5425)"/>
</g>
</g>
<path fill-rule="evenodd" clip-rule="evenodd" d="M305.825 164.797V132.937C305.825 132.937 358.264 106.739 358.68 106.966L410.552 133.202V165.024C410.552 165.024 410.665 165.552 410.249 165.779L359.095 195.185C358.717 195.412 358.075 195.412 357.697 195.185L306.089 165.515C305.711 165.288 305.825 164.797 305.825 164.797Z" fill="#EDEDED"/>
<path fill-rule="evenodd" clip-rule="evenodd" d="M306.089 132.409L357.243 103.002C357.621 102.776 358.264 102.776 358.642 103.002L410.211 132.673C410.59 132.899 410.59 133.277 410.211 133.503L359.096 162.872C358.717 163.099 358.075 163.099 357.697 162.872L306.089 133.239C305.711 133.013 305.711 132.635 306.089 132.409Z" fill="#F0F5FF"/>
<path fill-rule="evenodd" clip-rule="evenodd" d="M358.961 163.013L358.214 195.36C357.987 195.36 357.714 195.402 357.525 195.326L305.955 165.655C305.577 165.429 305.653 164.9 305.653 164.9V133.078L358.961 163.013Z" fill="#E3E3E3"/>
<path fill-rule="evenodd" clip-rule="evenodd" d="M370.418 167.677L402.495 149.733V170.23L370.418 188.678V167.677Z" fill="#C4C4C4" fill-opacity="0.6"/>
<path fill-rule="evenodd" clip-rule="evenodd" d="M402.495 170.09L384.605 159.803L402.495 149.733V170.09Z" fill="#797B84" fill-opacity="0.5"/>
<path d="M378.806 170.364L389.292 164.195L399.779 170.055L389.292 176.224L378.806 170.364Z" fill="#6D9EFC"/>
<path d="M378.806 170.364V182.701L389.292 188.87V176.224L378.806 170.364Z" fill="#5891FF"/>
<path d="M389.293 176.224L399.78 170.055V182.455L389.293 188.87V176.224Z" fill="#93B8FF"/>
<path d="M393.754 179.804L404.549 173.635L414.727 179.187L404.241 185.664L393.754 179.804Z" fill="#40E7BF"/>
<path d="M393.754 179.804V192.141L404.241 198.31V185.664L393.754 179.804Z" fill="#2CD0A9"/>
<path d="M404.241 185.664L414.728 179.187V191.895L404.241 198.31V185.664Z" fill="#4BDEBB"/>
<path d="M409.487 188.458L420.283 182.289L430.461 187.841L419.974 194.318L409.487 188.458Z" fill="#FBFF4E"/>
<path d="M409.487 188.457V200.795L419.974 206.964V194.318L409.487 188.457Z" fill="url(#paint57_linear_174_5425)"/>
<path d="M419.975 194.318L430.461 187.841V200.548L419.975 206.964V194.318Z" fill="#F0F344"/>
<path d="M424.435 197.111L435.23 190.943L445.408 196.494L434.921 202.972L424.435 197.111Z" fill="#F67C7C"/>
<path d="M424.435 197.111V209.448L434.921 215.617V202.971L424.435 197.111Z" fill="#DE2424"/>
<path d="M434.922 202.971L445.409 196.494V209.202L434.922 215.617V202.971Z" fill="#F32626"/>
<path opacity="0.4" d="M264.734 192.268L305.738 165.462L358.214 195.36L317.21 221.287L264.734 192.268Z" fill="url(#paint58_linear_174_5425)"/>
<path fill-rule="evenodd" clip-rule="evenodd" d="M139.945 217.104V164.417C139.945 164.417 226.664 121.093 227.352 121.468L313.133 164.854V217.479C313.133 217.479 313.32 218.353 312.633 218.727L228.04 267.357C227.414 267.732 226.352 267.732 225.726 267.357L140.383 218.29C139.758 217.916 139.945 217.104 139.945 217.104Z" fill="#EDEDED"/>
<path fill-rule="evenodd" clip-rule="evenodd" d="M140.382 163.543L224.975 114.913C225.6 114.539 226.663 114.539 227.288 114.913L312.569 163.98C313.194 164.355 313.194 164.979 312.569 165.353L228.039 213.921C227.413 214.295 226.351 214.295 225.725 213.921L140.382 164.916C139.757 164.542 139.757 163.918 140.382 163.543Z" fill="#F0F5FF"/>
<path fill-rule="evenodd" clip-rule="evenodd" d="M227.816 214.153L226.58 267.646C226.205 267.646 225.753 267.714 225.441 267.59L140.16 218.523C139.535 218.148 139.66 217.274 139.66 217.274V164.649L227.816 214.153Z" fill="#E3E3E3"/>
<path fill-rule="evenodd" clip-rule="evenodd" d="M246.762 221.866L299.808 192.193V226.088L246.762 256.595V221.866Z" fill="#C4C4C4" fill-opacity="0.6"/>
<path fill-rule="evenodd" clip-rule="evenodd" d="M299.808 225.856L270.225 208.846L299.808 192.193V225.856Z" fill="#797B84" fill-opacity="0.5"/>
<path d="M261.042 224.805L278.894 214.604L295.726 223.785L278.384 234.496L261.042 224.805Z" fill="#40E7BF"/>
<path d="M261.042 224.805V245.207L278.384 255.408V234.496L261.042 224.805Z" fill="#2CD0A9"/>
<path d="M278.384 234.496L295.726 223.785V244.8L278.384 255.409V234.496Z" fill="#4BDEBB"/>
<path d="M285.525 240.107L303.377 229.906L320.209 239.087L302.867 249.798L285.525 240.107Z" fill="#FBFF4E"/>
<path d="M285.525 240.107V260.509L302.867 270.71V249.798L285.525 240.107Z" fill="url(#paint59_linear_174_5425)"/>
<path d="M302.867 249.798L320.209 239.087V260.101L302.867 270.71V249.798Z" fill="#F0F344"/>
<path d="M311.028 254.389L328.88 244.187L345.712 253.368L328.37 264.08L311.028 254.389Z" fill="#F67C7C"/>
<path d="M311.028 254.388V274.791L328.37 284.992V264.08L311.028 254.388Z" fill="#DE2424"/>
<path d="M328.37 264.08L345.712 253.369V274.383L328.37 284.992V264.08Z" fill="#F32626"/>
<path d="M336.531 269.69L353.873 259.489L371.215 269.18L353.873 279.381L336.531 269.69Z" fill="#6D9EFC"/>
<path d="M336.531 269.69V290.093L353.873 300.294V279.381L336.531 269.69Z" fill="#5891FF"/>
<path d="M353.873 279.382L371.215 269.181V289.685L353.873 300.294V279.382Z" fill="#93B8FF"/>
<path opacity="0.4" d="M71.9932 262.532L139.801 218.203L226.58 267.646L158.772 310.521L71.9932 262.532Z" fill="url(#paint60_linear_174_5425)"/>
<path fill-rule="evenodd" clip-rule="evenodd" d="M61.1605 291.457V259.597C61.1605 259.597 113.6 233.399 114.016 233.625L165.888 259.861V291.683C165.888 291.683 166.001 292.212 165.585 292.438L114.431 321.845C114.053 322.071 113.411 322.071 113.033 321.845L61.4251 292.174C61.0471 291.947 61.1605 291.457 61.1605 291.457Z" fill="#EDEDED"/>
<path fill-rule="evenodd" clip-rule="evenodd" d="M61.4252 259.068L112.579 229.661C112.957 229.435 113.6 229.435 113.978 229.661L165.547 259.332C165.925 259.559 165.925 259.936 165.547 260.163L114.431 289.531C114.053 289.758 113.411 289.758 113.033 289.531L61.4252 259.898C61.0471 259.672 61.0471 259.294 61.4252 259.068Z" fill="#F0F5FF"/>
<path fill-rule="evenodd" clip-rule="evenodd" d="M114.297 289.672L113.55 322.019C113.323 322.019 113.05 322.061 112.861 321.985L61.2911 292.314C60.913 292.088 60.9886 291.559 60.9886 291.559V259.737L114.297 289.672Z" fill="#E3E3E3"/>
<path fill-rule="evenodd" clip-rule="evenodd" d="M125.754 294.336L157.831 276.392V296.889L125.754 315.337V294.336Z" fill="#C4C4C4" fill-opacity="0.6"/>
<path fill-rule="evenodd" clip-rule="evenodd" d="M157.831 296.749L139.941 286.463L157.831 276.392V296.749Z" fill="#797B84" fill-opacity="0.5"/>
<path d="M134.142 297.023L144.937 290.854L155.115 296.406L144.628 302.883L134.142 297.023Z" fill="#F67C7C"/>
<path d="M134.142 297.023V309.36L144.628 315.529V302.883L134.142 297.023Z" fill="#DE2424"/>
<path d="M144.629 302.883L155.116 296.406V309.113L144.629 315.529V302.883Z" fill="#F32626"/>
<path d="M149.876 305.677L160.363 299.508L170.85 305.368L160.363 311.537L149.876 305.677Z" fill="#6D9EFC"/>
<path d="M149.876 305.677V318.014L160.363 324.183V311.537L149.876 305.677Z" fill="#5891FF"/>
<path d="M160.363 311.537L170.85 305.368V317.767L160.363 324.183V311.537Z" fill="#93B8FF"/>
<path d="M164.823 314.33L175.618 308.162L185.797 313.714L175.31 320.191L164.823 314.33Z" fill="#40E7BF"/>
<path d="M164.823 314.33V326.668L175.31 332.836V320.191L164.823 314.33Z" fill="#2CD0A9"/>
<path d="M175.311 320.19L185.797 313.713V326.421L175.311 332.836V320.19Z" fill="#4BDEBB"/>
<path d="M179.771 322.984L190.567 316.815L200.745 322.367L190.258 328.844L179.771 322.984Z" fill="#FBFF4E"/>
<path d="M179.771 322.984V335.321L190.258 341.49V328.844L179.771 322.984Z" fill="url(#paint61_linear_174_5425)"/>
<path d="M190.259 328.844L200.746 322.367V335.074L190.259 341.49V328.844Z" fill="#F0F344"/>
<path opacity="0.4" d="M20.0703 318.927L61.0738 292.121L113.549 322.019L72.546 347.946L20.0703 318.927Z" fill="url(#paint62_linear_174_5425)"/>
</g>
<defs>
<linearGradient id="paint0_linear_174_5425" x1="47.3571" y1="160.724" x2="55.7152" y2="147.27" gradientUnits="userSpaceOnUse">
<stop offset="0.132597" stop-color="#C4C4C4" stop-opacity="0"/>
<stop offset="1" stop-color="#484848"/>
</linearGradient>
<linearGradient id="paint1_linear_174_5425" x1="92.2084" y1="136.698" x2="92.2084" y2="144.321" gradientUnits="userSpaceOnUse">
<stop stop-color="#E8E8E8"/>
<stop offset="1" stop-color="#727272"/>
</linearGradient>
<linearGradient id="paint2_linear_174_5425" x1="88.8859" y1="140.607" x2="88.8859" y2="152.334" gradientUnits="userSpaceOnUse">
<stop stop-color="#E8E8E8"/>
<stop offset="1" stop-color="#727272"/>
</linearGradient>
<linearGradient id="paint3_linear_174_5425" x1="95.5305" y1="140.216" x2="95.5305" y2="152.335" gradientUnits="userSpaceOnUse">
<stop stop-color="#E8E8E8"/>
<stop offset="1" stop-color="#727272"/>
</linearGradient>
<linearGradient id="paint4_linear_174_5425" x1="102.013" y1="142.68" x2="102.013" y2="150.114" gradientUnits="userSpaceOnUse">
<stop stop-color="#E8E8E8"/>
<stop offset="1" stop-color="#727272"/>
</linearGradient>
<linearGradient id="paint5_linear_174_5425" x1="98.7724" y1="146.492" x2="98.7724" y2="157.929" gradientUnits="userSpaceOnUse">
<stop stop-color="#E8E8E8"/>
<stop offset="1" stop-color="#727272"/>
</linearGradient>
<linearGradient id="paint6_linear_174_5425" x1="105.253" y1="146.111" x2="105.253" y2="157.929" gradientUnits="userSpaceOnUse">
<stop stop-color="#E8E8E8"/>
<stop offset="1" stop-color="#727272"/>
</linearGradient>
<linearGradient id="paint7_linear_174_5425" x1="111.484" y1="148.163" x2="111.484" y2="155.597" gradientUnits="userSpaceOnUse">
<stop stop-color="#E8E8E8"/>
<stop offset="1" stop-color="#727272"/>
</linearGradient>
<linearGradient id="paint8_linear_174_5425" x1="108.244" y1="151.975" x2="108.244" y2="163.412" gradientUnits="userSpaceOnUse">
<stop stop-color="#E8E8E8"/>
<stop offset="1" stop-color="#727272"/>
</linearGradient>
<linearGradient id="paint9_linear_174_5425" x1="114.725" y1="151.594" x2="114.725" y2="163.412" gradientUnits="userSpaceOnUse">
<stop stop-color="#E8E8E8"/>
<stop offset="1" stop-color="#727272"/>
</linearGradient>
<linearGradient id="paint10_linear_174_5425" x1="120.955" y1="153.646" x2="120.955" y2="161.08" gradientUnits="userSpaceOnUse">
<stop stop-color="#E8E8E8"/>
<stop offset="1" stop-color="#727272"/>
</linearGradient>
<linearGradient id="paint11_linear_174_5425" x1="117.715" y1="157.458" x2="117.715" y2="168.895" gradientUnits="userSpaceOnUse">
<stop stop-color="#E8E8E8"/>
<stop offset="1" stop-color="#727272"/>
</linearGradient>
<linearGradient id="paint12_linear_174_5425" x1="124.194" y1="157.077" x2="124.194" y2="168.895" gradientUnits="userSpaceOnUse">
<stop stop-color="#E8E8E8"/>
<stop offset="1" stop-color="#727272"/>
</linearGradient>
<linearGradient id="paint13_linear_174_5425" x1="130.426" y1="159.13" x2="130.426" y2="166.564" gradientUnits="userSpaceOnUse">
<stop stop-color="#E8E8E8"/>
<stop offset="1" stop-color="#727272"/>
</linearGradient>
<linearGradient id="paint14_linear_174_5425" x1="127.186" y1="162.942" x2="127.186" y2="174.379" gradientUnits="userSpaceOnUse">
<stop stop-color="#E8E8E8"/>
<stop offset="1" stop-color="#727272"/>
</linearGradient>
<linearGradient id="paint15_linear_174_5425" x1="133.666" y1="162.561" x2="133.666" y2="174.379" gradientUnits="userSpaceOnUse">
<stop stop-color="#E8E8E8"/>
<stop offset="1" stop-color="#727272"/>
</linearGradient>
<linearGradient id="paint16_linear_174_5425" x1="139.897" y1="164.613" x2="139.897" y2="172.047" gradientUnits="userSpaceOnUse">
<stop stop-color="#E8E8E8"/>
<stop offset="1" stop-color="#727272"/>
</linearGradient>
<linearGradient id="paint17_linear_174_5425" x1="136.657" y1="168.425" x2="136.657" y2="179.862" gradientUnits="userSpaceOnUse">
<stop stop-color="#E8E8E8"/>
<stop offset="1" stop-color="#727272"/>
</linearGradient>
<linearGradient id="paint18_linear_174_5425" x1="143.137" y1="168.044" x2="143.137" y2="179.862" gradientUnits="userSpaceOnUse">
<stop stop-color="#E8E8E8"/>
<stop offset="1" stop-color="#727272"/>
</linearGradient>
<linearGradient id="paint19_linear_174_5425" x1="-6.69465" y1="189.875" x2="1.66344" y2="176.422" gradientUnits="userSpaceOnUse">
<stop offset="0.132597" stop-color="#C4C4C4" stop-opacity="0"/>
<stop offset="1" stop-color="#484848"/>
</linearGradient>
<linearGradient id="paint20_linear_174_5425" x1="38.1566" y1="165.85" x2="38.1566" y2="173.473" gradientUnits="userSpaceOnUse">
<stop stop-color="#E8E8E8"/>
<stop offset="1" stop-color="#727272"/>
</linearGradient>
<linearGradient id="paint21_linear_174_5425" x1="34.8342" y1="169.758" x2="34.8342" y2="181.486" gradientUnits="userSpaceOnUse">
<stop stop-color="#E8E8E8"/>
<stop offset="1" stop-color="#727272"/>
</linearGradient>
<linearGradient id="paint22_linear_174_5425" x1="41.4797" y1="169.368" x2="41.4797" y2="181.486" gradientUnits="userSpaceOnUse">
<stop stop-color="#E8E8E8"/>
<stop offset="1" stop-color="#727272"/>
</linearGradient>
<linearGradient id="paint23_linear_174_5425" x1="47.9609" y1="171.832" x2="47.9609" y2="179.266" gradientUnits="userSpaceOnUse">
<stop stop-color="#E8E8E8"/>
<stop offset="1" stop-color="#727272"/>
</linearGradient>
<linearGradient id="paint24_linear_174_5425" x1="44.7207" y1="175.643" x2="44.7207" y2="187.08" gradientUnits="userSpaceOnUse">
<stop stop-color="#E8E8E8"/>
<stop offset="1" stop-color="#727272"/>
</linearGradient>
<linearGradient id="paint25_linear_174_5425" x1="51.2002" y1="175.262" x2="51.2002" y2="187.081" gradientUnits="userSpaceOnUse">
<stop stop-color="#E8E8E8"/>
<stop offset="1" stop-color="#727272"/>
</linearGradient>
<linearGradient id="paint26_linear_174_5425" x1="57.4325" y1="177.315" x2="57.4325" y2="184.749" gradientUnits="userSpaceOnUse">
<stop stop-color="#E8E8E8"/>
<stop offset="1" stop-color="#727272"/>
</linearGradient>
<linearGradient id="paint27_linear_174_5425" x1="54.1923" y1="181.126" x2="54.1923" y2="192.564" gradientUnits="userSpaceOnUse">
<stop stop-color="#E8E8E8"/>
<stop offset="1" stop-color="#727272"/>
</linearGradient>
<linearGradient id="paint28_linear_174_5425" x1="60.6718" y1="180.745" x2="60.6718" y2="192.564" gradientUnits="userSpaceOnUse">
<stop stop-color="#E8E8E8"/>
<stop offset="1" stop-color="#727272"/>
</linearGradient>
<linearGradient id="paint29_linear_174_5425" x1="66.9032" y1="182.798" x2="66.9032" y2="190.232" gradientUnits="userSpaceOnUse">
<stop stop-color="#E8E8E8"/>
<stop offset="1" stop-color="#727272"/>
</linearGradient>
<linearGradient id="paint30_linear_174_5425" x1="63.663" y1="186.61" x2="63.663" y2="198.047" gradientUnits="userSpaceOnUse">
<stop stop-color="#E8E8E8"/>
<stop offset="1" stop-color="#727272"/>
</linearGradient>
<linearGradient id="paint31_linear_174_5425" x1="70.1425" y1="186.229" x2="70.1425" y2="198.047" gradientUnits="userSpaceOnUse">
<stop stop-color="#E8E8E8"/>
<stop offset="1" stop-color="#727272"/>
</linearGradient>
<linearGradient id="paint32_linear_174_5425" x1="76.3739" y1="188.281" x2="76.3739" y2="195.715" gradientUnits="userSpaceOnUse">
<stop stop-color="#E8E8E8"/>
<stop offset="1" stop-color="#727272"/>
</linearGradient>
<linearGradient id="paint33_linear_174_5425" x1="73.1337" y1="192.093" x2="73.1337" y2="203.53" gradientUnits="userSpaceOnUse">
<stop stop-color="#E8E8E8"/>
<stop offset="1" stop-color="#727272"/>
</linearGradient>
<linearGradient id="paint34_linear_174_5425" x1="79.6142" y1="191.711" x2="79.6142" y2="203.53" gradientUnits="userSpaceOnUse">
<stop stop-color="#E8E8E8"/>
<stop offset="1" stop-color="#727272"/>
</linearGradient>
<linearGradient id="paint35_linear_174_5425" x1="85.8446" y1="193.764" x2="85.8446" y2="201.198" gradientUnits="userSpaceOnUse">
<stop stop-color="#E8E8E8"/>
<stop offset="1" stop-color="#727272"/>
</linearGradient>
<linearGradient id="paint36_linear_174_5425" x1="82.6045" y1="197.576" x2="82.6045" y2="209.014" gradientUnits="userSpaceOnUse">
<stop stop-color="#E8E8E8"/>
<stop offset="1" stop-color="#727272"/>
</linearGradient>
<linearGradient id="paint37_linear_174_5425" x1="89.0839" y1="197.195" x2="89.0839" y2="209.014" gradientUnits="userSpaceOnUse">
<stop stop-color="#E8E8E8"/>
<stop offset="1" stop-color="#727272"/>
</linearGradient>
<linearGradient id="paint38_linear_174_5425" x1="106.878" y1="132.179" x2="115.236" y2="118.725" gradientUnits="userSpaceOnUse">
<stop offset="0.132597" stop-color="#C4C4C4" stop-opacity="0"/>
<stop offset="1" stop-color="#484848"/>
</linearGradient>
<linearGradient id="paint39_linear_174_5425" x1="151.729" y1="108.154" x2="151.729" y2="115.777" gradientUnits="userSpaceOnUse">
<stop stop-color="#E8E8E8"/>
<stop offset="1" stop-color="#727272"/>
</linearGradient>
<linearGradient id="paint40_linear_174_5425" x1="148.406" y1="112.062" x2="148.406" y2="123.79" gradientUnits="userSpaceOnUse">
<stop stop-color="#E8E8E8"/>
<stop offset="1" stop-color="#727272"/>
</linearGradient>
<linearGradient id="paint41_linear_174_5425" x1="155.052" y1="111.671" x2="155.052" y2="123.79" gradientUnits="userSpaceOnUse">
<stop stop-color="#E8E8E8"/>
<stop offset="1" stop-color="#727272"/>
</linearGradient>
<linearGradient id="paint42_linear_174_5425" x1="161.533" y1="114.135" x2="161.533" y2="121.57" gradientUnits="userSpaceOnUse">
<stop stop-color="#E8E8E8"/>
<stop offset="1" stop-color="#727272"/>
</linearGradient>
<linearGradient id="paint43_linear_174_5425" x1="158.293" y1="117.947" x2="158.293" y2="129.385" gradientUnits="userSpaceOnUse">
<stop stop-color="#E8E8E8"/>
<stop offset="1" stop-color="#727272"/>
</linearGradient>
<linearGradient id="paint44_linear_174_5425" x1="164.772" y1="117.566" x2="164.772" y2="129.385" gradientUnits="userSpaceOnUse">
<stop stop-color="#E8E8E8"/>
<stop offset="1" stop-color="#727272"/>
</linearGradient>
<linearGradient id="paint45_linear_174_5425" x1="171.005" y1="119.618" x2="171.005" y2="127.052" gradientUnits="userSpaceOnUse">
<stop stop-color="#E8E8E8"/>
<stop offset="1" stop-color="#727272"/>
</linearGradient>
<linearGradient id="paint46_linear_174_5425" x1="167.765" y1="123.431" x2="167.765" y2="134.868" gradientUnits="userSpaceOnUse">
<stop stop-color="#E8E8E8"/>
<stop offset="1" stop-color="#727272"/>
</linearGradient>
<linearGradient id="paint47_linear_174_5425" x1="174.245" y1="123.049" x2="174.245" y2="134.868" gradientUnits="userSpaceOnUse">
<stop stop-color="#E8E8E8"/>
<stop offset="1" stop-color="#727272"/>
</linearGradient>
<linearGradient id="paint48_linear_174_5425" x1="180.476" y1="125.102" x2="180.476" y2="132.536" gradientUnits="userSpaceOnUse">
<stop stop-color="#E8E8E8"/>
<stop offset="1" stop-color="#727272"/>
</linearGradient>
<linearGradient id="paint49_linear_174_5425" x1="177.235" y1="128.914" x2="177.235" y2="140.351" gradientUnits="userSpaceOnUse">
<stop stop-color="#E8E8E8"/>
<stop offset="1" stop-color="#727272"/>
</linearGradient>
<linearGradient id="paint50_linear_174_5425" x1="183.716" y1="128.532" x2="183.716" y2="140.351" gradientUnits="userSpaceOnUse">
<stop stop-color="#E8E8E8"/>
<stop offset="1" stop-color="#727272"/>
</linearGradient>
<linearGradient id="paint51_linear_174_5425" x1="189.946" y1="130.585" x2="189.946" y2="138.019" gradientUnits="userSpaceOnUse">
<stop stop-color="#E8E8E8"/>
<stop offset="1" stop-color="#727272"/>
</linearGradient>
<linearGradient id="paint52_linear_174_5425" x1="186.706" y1="134.397" x2="186.706" y2="145.834" gradientUnits="userSpaceOnUse">
<stop stop-color="#E8E8E8"/>
<stop offset="1" stop-color="#727272"/>
</linearGradient>
<linearGradient id="paint53_linear_174_5425" x1="193.186" y1="134.016" x2="193.186" y2="145.834" gradientUnits="userSpaceOnUse">
<stop stop-color="#E8E8E8"/>
<stop offset="1" stop-color="#727272"/>
</linearGradient>
<linearGradient id="paint54_linear_174_5425" x1="199.417" y1="136.068" x2="199.417" y2="143.502" gradientUnits="userSpaceOnUse">
<stop stop-color="#E8E8E8"/>
<stop offset="1" stop-color="#727272"/>
</linearGradient>
<linearGradient id="paint55_linear_174_5425" x1="196.177" y1="139.88" x2="196.177" y2="151.317" gradientUnits="userSpaceOnUse">
<stop stop-color="#E8E8E8"/>
<stop offset="1" stop-color="#727272"/>
</linearGradient>
<linearGradient id="paint56_linear_174_5425" x1="202.656" y1="139.499" x2="202.656" y2="151.317" gradientUnits="userSpaceOnUse">
<stop stop-color="#E8E8E8"/>
<stop offset="1" stop-color="#727272"/>
</linearGradient>
<linearGradient id="paint57_linear_174_5425" x1="414.731" y1="188.457" x2="414.731" y2="206.964" gradientUnits="userSpaceOnUse">
<stop stop-color="#EAEE24" stop-opacity="0.82"/>
<stop offset="1" stop-color="#EEDA24"/>
</linearGradient>
<linearGradient id="paint58_linear_174_5425" x1="322.333" y1="202.094" x2="335.524" y2="180.861" gradientUnits="userSpaceOnUse">
<stop offset="0.132597" stop-color="#C4C4C4" stop-opacity="0"/>
<stop offset="1" stop-color="#484848"/>
</linearGradient>
<linearGradient id="paint59_linear_174_5425" x1="294.196" y1="240.107" x2="294.196" y2="270.71" gradientUnits="userSpaceOnUse">
<stop stop-color="#EAEE24" stop-opacity="0.82"/>
<stop offset="1" stop-color="#EEDA24"/>
</linearGradient>
<linearGradient id="paint60_linear_174_5425" x1="167.244" y1="278.782" x2="189.059" y2="243.669" gradientUnits="userSpaceOnUse">
<stop offset="0.132597" stop-color="#C4C4C4" stop-opacity="0"/>
<stop offset="1" stop-color="#484848"/>
</linearGradient>
<linearGradient id="paint61_linear_174_5425" x1="185.015" y1="322.984" x2="185.015" y2="341.49" gradientUnits="userSpaceOnUse">
<stop stop-color="#EAEE24" stop-opacity="0.82"/>
<stop offset="1" stop-color="#EEDA24"/>
</linearGradient>
<linearGradient id="paint62_linear_174_5425" x1="77.6691" y1="328.753" x2="90.8602" y2="307.52" gradientUnits="userSpaceOnUse">
<stop offset="0.132597" stop-color="#C4C4C4" stop-opacity="0"/>
<stop offset="1" stop-color="#484848"/>
</linearGradient>
<clipPath id="clip0_174_5425">
<rect width="449" height="449" fill="white"/>
</clipPath>
</defs>
</svg>
