<svg width="449" height="449" viewBox="0 0 449 449" fill="none" xmlns="http://www.w3.org/2000/svg">
<path d="M279.44 161.923V152.642C279.147 149.47 277.387 146.456 274.455 143.703V152.983C277.387 155.736 279.147 158.751 279.44 161.923ZM272.952 151.672V142.392C271.926 141.553 270.753 140.741 269.507 139.98V149.261C270.753 150.021 271.89 150.833 272.952 151.672ZM267.381 148.002V138.722C266.025 137.988 264.559 137.254 262.983 136.598V145.879C264.559 146.56 266.025 147.268 267.381 148.002ZM260.051 147.425V132.64C272 137.175 279.477 143.677 279.477 150.86V165.645C279.477 158.462 272.036 151.961 260.051 147.425Z" fill="#646D82"/>
<path d="M238.168 140.347V137.673C237.252 137.542 236.336 137.437 235.383 137.332V140.006C236.336 140.085 237.252 140.216 238.168 140.347ZM233.184 137.07V134.711C232.231 134.606 231.278 134.527 230.325 134.449V136.808C231.278 136.913 232.231 136.992 233.184 137.07ZM242.97 138.407V135.209C242.09 135.052 241.21 134.894 240.294 134.763V137.988C241.21 138.119 242.09 138.276 242.97 138.407ZM228.052 136.677V131.906C227.063 131.853 226.11 131.801 225.12 131.749V136.494C226.073 136.572 227.063 136.598 228.052 136.677ZM217.35 136.415V131.644C216.36 131.644 215.334 131.67 214.344 131.696V136.441C215.334 136.441 216.36 136.415 217.35 136.415ZM212.035 136.546V130.569C211.045 130.621 210.092 130.674 209.103 130.726V136.703C210.092 136.651 211.045 136.598 212.035 136.546ZM222.738 136.441V129.599C221.858 129.573 220.942 129.573 220.025 129.546C219.915 129.546 219.805 129.546 219.695 129.546V136.389C219.805 136.389 219.915 136.389 220.025 136.389C220.942 136.415 221.858 136.415 222.738 136.441ZM206.867 136.887V128.341C205.914 128.419 204.961 128.498 204.045 128.603V137.149C204.961 137.07 205.914 136.965 206.867 136.887ZM197.924 127.606C204.815 126.558 212.255 126.007 220.025 126.06C230.398 126.138 240.148 127.266 248.578 129.232V144.017C240.111 142.077 230.398 140.924 220.025 140.845C212.255 140.793 204.778 141.343 197.924 142.392V127.606V127.606Z" fill="#646D82"/>
<path d="M159.842 151.351V154.628C160.963 152.434 161.785 151.875 162.775 150.515C164.126 149.162 164.791 148.47 166.403 147.422C168.016 146.373 175.493 142.153 181.651 140.186V137.303C180.551 137.643 179.488 138.01 178.462 138.404C177.949 138.587 177.436 138.797 176.923 138.98C171.865 140.789 166.733 144.302 166.733 144.302C166.733 144.302 160.685 148.336 159.842 151.351ZM159.036 147.553C161.382 140.344 171.278 134.131 185.279 130.251V145.036C171.278 148.916 161.382 155.129 159.036 162.338V147.553Z" fill="#646D82"/>
<path d="M159.899 151.332V154.608C161.02 152.415 161.842 151.856 162.832 150.496C164.183 149.143 164.848 148.451 166.46 147.403C168.073 146.354 175.55 142.133 181.708 140.167V137.283C180.608 137.624 179.545 137.991 178.519 138.384C178.006 138.568 177.493 138.778 176.979 138.961C171.921 140.77 166.79 144.283 166.79 144.283C166.79 144.283 160.742 148.317 159.899 151.332Z" fill="#2BB1FD"/>
<path opacity="0.7529" d="M274.72 143.664C277.652 146.417 279.411 149.432 279.704 152.604V161.884C279.411 158.712 277.652 155.697 274.72 152.944V143.664Z" fill="#2BB1FD"/>
<path d="M269.771 139.915C271.018 140.702 272.191 141.515 273.217 142.327V151.607C272.191 150.769 271.018 149.956 269.771 149.196V139.915Z" fill="#2BB1FD"/>
<path opacity="0.7529" d="M263.247 136.56C264.786 137.241 266.253 137.949 267.645 138.683V147.964C266.289 147.23 264.823 146.495 263.247 145.84V136.56Z" fill="#2BB1FD"/>
<path d="M240.295 134.903C241.175 135.034 242.091 135.192 242.971 135.349V138.573C242.091 138.416 241.211 138.259 240.295 138.128V134.903Z" fill="#2BB1FD"/>
<path opacity="0.7529" d="M235.42 137.446C236.336 137.551 237.289 137.682 238.206 137.787V140.461C237.289 140.33 236.373 140.225 235.42 140.12V137.446Z" fill="#2BB1FD"/>
<path d="M230.325 134.615C231.278 134.693 232.231 134.772 233.184 134.877V137.236C232.231 137.131 231.278 137.053 230.325 136.974V134.615Z" fill="#2BB1FD"/>
<path opacity="0.7529" d="M225.084 131.793C226.074 131.846 227.063 131.872 228.016 131.951V136.696C227.027 136.643 226.074 136.591 225.084 136.538V131.793Z" fill="#2BB1FD"/>
<path opacity="0.7529" d="M219.732 129.565C219.842 129.565 219.952 129.565 220.062 129.565C220.979 129.565 221.858 129.591 222.775 129.617V136.46C221.895 136.434 220.979 136.434 220.062 136.407C219.952 136.407 219.842 136.407 219.732 136.407V129.565Z" fill="#2BB1FD"/>
<path d="M214.345 131.741C215.334 131.715 216.324 131.689 217.35 131.689V136.434C216.361 136.434 215.334 136.46 214.345 136.486V131.741Z" fill="#2BB1FD"/>
<path opacity="0.7529" d="M209.141 130.771C210.094 130.719 211.083 130.64 212.073 130.614V136.565C211.083 136.617 210.13 136.669 209.141 136.722V130.771Z" fill="#2BB1FD"/>
<path d="M204.009 128.621C204.962 128.517 205.878 128.438 206.831 128.359V136.905C205.878 136.984 204.925 137.063 204.009 137.168V132.895V128.621Z" fill="#2BB1FD"/>
<path d="M177.839 188.551V186.061C178.535 186.323 179.268 186.585 180.001 186.847V189.338C179.268 189.075 178.572 188.813 177.839 188.551ZM170.985 185.431V180.818C171.571 181.132 172.158 181.447 172.781 181.735V186.349C172.158 186.034 171.571 185.72 170.985 185.431ZM174.247 187.031V181.604C174.907 181.892 175.566 182.181 176.226 182.469V187.896C175.566 187.607 174.907 187.319 174.247 187.031ZM165.45 181.866V175.837C165.89 176.177 166.367 176.544 166.843 176.885V182.915C166.367 182.548 165.927 182.207 165.45 181.866ZM168.053 183.701V177.174C168.566 177.514 169.116 177.829 169.665 178.144V184.671C169.079 184.357 168.566 184.016 168.053 183.701ZM161.455 177.908V170.829C161.748 171.223 162.078 171.59 162.408 171.957V179.035C162.078 178.668 161.785 178.301 161.455 177.908ZM163.251 179.926V170.725C163.618 171.092 164.021 171.459 164.424 171.826V181.027C164.021 180.66 163.654 180.293 163.251 179.926ZM160.099 175.837V165.429C160.319 165.822 160.539 166.216 160.832 166.609V176.99C160.539 176.623 160.319 176.23 160.099 175.837ZM184.4 178.144C170.582 174.159 161.052 167.867 159.036 160.658V175.443C161.052 182.653 170.582 188.944 184.4 192.929V178.144Z" fill="#3F4658"/>
<path d="M224.936 194.607V191.277C227.319 191.173 229.664 191.041 231.937 190.832V194.161C229.664 194.371 227.319 194.502 224.936 194.607ZM213.757 194.633V188.551C215.187 188.603 216.616 188.63 218.082 188.656C219.072 188.656 220.061 188.656 221.051 188.656V194.738C220.061 194.738 219.072 194.764 218.082 194.738C216.616 194.712 215.187 194.685 213.757 194.633ZM202.981 193.82V184.54C205.217 184.802 207.526 184.986 209.909 185.143V194.423C207.563 194.292 205.254 194.082 202.981 193.82ZM235.639 193.794V183.963C237.874 183.701 240.074 183.387 242.199 183.046V192.85C240.074 193.217 237.874 193.532 235.639 193.794ZM247.697 179.743C238.901 181.683 228.785 182.757 218.082 182.679C210.605 182.626 203.494 182.023 196.934 180.948V195.734C203.494 196.783 210.605 197.412 218.082 197.464C228.785 197.543 238.901 196.468 247.697 194.528V179.743V179.743Z" fill="#3F4658"/>
<path d="M262.543 183.963V181.106C272.183 177.042 278.451 171.616 279.477 165.56V168.418C278.451 174.473 272.183 179.9 262.543 183.963ZM279.623 173.084V158.298C279.33 165.534 271.487 171.983 259.281 176.44V191.225C271.523 186.768 279.33 180.293 279.623 173.084Z" fill="#3F4658"/>
<path d="M279.475 165.56C278.449 171.59 272.182 177.042 262.542 181.106V183.963C272.182 179.9 278.449 174.473 279.475 168.418V165.56Z" fill="#F3F3F3"/>
<path d="M209.91 185.143C207.564 184.985 205.255 184.802 202.982 184.54V193.82C205.218 194.082 207.527 194.266 209.91 194.423V185.143Z" fill="#F3F3F3"/>
<path d="M231.937 190.832C229.628 191.041 227.319 191.173 224.937 191.277V194.607C227.319 194.502 229.665 194.371 231.937 194.161V190.832Z" fill="#F3F3F3"/>
<path d="M242.2 182.941C240.075 183.308 237.875 183.622 235.64 183.858V193.663C237.875 193.401 240.075 193.086 242.2 192.745V182.941Z" fill="#F3F3F3"/>
<path opacity="0.7529" d="M221.052 188.629C220.062 188.629 219.072 188.656 218.083 188.629C216.617 188.629 215.187 188.577 213.758 188.525V194.607C215.187 194.659 216.617 194.685 218.083 194.711C219.072 194.711 220.062 194.711 221.052 194.711V188.629Z" fill="#F3F3F3"/>
<path d="M160.831 166.661C160.574 166.268 160.318 165.874 160.098 165.481V175.863C160.318 176.256 160.537 176.649 160.831 177.042V166.661Z" fill="#F3F3F3"/>
<path d="M162.407 172.035C162.077 171.668 161.747 171.275 161.454 170.908V177.986C161.747 178.379 162.077 178.746 162.407 179.113V172.035Z" fill="#F3F3F3"/>
<path opacity="0.7529" d="M164.459 171.878C164.056 171.511 163.653 171.144 163.286 170.777V179.978C163.653 180.345 164.056 180.712 164.459 181.079V171.878Z" fill="#F3F3F3"/>
<path d="M166.878 176.911C166.402 176.57 165.925 176.23 165.485 175.863V181.892C165.925 182.233 166.402 182.6 166.878 182.941V176.911Z" fill="#F3F3F3"/>
<path d="M169.627 178.196C169.078 177.881 168.528 177.54 168.015 177.226V183.753C168.528 184.094 169.078 184.409 169.627 184.723V178.196Z" fill="#F3F3F3"/>
<path opacity="0.7529" d="M172.779 181.787C172.156 181.499 171.57 181.184 170.983 180.87V185.484C171.57 185.798 172.156 186.113 172.779 186.401V181.787Z" fill="#F3F3F3"/>
<path d="M176.224 182.521C175.565 182.233 174.905 181.945 174.245 181.656V187.083C174.905 187.371 175.565 187.66 176.224 187.948V182.521Z" fill="#F3F3F3"/>
<path opacity="0.7529" d="M179.999 186.873C179.266 186.611 178.57 186.349 177.837 186.087V188.577C178.533 188.839 179.266 189.102 179.999 189.364V186.873Z" fill="#F3F3F3"/>
<g opacity="0.2">
<path d="M374.513 269.998L383.238 265.012L391.465 269.5L382.989 274.735L374.513 269.998Z" fill="url(#paint0_linear_160_2108)"/>
<path d="M374.513 269.999V279.97L382.989 284.956V274.735L374.513 269.999Z" fill="url(#paint1_linear_160_2108)"/>
<path d="M382.989 274.735L391.465 269.5V279.771L382.989 284.956V274.735Z" fill="url(#paint2_linear_160_2108)"/>
</g>
<g opacity="0.2">
<path d="M58.8672 269.998L67.5926 265.012L75.8195 269.5L67.3433 274.735L58.8672 269.998Z" fill="url(#paint3_linear_160_2108)"/>
<path d="M58.8672 269.999V279.97L67.3433 284.956V274.735L58.8672 269.999Z" fill="url(#paint4_linear_160_2108)"/>
<path d="M67.3438 274.735L75.8199 269.5V279.771L67.3438 284.956V274.735Z" fill="url(#paint5_linear_160_2108)"/>
</g>
<g opacity="0.4">
<path d="M374.514 255.377L383.239 250.391L391.466 254.878L382.99 260.113L374.514 255.377Z" fill="url(#paint6_linear_160_2108)"/>
<path d="M374.513 255.376V265.348L382.989 270.334V260.113L374.513 255.376Z" fill="url(#paint7_linear_160_2108)"/>
<path d="M382.989 260.113L391.465 254.878V265.149L382.989 270.335V260.113Z" fill="url(#paint8_linear_160_2108)"/>
</g>
<g opacity="0.4">
<path d="M58.8682 255.377L67.5936 250.391L75.8205 254.878L67.3443 260.113L58.8682 255.377Z" fill="url(#paint9_linear_160_2108)"/>
<path d="M58.8672 255.376V265.348L67.3433 270.334V260.113L58.8672 255.376Z" fill="url(#paint10_linear_160_2108)"/>
<path d="M67.3438 260.113L75.8199 254.878V265.149L67.3438 270.335V260.113Z" fill="url(#paint11_linear_160_2108)"/>
</g>
<g opacity="0.6">
<path d="M374.514 239.501L383.239 234.515L391.466 239.003L382.99 244.238L374.514 239.501Z" fill="url(#paint12_linear_160_2108)"/>
<path d="M374.513 239.501V249.473L382.989 254.459V244.238L374.513 239.501Z" fill="url(#paint13_linear_160_2108)"/>
<path d="M382.989 244.238L391.465 239.003V249.274L382.989 254.459V244.238Z" fill="url(#paint14_linear_160_2108)"/>
</g>
<g opacity="0.6">
<path d="M58.8682 239.501L67.5936 234.515L75.8205 239.003L67.3443 244.238L58.8682 239.501Z" fill="url(#paint15_linear_160_2108)"/>
<path d="M58.8672 239.501V249.473L67.3433 254.459V244.238L58.8672 239.501Z" fill="url(#paint16_linear_160_2108)"/>
<path d="M67.3438 244.238L75.8199 239.003V249.274L67.3438 254.459V244.238Z" fill="url(#paint17_linear_160_2108)"/>
</g>
<g opacity="0.8">
<path d="M374.514 224.878L383.239 219.892L391.466 224.379L382.99 229.614L374.514 224.878Z" fill="url(#paint18_linear_160_2108)"/>
<path d="M374.513 224.878V234.85L382.989 239.836V229.614L374.513 224.878Z" fill="url(#paint19_linear_160_2108)"/>
<path d="M382.989 229.615L391.465 224.379V234.65L382.989 239.836V229.615Z" fill="url(#paint20_linear_160_2108)"/>
</g>
<g opacity="0.8">
<path d="M58.8682 224.878L67.5936 219.892L75.8205 224.379L67.3443 229.614L58.8682 224.878Z" fill="url(#paint21_linear_160_2108)"/>
<path d="M58.8672 224.878V234.85L67.3433 239.836V229.614L58.8672 224.878Z" fill="url(#paint22_linear_160_2108)"/>
<path d="M67.3438 229.615L75.8199 224.379V234.65L67.3438 239.836V229.615Z" fill="url(#paint23_linear_160_2108)"/>
</g>
<path fill-rule="evenodd" clip-rule="evenodd" d="M316.902 193.399L316.902 186.471C316.902 186.471 382.842 156.871 383.335 157.152L448.959 187.137V193.551C448.959 193.551 448.959 194.19 448.319 194.51L383.863 231.682C383.37 231.964 382.596 231.964 382.103 231.682L317.289 194.349C316.797 194.067 316.902 193.399 316.902 193.399Z" fill="#DADFE8"/>
<path fill-rule="evenodd" clip-rule="evenodd" d="M1.25559 193.399L1.25559 186.471C1.25559 186.471 67.1956 156.871 67.6882 157.152L133.313 187.137V193.551C133.313 193.551 133.313 194.19 132.673 194.51L68.216 231.682C67.7234 231.964 66.9493 231.964 66.4567 231.682L1.64265 194.349C1.15003 194.067 1.25559 193.399 1.25559 193.399Z" fill="#DADFE8"/>
<path fill-rule="evenodd" clip-rule="evenodd" d="M317.212 186.017L382.17 149.135C382.663 148.853 383.437 148.853 383.929 149.135L448.63 186.657C449.123 186.938 449.123 187.396 448.63 187.677L384.492 224.54C384 224.822 383.226 224.822 382.733 224.54L317.247 187.038C316.754 186.756 316.719 186.299 317.212 186.017Z" fill="#F0F5FF"/>
<path fill-rule="evenodd" clip-rule="evenodd" d="M1.5662 186.017L66.5245 149.135C67.0171 148.853 67.7913 148.853 68.2839 149.135L132.985 186.657C133.477 186.938 133.477 187.396 132.985 187.677L68.8469 224.54C68.3542 224.822 67.5801 224.822 67.0875 224.54L1.60138 187.038C1.10877 186.756 1.07358 186.299 1.5662 186.017Z" fill="#F0F5FF"/>
<path fill-rule="evenodd" clip-rule="evenodd" d="M352.169 185.211L382.481 168.1C382.706 167.967 383.068 167.967 383.339 168.1L413.831 185.344C414.056 185.478 414.056 185.7 413.831 185.833L383.565 202.9C383.339 203.033 382.977 203.033 382.706 202.9L352.169 185.656C351.944 185.522 351.944 185.344 352.169 185.211Z" fill="#DBDDDE"/>
<path fill-rule="evenodd" clip-rule="evenodd" d="M38.1639 185.211L67.4973 168.1C67.7158 167.967 68.0656 167.967 68.3279 168.1L97.8361 185.344C98.0546 185.478 98.0546 185.7 97.8361 185.833L68.5464 202.9C68.3279 203.033 67.9781 203.033 67.7158 202.9L38.1639 185.656C37.9454 185.522 37.9454 185.344 38.1639 185.211Z" fill="#DBDDDE"/>
<path fill-rule="evenodd" clip-rule="evenodd" d="M359.147 189.141L382.888 176.072C383.084 175.976 383.427 175.976 383.622 176.072L407.853 189.045C408.049 189.141 408.049 189.332 407.853 189.476L383.867 202.928C383.671 203.024 383.329 203.024 383.133 202.928L359.147 189.572C358.951 189.428 358.951 189.237 359.147 189.141Z" fill="#F9F9FE"/>
<path fill-rule="evenodd" clip-rule="evenodd" d="M42.1469 189.141L65.8881 176.072C66.0839 175.976 66.4266 175.976 66.6224 176.072L90.8531 189.045C91.0489 189.141 91.0489 189.332 90.8531 189.476L66.8671 202.928C66.6713 203.024 66.3287 203.024 66.1329 202.928L42.1469 189.572C41.951 189.428 41.951 189.237 42.1469 189.141Z" fill="#F9F9FE"/>
<g opacity="0.9">
<path d="M374.513 192.292L383.238 187.306L391.465 191.794L382.989 197.029L374.513 192.292Z" fill="url(#paint24_linear_160_2108)"/>
<path d="M374.513 192.292V198.922L382.989 203.908V197.029L374.513 192.292Z" fill="url(#paint25_linear_160_2108)"/>
<path d="M382.99 197.029L391.466 191.794V198.723L382.99 203.908V197.029Z" fill="url(#paint26_linear_160_2108)"/>
</g>
<path d="M374.514 177.67L383.239 172.684L391.466 177.171L382.99 182.407L374.514 177.67Z" fill="url(#paint27_linear_160_2108)"/>
<path d="M374.513 177.67V187.642L382.989 192.628V182.407L374.513 177.67Z" fill="url(#paint28_linear_160_2108)"/>
<path d="M382.99 182.407L391.466 177.171V187.442L382.99 192.628V182.407Z" fill="url(#paint29_linear_160_2108)"/>
<g opacity="0.9">
<path d="M58.8662 192.292L67.5917 187.306L75.8185 191.794L67.3424 197.029L58.8662 192.292Z" fill="url(#paint30_linear_160_2108)"/>
<path d="M58.8662 192.292V198.922L67.3424 203.908V197.029L58.8662 192.292Z" fill="url(#paint31_linear_160_2108)"/>
<path d="M67.3428 197.029L75.8189 191.794V198.723L67.3428 203.908V197.029Z" fill="url(#paint32_linear_160_2108)"/>
</g>
<path d="M58.8672 177.67L67.5926 172.684L75.8195 177.171L67.3433 182.407L58.8672 177.67Z" fill="url(#paint33_linear_160_2108)"/>
<path d="M58.8662 177.67V187.642L67.3424 192.628V182.407L58.8662 177.67Z" fill="url(#paint34_linear_160_2108)"/>
<path d="M67.3428 182.407L75.8189 177.171V187.442L67.3428 192.628V182.407Z" fill="url(#paint35_linear_160_2108)"/>
<path d="M374.521 161.794L383.246 156.808L391.473 161.296L382.997 166.531L374.521 161.794Z" fill="#F67C7C"/>
<path d="M374.521 161.794V171.766L382.997 176.752V166.531L374.521 161.794Z" fill="#DE2424"/>
<path d="M382.997 166.531L391.473 161.296V171.567L382.997 176.752V166.531Z" fill="#F32626"/>
<path d="M58.873 161.794L67.5985 156.808L75.8254 161.296L67.3492 166.531L58.873 161.794Z" fill="#F67C7C"/>
<path d="M58.873 161.794V171.766L67.3492 176.752V166.531L58.873 161.794Z" fill="#DE2424"/>
<path d="M67.3496 166.531L75.8258 161.296V171.567L67.3496 176.752V166.531Z" fill="#F32626"/>
<rect width="10.5433" height="10.5433" transform="matrix(0.866025 0.5 -0.866025 0.5 383.236 141.104)" fill="#40E7BF"/>
<rect width="10.5433" height="10.5433" transform="matrix(0.866025 -0.5 2.20305e-08 1 383.246 151.605)" fill="#4BDEBB"/>
<rect width="10.5433" height="10.5433" transform="matrix(0.866025 0.5 -2.20305e-08 1 374.115 146.334)" fill="#2CD0A9"/>
<rect width="10.5433" height="10.5433" transform="matrix(0.866025 0.5 -0.866025 0.5 67.5898 141.104)" fill="#40E7BF"/>
<rect width="10.5433" height="10.5433" transform="matrix(0.866025 -0.5 2.20305e-08 1 67.5996 151.605)" fill="#4BDEBB"/>
<rect width="10.5433" height="10.5433" transform="matrix(0.866025 0.5 -2.20305e-08 1 58.4688 146.334)" fill="#2CD0A9"/>
<rect width="10.1615" height="10.1615" transform="matrix(0.866025 0.5 -0.866025 0.5 382.826 124.602)" fill="#FBFF4E"/>
<rect width="10.1615" height="10.1615" transform="matrix(0.866025 -0.5 2.20305e-08 1 382.837 134.723)" fill="#F0F344"/>
<rect width="10.1615" height="10.1615" transform="matrix(0.866025 0.5 -2.20305e-08 1 374.036 129.642)" fill="url(#paint36_linear_160_2108)"/>
<rect width="10.1615" height="10.1615" transform="matrix(0.866025 0.5 -0.866025 0.5 67.1807 124.602)" fill="#FBFF4E"/>
<rect width="10.1615" height="10.1615" transform="matrix(0.866025 -0.5 2.20305e-08 1 67.1914 134.723)" fill="#F0F344"/>
<rect width="10.1615" height="10.1615" transform="matrix(0.866025 0.5 -2.20305e-08 1 58.3906 129.642)" fill="url(#paint37_linear_160_2108)"/>
<rect width="10.1524" height="10.1524" transform="matrix(0.866025 0.5 -0.866025 0.5 382.903 108.199)" fill="#6D9EFC"/>
<rect width="10.1524" height="10.1524" transform="matrix(0.866025 -0.5 2.20305e-08 1 382.915 118.311)" fill="#93B8FF"/>
<rect width="10.1524" height="10.1524" transform="matrix(0.866025 0.5 -2.20305e-08 1 374.123 113.235)" fill="#5891FF"/>
<rect width="10.1524" height="10.1524" transform="matrix(0.866025 0.5 -0.866025 0.5 67.2578 108.199)" fill="#6D9EFC"/>
<rect width="10.1524" height="10.1524" transform="matrix(0.866025 -0.5 2.20305e-08 1 67.2695 118.311)" fill="#93B8FF"/>
<rect width="10.1524" height="10.1524" transform="matrix(0.866025 0.5 -2.20305e-08 1 58.4775 113.235)" fill="#5891FF"/>
<rect width="72.2665" height="72.0535" rx="7" transform="matrix(0.866025 0.5 -0.866025 0.5 219.989 231.645)" fill="#76A3FB"/>
<rect width="51.4896" height="51.3378" rx="6" transform="matrix(0.866025 0.5 -0.866025 0.5 220.497 240.919)" fill="url(#paint38_linear_160_2108)"/>
<path d="M225.424 243.764C222.702 242.193 218.29 242.193 215.569 243.764L180.964 263.743C179.096 264.821 178.51 266.359 179.206 267.726C179.524 267.101 180.11 266.512 180.964 266.019L215.569 246.04C218.29 244.468 222.702 244.468 225.424 246.04L260.161 266.095C261.014 266.588 261.6 267.177 261.918 267.802C262.614 266.435 262.028 264.897 260.161 263.819L225.424 243.764Z" fill="#A1C4F9"/>
<path d="M161.657 266.499H161.767C161.718 266.656 161.682 266.814 161.657 266.973V266.499Z" fill="url(#paint39_linear_160_2108)"/>
<path d="M161.657 299.123V267.991C161.856 269.259 162.798 270.497 164.484 271.468L213.277 299.569C217.099 301.77 223.296 301.77 227.119 299.569L275.727 271.574C278.121 270.195 279.016 268.279 278.41 266.499H278.734V299.123H278.685C278.778 300.632 277.824 302.157 275.825 303.309L227.217 331.303C223.394 333.505 217.197 333.505 213.375 331.303L164.582 303.202C162.63 302.078 161.675 300.597 161.717 299.123H161.657Z" fill="url(#paint40_linear_160_2108)"/>
<circle cx="234.9" cy="213.22" r="10.9062" fill="url(#paint41_radial_160_2108)"/>
<circle cx="234.745" cy="232.072" r="2.02544" fill="url(#paint42_radial_160_2108)"/>
<circle cx="234.766" cy="243.622" r="3.2928" fill="url(#paint43_radial_160_2108)"/>
<circle cx="210.439" cy="259.182" r="4.5183" fill="url(#paint44_radial_160_2108)"/>
<circle cx="234.942" cy="258.756" r="6.5856" fill="url(#paint45_radial_160_2108)"/>
<circle cx="210.479" cy="236.785" r="12.348" fill="url(#paint46_radial_160_2108)"/>
<circle cx="210.414" cy="213.35" r="8.232" fill="url(#paint47_radial_160_2108)"/>
<path d="M171.585 104.338H171.676C171.636 104.48 171.606 104.622 171.585 104.766V104.338Z" fill="url(#paint48_linear_160_2108)"/>
<path d="M171.585 269.245V105.685C171.75 106.831 172.535 107.949 173.939 108.826L214.652 143.319C217.835 145.308 222.995 145.308 226.178 143.319L266.574 108.922C268.568 107.676 269.312 105.946 268.808 104.338H269.078V269.245H269.037C269.114 270.608 268.32 271.986 266.655 273.026L226.178 298.315C222.995 300.304 217.835 300.304 214.652 298.315L174.021 272.93C172.395 271.914 171.6 270.576 171.635 269.245H171.585Z" fill="url(#paint49_linear_160_2108)"/>
<circle cx="134.994" cy="52.018" r="10.9062" fill="url(#paint50_radial_160_2108)"/>
<circle cx="134.838" cy="70.8702" r="2.02544" fill="url(#paint51_radial_160_2108)"/>
<circle cx="134.86" cy="82.4206" r="3.2928" fill="url(#paint52_radial_160_2108)"/>
<circle cx="110.533" cy="97.98" r="4.5183" fill="url(#paint53_radial_160_2108)"/>
<circle cx="135.036" cy="97.5545" r="6.5856" fill="url(#paint54_radial_160_2108)"/>
<circle cx="110.573" cy="75.5838" r="12.348" fill="url(#paint55_radial_160_2108)"/>
<circle cx="110.507" cy="52.1483" r="8.232" fill="url(#paint56_radial_160_2108)"/>
<circle cx="330.945" cy="55.8791" r="10.9062" fill="url(#paint57_radial_160_2108)"/>
<circle cx="330.789" cy="74.7313" r="2.02544" fill="url(#paint58_radial_160_2108)"/>
<circle cx="330.811" cy="86.2817" r="3.2928" fill="url(#paint59_radial_160_2108)"/>
<circle cx="306.484" cy="101.841" r="4.5183" fill="url(#paint60_radial_160_2108)"/>
<circle cx="330.987" cy="101.416" r="6.5856" fill="url(#paint61_radial_160_2108)"/>
<circle cx="306.524" cy="79.4449" r="12.348" fill="url(#paint62_radial_160_2108)"/>
<circle cx="306.459" cy="56.0094" r="8.232" fill="url(#paint63_radial_160_2108)"/>
<circle cx="155.265" cy="356.081" r="10.9062" fill="url(#paint64_radial_160_2108)"/>
<circle cx="155.108" cy="374.933" r="2.02544" fill="url(#paint65_radial_160_2108)"/>
<circle cx="155.131" cy="386.483" r="3.2928" fill="url(#paint66_radial_160_2108)"/>
<circle cx="130.803" cy="402.043" r="4.5183" fill="url(#paint67_radial_160_2108)"/>
<circle cx="155.306" cy="401.617" r="6.5856" fill="url(#paint68_radial_160_2108)"/>
<circle cx="130.843" cy="379.647" r="12.348" fill="url(#paint69_radial_160_2108)"/>
<circle cx="130.778" cy="356.211" r="8.232" fill="url(#paint70_radial_160_2108)"/>
<circle cx="328.05" cy="356.081" r="10.9062" fill="url(#paint71_radial_160_2108)"/>
<circle cx="327.894" cy="374.933" r="2.02544" fill="url(#paint72_radial_160_2108)"/>
<circle cx="327.916" cy="386.483" r="3.2928" fill="url(#paint73_radial_160_2108)"/>
<circle cx="303.589" cy="402.043" r="4.5183" fill="url(#paint74_radial_160_2108)"/>
<circle cx="328.091" cy="401.617" r="6.5856" fill="url(#paint75_radial_160_2108)"/>
<circle cx="303.628" cy="379.647" r="12.348" fill="url(#paint76_radial_160_2108)"/>
<circle cx="303.563" cy="356.211" r="8.232" fill="url(#paint77_radial_160_2108)"/>
<defs>
<linearGradient id="paint0_linear_160_2108" x1="382.989" y1="265.012" x2="382.989" y2="274.737" gradientUnits="userSpaceOnUse">
<stop stop-color="#E8E8E8"/>
<stop offset="1" stop-color="#727272"/>
</linearGradient>
<linearGradient id="paint1_linear_160_2108" x1="378.751" y1="269.999" x2="378.751" y2="284.959" gradientUnits="userSpaceOnUse">
<stop stop-color="#E8E8E8"/>
<stop offset="1" stop-color="#727272"/>
</linearGradient>
<linearGradient id="paint2_linear_160_2108" x1="387.228" y1="269.5" x2="387.228" y2="284.959" gradientUnits="userSpaceOnUse">
<stop stop-color="#E8E8E8"/>
<stop offset="1" stop-color="#727272"/>
</linearGradient>
<linearGradient id="paint3_linear_160_2108" x1="67.3437" y1="265.012" x2="67.3437" y2="274.737" gradientUnits="userSpaceOnUse">
<stop stop-color="#E8E8E8"/>
<stop offset="1" stop-color="#727272"/>
</linearGradient>
<linearGradient id="paint4_linear_160_2108" x1="63.1055" y1="269.999" x2="63.1055" y2="284.959" gradientUnits="userSpaceOnUse">
<stop stop-color="#E8E8E8"/>
<stop offset="1" stop-color="#727272"/>
</linearGradient>
<linearGradient id="paint5_linear_160_2108" x1="71.582" y1="269.5" x2="71.582" y2="284.959" gradientUnits="userSpaceOnUse">
<stop stop-color="#E8E8E8"/>
<stop offset="1" stop-color="#727272"/>
</linearGradient>
<linearGradient id="paint6_linear_160_2108" x1="382.99" y1="250.391" x2="382.99" y2="260.115" gradientUnits="userSpaceOnUse">
<stop stop-color="#E8E8E8"/>
<stop offset="1" stop-color="#727272"/>
</linearGradient>
<linearGradient id="paint7_linear_160_2108" x1="378.751" y1="255.376" x2="378.751" y2="270.337" gradientUnits="userSpaceOnUse">
<stop stop-color="#BAD7FA"/>
<stop offset="1" stop-color="#727272"/>
</linearGradient>
<linearGradient id="paint8_linear_160_2108" x1="387.228" y1="254.878" x2="387.228" y2="270.337" gradientUnits="userSpaceOnUse">
<stop stop-color="#9CC9FD"/>
<stop offset="1" stop-color="#727272"/>
</linearGradient>
<linearGradient id="paint9_linear_160_2108" x1="67.3447" y1="250.391" x2="67.3447" y2="260.115" gradientUnits="userSpaceOnUse">
<stop stop-color="#E8E8E8"/>
<stop offset="1" stop-color="#727272"/>
</linearGradient>
<linearGradient id="paint10_linear_160_2108" x1="63.1055" y1="255.376" x2="63.1055" y2="270.337" gradientUnits="userSpaceOnUse">
<stop stop-color="#BAD7FA"/>
<stop offset="1" stop-color="#727272"/>
</linearGradient>
<linearGradient id="paint11_linear_160_2108" x1="71.582" y1="254.878" x2="71.582" y2="270.337" gradientUnits="userSpaceOnUse">
<stop stop-color="#9CC9FD"/>
<stop offset="1" stop-color="#727272"/>
</linearGradient>
<linearGradient id="paint12_linear_160_2108" x1="382.99" y1="234.515" x2="382.99" y2="244.239" gradientUnits="userSpaceOnUse">
<stop stop-color="#C4DEFF"/>
<stop offset="1" stop-color="#8FBFF9"/>
</linearGradient>
<linearGradient id="paint13_linear_160_2108" x1="378.751" y1="239.501" x2="378.751" y2="254.461" gradientUnits="userSpaceOnUse">
<stop stop-color="#A2CCFD"/>
<stop offset="1" stop-color="#727272"/>
</linearGradient>
<linearGradient id="paint14_linear_160_2108" x1="387.228" y1="239.003" x2="387.228" y2="254.462" gradientUnits="userSpaceOnUse">
<stop stop-color="#A5CDFD"/>
<stop offset="1" stop-color="#727272"/>
</linearGradient>
<linearGradient id="paint15_linear_160_2108" x1="67.3447" y1="234.515" x2="67.3447" y2="244.239" gradientUnits="userSpaceOnUse">
<stop stop-color="#C4DEFF"/>
<stop offset="1" stop-color="#8FBFF9"/>
</linearGradient>
<linearGradient id="paint16_linear_160_2108" x1="63.1055" y1="239.501" x2="63.1055" y2="254.461" gradientUnits="userSpaceOnUse">
<stop stop-color="#A2CCFD"/>
<stop offset="1" stop-color="#727272"/>
</linearGradient>
<linearGradient id="paint17_linear_160_2108" x1="71.582" y1="239.003" x2="71.582" y2="254.462" gradientUnits="userSpaceOnUse">
<stop stop-color="#A5CDFD"/>
<stop offset="1" stop-color="#727272"/>
</linearGradient>
<linearGradient id="paint18_linear_160_2108" x1="382.99" y1="219.892" x2="382.99" y2="229.616" gradientUnits="userSpaceOnUse">
<stop stop-color="#E8E8E8"/>
<stop offset="1" stop-color="#727272"/>
</linearGradient>
<linearGradient id="paint19_linear_160_2108" x1="378.751" y1="224.878" x2="378.751" y2="239.838" gradientUnits="userSpaceOnUse">
<stop stop-color="#88BDFA"/>
<stop offset="1" stop-color="#086DE0"/>
</linearGradient>
<linearGradient id="paint20_linear_160_2108" x1="387.228" y1="224.379" x2="387.228" y2="239.838" gradientUnits="userSpaceOnUse">
<stop stop-color="#C8E1FE"/>
<stop offset="1" stop-color="#56A2FA"/>
</linearGradient>
<linearGradient id="paint21_linear_160_2108" x1="67.3447" y1="219.892" x2="67.3447" y2="229.616" gradientUnits="userSpaceOnUse">
<stop stop-color="#E8E8E8"/>
<stop offset="1" stop-color="#727272"/>
</linearGradient>
<linearGradient id="paint22_linear_160_2108" x1="63.1055" y1="224.878" x2="63.1055" y2="239.838" gradientUnits="userSpaceOnUse">
<stop stop-color="#88BDFA"/>
<stop offset="1" stop-color="#086DE0"/>
</linearGradient>
<linearGradient id="paint23_linear_160_2108" x1="71.582" y1="224.379" x2="71.582" y2="239.838" gradientUnits="userSpaceOnUse">
<stop stop-color="#C8E1FE"/>
<stop offset="1" stop-color="#56A2FA"/>
</linearGradient>
<linearGradient id="paint24_linear_160_2108" x1="382.989" y1="187.306" x2="382.989" y2="197.03" gradientUnits="userSpaceOnUse">
<stop stop-color="#D1E6FF"/>
<stop offset="1" stop-color="#A2C8F4"/>
</linearGradient>
<linearGradient id="paint25_linear_160_2108" x1="378.751" y1="192.292" x2="378.751" y2="203.91" gradientUnits="userSpaceOnUse">
<stop stop-color="#70AFF9"/>
<stop offset="1" stop-color="#8CBFFA"/>
</linearGradient>
<linearGradient id="paint26_linear_160_2108" x1="387.229" y1="191.794" x2="387.229" y2="203.91" gradientUnits="userSpaceOnUse">
<stop stop-color="#C2DEFF"/>
<stop offset="1" stop-color="#C3DDFC"/>
</linearGradient>
<linearGradient id="paint27_linear_160_2108" x1="382.99" y1="172.684" x2="382.99" y2="182.408" gradientUnits="userSpaceOnUse">
<stop stop-color="#D1E6FF"/>
<stop offset="1" stop-color="#A2C8F4"/>
</linearGradient>
<linearGradient id="paint28_linear_160_2108" x1="378.751" y1="177.67" x2="378.751" y2="192.63" gradientUnits="userSpaceOnUse">
<stop stop-color="#5DA5FA"/>
<stop offset="1" stop-color="#A2C8F4"/>
</linearGradient>
<linearGradient id="paint29_linear_160_2108" x1="387.229" y1="177.171" x2="387.229" y2="192.63" gradientUnits="userSpaceOnUse">
<stop stop-color="#D1E6FF"/>
<stop offset="1" stop-color="#A2C8F4"/>
</linearGradient>
<linearGradient id="paint30_linear_160_2108" x1="67.3427" y1="187.306" x2="67.3427" y2="197.03" gradientUnits="userSpaceOnUse">
<stop stop-color="#D1E6FF"/>
<stop offset="1" stop-color="#A2C8F4"/>
</linearGradient>
<linearGradient id="paint31_linear_160_2108" x1="63.1045" y1="192.292" x2="63.1045" y2="203.91" gradientUnits="userSpaceOnUse">
<stop stop-color="#70AFF9"/>
<stop offset="1" stop-color="#8CBFFA"/>
</linearGradient>
<linearGradient id="paint32_linear_160_2108" x1="71.581" y1="191.794" x2="71.581" y2="203.91" gradientUnits="userSpaceOnUse">
<stop stop-color="#C2DEFF"/>
<stop offset="1" stop-color="#C3DDFC"/>
</linearGradient>
<linearGradient id="paint33_linear_160_2108" x1="67.3437" y1="172.684" x2="67.3437" y2="182.408" gradientUnits="userSpaceOnUse">
<stop stop-color="#D1E6FF"/>
<stop offset="1" stop-color="#A2C8F4"/>
</linearGradient>
<linearGradient id="paint34_linear_160_2108" x1="63.1045" y1="177.67" x2="63.1045" y2="192.63" gradientUnits="userSpaceOnUse">
<stop stop-color="#5DA5FA"/>
<stop offset="1" stop-color="#A2C8F4"/>
</linearGradient>
<linearGradient id="paint35_linear_160_2108" x1="71.581" y1="177.171" x2="71.581" y2="192.63" gradientUnits="userSpaceOnUse">
<stop stop-color="#D1E6FF"/>
<stop offset="1" stop-color="#A2C8F4"/>
</linearGradient>
<linearGradient id="paint36_linear_160_2108" x1="5.08074" y1="0" x2="5.08074" y2="10.1615" gradientUnits="userSpaceOnUse">
<stop stop-color="#EAEE24" stop-opacity="0.82"/>
<stop offset="1" stop-color="#EEDA24"/>
</linearGradient>
<linearGradient id="paint37_linear_160_2108" x1="5.08074" y1="0" x2="5.08074" y2="10.1615" gradientUnits="userSpaceOnUse">
<stop stop-color="#EAEE24" stop-opacity="0.82"/>
<stop offset="1" stop-color="#EEDA24"/>
</linearGradient>
<linearGradient id="paint38_linear_160_2108" x1="25.7448" y1="0" x2="93.3188" y2="87.0482" gradientUnits="userSpaceOnUse">
<stop stop-color="#ABD5FB"/>
<stop offset="1" stop-color="#3ED1FF"/>
</linearGradient>
<linearGradient id="paint39_linear_160_2108" x1="161.657" y1="293.09" x2="283.929" y2="293.09" gradientUnits="userSpaceOnUse">
<stop offset="0.119792" stop-color="#9FC6FF"/>
<stop offset="0.498976" stop-color="#6DA6FD"/>
<stop offset="0.702139" stop-color="#8BBAFF"/>
</linearGradient>
<linearGradient id="paint40_linear_160_2108" x1="161.657" y1="293.09" x2="283.929" y2="293.09" gradientUnits="userSpaceOnUse">
<stop offset="0.119792" stop-color="#9FC6FF"/>
<stop offset="0.498976" stop-color="#6DA6FD"/>
<stop offset="0.702139" stop-color="#8BBAFF"/>
</linearGradient>
<radialGradient id="paint41_radial_160_2108" cx="0" cy="0" r="1" gradientUnits="userSpaceOnUse" gradientTransform="translate(229.447 217.158) rotate(-37.7939) scale(18.7854)">
<stop stop-color="#15955E"/>
<stop offset="1" stop-color="#42E7AA"/>
</radialGradient>
<radialGradient id="paint42_radial_160_2108" cx="0" cy="0" r="1" gradientUnits="userSpaceOnUse" gradientTransform="translate(233.732 232.803) rotate(-37.7939) scale(3.48872)">
<stop stop-color="#CC640E"/>
<stop offset="1" stop-color="#FF9D4D"/>
</radialGradient>
<radialGradient id="paint43_radial_160_2108" cx="0" cy="0" r="1" gradientUnits="userSpaceOnUse" gradientTransform="translate(233.12 244.811) rotate(-37.7939) scale(5.67167)">
<stop stop-color="#048B8E"/>
<stop offset="1" stop-color="#1CCDD1"/>
</radialGradient>
<radialGradient id="paint44_radial_160_2108" cx="0" cy="0" r="1" gradientUnits="userSpaceOnUse" gradientTransform="translate(208.18 260.813) rotate(-37.7939) scale(7.78252)">
<stop stop-color="#D9AC3E"/>
<stop offset="1" stop-color="#FFEE50"/>
</radialGradient>
<radialGradient id="paint45_radial_160_2108" cx="0" cy="0" r="1" gradientUnits="userSpaceOnUse" gradientTransform="translate(231.649 261.134) rotate(-37.7939) scale(11.3433)">
<stop stop-color="#A81525"/>
<stop offset="1" stop-color="#F67C7C"/>
</radialGradient>
<radialGradient id="paint46_radial_160_2108" cx="0" cy="0" r="1" gradientUnits="userSpaceOnUse" gradientTransform="translate(204.305 241.244) rotate(-37.7939) scale(21.2688)">
<stop stop-color="#052DAC"/>
<stop offset="1" stop-color="#1CCDD1"/>
</radialGradient>
<radialGradient id="paint47_radial_160_2108" cx="0" cy="0" r="1" gradientUnits="userSpaceOnUse" gradientTransform="translate(206.298 216.322) rotate(-37.7939) scale(14.1792)">
<stop stop-color="#E3E3E3"/>
<stop offset="1" stop-color="white"/>
</radialGradient>
<linearGradient id="paint48_linear_160_2108" x1="218.661" y1="110.239" x2="218.661" y2="299.807" gradientUnits="userSpaceOnUse">
<stop stop-color="#F7F9FF" stop-opacity="0"/>
<stop offset="0.0001" stop-color="#F7F9FF" stop-opacity="0"/>
<stop offset="0.46875" stop-color="#5A7DFD" stop-opacity="0.44"/>
<stop offset="1" stop-color="#2B59FB" stop-opacity="0.35"/>
</linearGradient>
<linearGradient id="paint49_linear_160_2108" x1="218.661" y1="110.239" x2="218.661" y2="299.807" gradientUnits="userSpaceOnUse">
<stop stop-color="#F7F9FF" stop-opacity="0"/>
<stop offset="0.0001" stop-color="#F7F9FF" stop-opacity="0"/>
<stop offset="0.46875" stop-color="#5A7DFD" stop-opacity="0.44"/>
<stop offset="1" stop-color="#2B59FB" stop-opacity="0.35"/>
</linearGradient>
<radialGradient id="paint50_radial_160_2108" cx="0" cy="0" r="1" gradientUnits="userSpaceOnUse" gradientTransform="translate(129.541 55.9564) rotate(-37.7939) scale(18.7854)">
<stop stop-color="#15955E"/>
<stop offset="1" stop-color="#42E7AA"/>
</radialGradient>
<radialGradient id="paint51_radial_160_2108" cx="0" cy="0" r="1" gradientUnits="userSpaceOnUse" gradientTransform="translate(133.825 71.6016) rotate(-37.7939) scale(3.48872)">
<stop stop-color="#CC640E"/>
<stop offset="1" stop-color="#FF9D4D"/>
</radialGradient>
<radialGradient id="paint52_radial_160_2108" cx="0" cy="0" r="1" gradientUnits="userSpaceOnUse" gradientTransform="translate(133.214 83.6097) rotate(-37.7939) scale(5.67167)">
<stop stop-color="#048B8E"/>
<stop offset="1" stop-color="#1CCDD1"/>
</radialGradient>
<radialGradient id="paint53_radial_160_2108" cx="0" cy="0" r="1" gradientUnits="userSpaceOnUse" gradientTransform="translate(108.274 99.6116) rotate(-37.7939) scale(7.78252)">
<stop stop-color="#D9AC3E"/>
<stop offset="1" stop-color="#FFEE50"/>
</radialGradient>
<radialGradient id="paint54_radial_160_2108" cx="0" cy="0" r="1" gradientUnits="userSpaceOnUse" gradientTransform="translate(131.743 99.9326) rotate(-37.7939) scale(11.3433)">
<stop stop-color="#A81525"/>
<stop offset="1" stop-color="#F67C7C"/>
</radialGradient>
<radialGradient id="paint55_radial_160_2108" cx="0" cy="0" r="1" gradientUnits="userSpaceOnUse" gradientTransform="translate(104.399 80.0428) rotate(-37.7939) scale(21.2688)">
<stop stop-color="#052DAC"/>
<stop offset="1" stop-color="#1CCDD1"/>
</radialGradient>
<radialGradient id="paint56_radial_160_2108" cx="0" cy="0" r="1" gradientUnits="userSpaceOnUse" gradientTransform="translate(106.391 55.1209) rotate(-37.7939) scale(14.1792)">
<stop stop-color="#E3E3E3"/>
<stop offset="1" stop-color="white"/>
</radialGradient>
<radialGradient id="paint57_radial_160_2108" cx="0" cy="0" r="1" gradientUnits="userSpaceOnUse" gradientTransform="translate(325.492 59.8175) rotate(-37.7939) scale(18.7854)">
<stop stop-color="#15955E"/>
<stop offset="1" stop-color="#42E7AA"/>
</radialGradient>
<radialGradient id="paint58_radial_160_2108" cx="0" cy="0" r="1" gradientUnits="userSpaceOnUse" gradientTransform="translate(329.776 75.4627) rotate(-37.7939) scale(3.48872)">
<stop stop-color="#CC640E"/>
<stop offset="1" stop-color="#FF9D4D"/>
</radialGradient>
<radialGradient id="paint59_radial_160_2108" cx="0" cy="0" r="1" gradientUnits="userSpaceOnUse" gradientTransform="translate(329.165 87.4707) rotate(-37.7939) scale(5.67167)">
<stop stop-color="#048B8E"/>
<stop offset="1" stop-color="#1CCDD1"/>
</radialGradient>
<radialGradient id="paint60_radial_160_2108" cx="0" cy="0" r="1" gradientUnits="userSpaceOnUse" gradientTransform="translate(304.225 103.473) rotate(-37.7939) scale(7.78252)">
<stop stop-color="#D9AC3E"/>
<stop offset="1" stop-color="#FFEE50"/>
</radialGradient>
<radialGradient id="paint61_radial_160_2108" cx="0" cy="0" r="1" gradientUnits="userSpaceOnUse" gradientTransform="translate(327.694 103.794) rotate(-37.7939) scale(11.3433)">
<stop stop-color="#A81525"/>
<stop offset="1" stop-color="#F67C7C"/>
</radialGradient>
<radialGradient id="paint62_radial_160_2108" cx="0" cy="0" r="1" gradientUnits="userSpaceOnUse" gradientTransform="translate(300.35 83.9039) rotate(-37.7939) scale(21.2688)">
<stop stop-color="#052DAC"/>
<stop offset="1" stop-color="#1CCDD1"/>
</radialGradient>
<radialGradient id="paint63_radial_160_2108" cx="0" cy="0" r="1" gradientUnits="userSpaceOnUse" gradientTransform="translate(302.343 58.982) rotate(-37.7939) scale(14.1792)">
<stop stop-color="#E3E3E3"/>
<stop offset="1" stop-color="white"/>
</radialGradient>
<radialGradient id="paint64_radial_160_2108" cx="0" cy="0" r="1" gradientUnits="userSpaceOnUse" gradientTransform="translate(149.812 360.019) rotate(-37.7939) scale(18.7854)">
<stop stop-color="#15955E"/>
<stop offset="1" stop-color="#42E7AA"/>
</radialGradient>
<radialGradient id="paint65_radial_160_2108" cx="0" cy="0" r="1" gradientUnits="userSpaceOnUse" gradientTransform="translate(154.096 375.664) rotate(-37.7939) scale(3.48872)">
<stop stop-color="#CC640E"/>
<stop offset="1" stop-color="#FF9D4D"/>
</radialGradient>
<radialGradient id="paint66_radial_160_2108" cx="0" cy="0" r="1" gradientUnits="userSpaceOnUse" gradientTransform="translate(153.484 387.672) rotate(-37.7939) scale(5.67167)">
<stop stop-color="#048B8E"/>
<stop offset="1" stop-color="#1CCDD1"/>
</radialGradient>
<radialGradient id="paint67_radial_160_2108" cx="0" cy="0" r="1" gradientUnits="userSpaceOnUse" gradientTransform="translate(128.544 403.674) rotate(-37.7939) scale(7.78252)">
<stop stop-color="#D9AC3E"/>
<stop offset="1" stop-color="#FFEE50"/>
</radialGradient>
<radialGradient id="paint68_radial_160_2108" cx="0" cy="0" r="1" gradientUnits="userSpaceOnUse" gradientTransform="translate(152.014 403.995) rotate(-37.7939) scale(11.3433)">
<stop stop-color="#A81525"/>
<stop offset="1" stop-color="#F67C7C"/>
</radialGradient>
<radialGradient id="paint69_radial_160_2108" cx="0" cy="0" r="1" gradientUnits="userSpaceOnUse" gradientTransform="translate(124.669 384.106) rotate(-37.7939) scale(21.2688)">
<stop stop-color="#052DAC"/>
<stop offset="1" stop-color="#1CCDD1"/>
</radialGradient>
<radialGradient id="paint70_radial_160_2108" cx="0" cy="0" r="1" gradientUnits="userSpaceOnUse" gradientTransform="translate(126.662 359.184) rotate(-37.7939) scale(14.1792)">
<stop stop-color="#E3E3E3"/>
<stop offset="1" stop-color="white"/>
</radialGradient>
<radialGradient id="paint71_radial_160_2108" cx="0" cy="0" r="1" gradientUnits="userSpaceOnUse" gradientTransform="translate(322.597 360.019) rotate(-37.7939) scale(18.7854)">
<stop stop-color="#15955E"/>
<stop offset="1" stop-color="#42E7AA"/>
</radialGradient>
<radialGradient id="paint72_radial_160_2108" cx="0" cy="0" r="1" gradientUnits="userSpaceOnUse" gradientTransform="translate(326.881 375.664) rotate(-37.7939) scale(3.48872)">
<stop stop-color="#CC640E"/>
<stop offset="1" stop-color="#FF9D4D"/>
</radialGradient>
<radialGradient id="paint73_radial_160_2108" cx="0" cy="0" r="1" gradientUnits="userSpaceOnUse" gradientTransform="translate(326.269 387.672) rotate(-37.7939) scale(5.67167)">
<stop stop-color="#048B8E"/>
<stop offset="1" stop-color="#1CCDD1"/>
</radialGradient>
<radialGradient id="paint74_radial_160_2108" cx="0" cy="0" r="1" gradientUnits="userSpaceOnUse" gradientTransform="translate(301.329 403.674) rotate(-37.7939) scale(7.78252)">
<stop stop-color="#D9AC3E"/>
<stop offset="1" stop-color="#FFEE50"/>
</radialGradient>
<radialGradient id="paint75_radial_160_2108" cx="0" cy="0" r="1" gradientUnits="userSpaceOnUse" gradientTransform="translate(324.799 403.995) rotate(-37.7939) scale(11.3433)">
<stop stop-color="#A81525"/>
<stop offset="1" stop-color="#F67C7C"/>
</radialGradient>
<radialGradient id="paint76_radial_160_2108" cx="0" cy="0" r="1" gradientUnits="userSpaceOnUse" gradientTransform="translate(297.454 384.106) rotate(-37.7939) scale(21.2688)">
<stop stop-color="#052DAC"/>
<stop offset="1" stop-color="#1CCDD1"/>
</radialGradient>
<radialGradient id="paint77_radial_160_2108" cx="0" cy="0" r="1" gradientUnits="userSpaceOnUse" gradientTransform="translate(299.447 359.184) rotate(-37.7939) scale(14.1792)">
<stop stop-color="#E3E3E3"/>
<stop offset="1" stop-color="white"/>
</radialGradient>
</defs>
</svg>
