<svg width="449" height="449" viewBox="0 0 449 449" fill="none" xmlns="http://www.w3.org/2000/svg">
<g clip-path="url(#clip0_162_3198)">
<g opacity="0.5">
<path fill-rule="evenodd" clip-rule="evenodd" d="M208.506 0.514389V7.01631H205.42V0.514389H208.506Z" fill="#FFD215"/>
<path fill-rule="evenodd" clip-rule="evenodd" d="M206.963 6.10352e-05C207.837 6.10352e-05 208.506 0.240057 208.506 0.514337C208.506 0.788618 207.837 1.02861 206.963 1.02861C206.088 1.02861 205.42 0.788618 205.42 0.514337C205.42 0.240057 206.088 6.10352e-05 206.963 6.10352e-05Z" fill="#F3F3F3"/>
<path fill-rule="evenodd" clip-rule="evenodd" d="M214.639 4.11446C215.513 4.11446 216.181 4.35445 216.181 4.62873C216.181 4.90301 215.513 5.14301 214.639 5.14301C213.764 5.14301 213.096 4.90301 213.096 4.62873C213.096 4.35445 213.764 4.11446 214.639 4.11446Z" fill="#F3F3F3"/>
</g>
<path fill-rule="evenodd" clip-rule="evenodd" d="M232.344 431.402C233.671 431.402 234.685 431.737 234.685 432.119C234.685 432.501 233.671 432.836 232.344 432.836C231.017 432.836 230.003 432.501 230.003 432.119C230.003 431.737 231.017 431.402 232.344 431.402Z" fill="#F32626"/>
<g opacity="0.5">
<path fill-rule="evenodd" clip-rule="evenodd" d="M358.758 236.759V275.712H355.6V236.759H358.758Z" fill="#17CE8A"/>
<path fill-rule="evenodd" clip-rule="evenodd" d="M357.179 274.546C358.074 274.546 358.758 275.002 358.758 275.524C358.758 276.045 358.074 276.501 357.179 276.501C356.284 276.501 355.6 276.045 355.6 275.524C355.6 275.002 356.284 274.546 357.179 274.546Z" fill="#17CE8A"/>
<path fill-rule="evenodd" clip-rule="evenodd" d="M350.862 237.285V267.29H347.704V237.285H350.862Z" fill="#17CE8A"/>
<path fill-rule="evenodd" clip-rule="evenodd" d="M349.283 266.237C350.178 266.237 350.862 266.693 350.862 267.215C350.862 267.736 350.178 268.192 349.283 268.192C348.388 268.192 347.704 267.736 347.704 267.215C347.704 266.693 348.388 266.237 349.283 266.237Z" fill="#17CE8A"/>
<path fill-rule="evenodd" clip-rule="evenodd" d="M349.283 236.759C350.178 236.759 350.862 237.004 350.862 237.285C350.862 237.566 350.178 237.811 349.283 237.811C348.388 237.811 347.704 237.566 347.704 237.285C347.704 237.004 348.388 236.759 349.283 236.759Z" fill="#06AFFF"/>
<path fill-rule="evenodd" clip-rule="evenodd" d="M366.653 227.81V245.707H363.495V227.81H366.653Z" fill="#17CE8A"/>
<path fill-rule="evenodd" clip-rule="evenodd" d="M365.074 244.654C365.969 244.654 366.653 245.11 366.653 245.632C366.653 246.153 365.969 246.609 365.074 246.609C364.179 246.609 363.495 246.153 363.495 245.632C363.495 245.11 364.179 244.654 365.074 244.654Z" fill="#17CE8A"/>
<path fill-rule="evenodd" clip-rule="evenodd" d="M264.628 197.707L264.628 188.62C264.628 188.62 351.112 149.798 351.758 150.167L437.828 189.494V197.906C437.828 197.906 437.828 198.745 436.989 199.164L352.45 247.917C351.804 248.286 350.789 248.286 350.143 247.917L265.135 198.953C264.489 198.583 264.628 197.707 264.628 197.707Z" fill="#CBDAF8"/>
<path fill-rule="evenodd" clip-rule="evenodd" d="M265.034 188.025L350.231 139.652C350.877 139.283 351.892 139.283 352.538 139.652L437.397 188.864C438.043 189.233 438.043 189.833 437.397 190.203L353.277 238.55C352.631 238.919 351.615 238.919 350.969 238.55L265.081 189.364C264.434 188.995 264.388 188.395 265.034 188.025Z" fill="#E7F0FF"/>
<path fill-rule="evenodd" clip-rule="evenodd" d="M350.539 167.916L316.311 187.732C316.056 187.887 316.056 188.093 316.311 188.247L322.522 191.844C322.384 191.687 322.412 191.507 322.608 191.41C322.608 191.41 350.106 175.547 350.335 175.433C350.564 175.319 350.966 175.319 351.195 175.433C351.424 175.547 379.813 191.488 379.813 191.488C380.035 191.598 380.042 191.814 379.837 191.982L385.94 188.453C386.195 188.298 386.195 188.041 385.94 187.887L351.508 167.916C351.202 167.762 350.794 167.762 350.539 167.916Z" fill="#DBDDDE"/>
<path fill-rule="evenodd" clip-rule="evenodd" d="M342.965 258.341V281.545H339.807V258.341H342.965Z" fill="#17CE8A"/>
<path fill-rule="evenodd" clip-rule="evenodd" d="M341.386 281.062C342.281 281.062 342.965 281.287 342.965 281.545C342.965 281.803 342.281 282.029 341.386 282.029C340.491 282.029 339.807 281.803 339.807 281.545C339.807 281.287 340.491 281.062 341.386 281.062Z" fill="#F32626"/>
<path fill-rule="evenodd" clip-rule="evenodd" d="M341.386 257.815C342.281 257.815 342.965 258.06 342.965 258.341C342.965 258.622 342.281 258.867 341.386 258.867C340.491 258.867 339.807 258.622 339.807 258.341C339.807 258.06 340.491 257.815 341.386 257.815Z" fill="#F3F3F3"/>
<path fill-rule="evenodd" clip-rule="evenodd" d="M358.798 107.002V185.698H355.64V107.002H358.798Z" fill="#17CE8A"/>
<path fill-rule="evenodd" clip-rule="evenodd" d="M357.179 184.796C358.074 184.796 358.758 185.252 358.758 185.773C358.758 186.295 358.074 186.751 357.179 186.751C356.284 186.751 355.6 186.295 355.6 185.773C355.6 185.252 356.284 184.796 357.179 184.796Z" fill="#17CE8A"/>
<path fill-rule="evenodd" clip-rule="evenodd" d="M366.693 168.327V174.982H363.534V168.327H366.693Z" fill="#17CE8A"/>
<path fill-rule="evenodd" clip-rule="evenodd" d="M365.113 174.117C366.008 174.117 366.693 174.574 366.693 175.095C366.693 175.616 366.008 176.073 365.113 176.073C364.218 176.073 363.534 175.616 363.534 175.095C363.534 174.574 364.218 174.117 365.113 174.117Z" fill="#17CE8A"/>
<path fill-rule="evenodd" clip-rule="evenodd" d="M365.113 156.626C366.008 156.626 366.693 157.082 366.693 157.604C366.693 158.125 366.008 158.581 365.113 158.581C364.218 158.581 363.534 158.125 363.534 157.604C363.534 157.082 364.218 156.626 365.113 156.626Z" fill="#17CE8A"/>
<path fill-rule="evenodd" clip-rule="evenodd" d="M365.114 167.8C366.009 167.8 366.694 168.046 366.694 168.327C366.694 168.607 366.009 168.853 365.114 168.853C364.219 168.853 363.535 168.607 363.535 168.327C363.535 168.046 364.219 167.8 365.114 167.8Z" fill="#F3F3F3"/>
<path fill-rule="evenodd" clip-rule="evenodd" d="M343.005 75.6812V82.3363H339.847V75.6812H343.005Z" fill="#17CE8A"/>
<path fill-rule="evenodd" clip-rule="evenodd" d="M341.426 81.4712C342.321 81.4712 343.005 81.9274 343.005 82.4488C343.005 82.9701 342.321 83.4263 341.426 83.4263C340.531 83.4263 339.847 82.9701 339.847 82.4488C339.847 81.9274 340.531 81.4712 341.426 81.4712Z" fill="#17CE8A"/>
<path fill-rule="evenodd" clip-rule="evenodd" d="M341.426 75.1547C342.321 75.1547 343.005 75.4004 343.005 75.6811C343.005 75.9619 342.321 76.2075 341.426 76.2075C340.531 76.2075 339.847 75.9619 339.847 75.6811C339.847 75.4004 340.531 75.1547 341.426 75.1547Z" fill="#F3F3F3"/>
<path fill-rule="evenodd" clip-rule="evenodd" d="M343.005 245.181V251.836H339.847V245.181H343.005Z" fill="#17CE8A"/>
<path fill-rule="evenodd" clip-rule="evenodd" d="M341.426 250.972C342.321 250.972 343.005 251.428 343.005 251.949C343.005 252.471 342.321 252.927 341.426 252.927C340.531 252.927 339.847 252.471 339.847 251.949C339.847 251.428 340.531 250.972 341.426 250.972Z" fill="#17CE8A"/>
<path fill-rule="evenodd" clip-rule="evenodd" d="M366.694 134.638V157.842H363.535V134.638H366.694Z" fill="#17CE8A"/>
<path fill-rule="evenodd" clip-rule="evenodd" d="M365.114 134.111C366.009 134.111 366.694 134.357 366.694 134.638C366.694 134.918 366.009 135.164 365.114 135.164C364.219 135.164 363.535 134.918 363.535 134.638C363.535 134.357 364.219 134.111 365.114 134.111Z" fill="#F3F3F3"/>
<path fill-rule="evenodd" clip-rule="evenodd" d="M341.426 244.654C342.321 244.654 343.005 244.9 343.005 245.181C343.005 245.462 342.321 245.707 341.426 245.707C340.531 245.707 339.847 245.462 339.847 245.181C339.847 244.9 340.531 244.654 341.426 244.654Z" fill="#F3F3F3"/>
<path fill-rule="evenodd" clip-rule="evenodd" d="M366.694 253.077V259.732H363.535V253.077H366.694Z" fill="#17CE8A"/>
<path fill-rule="evenodd" clip-rule="evenodd" d="M365.114 258.867C366.009 258.867 366.694 259.323 366.694 259.845C366.694 260.366 366.009 260.822 365.114 260.822C364.219 260.822 363.535 260.366 363.535 259.845C363.535 259.323 364.219 258.867 365.114 258.867Z" fill="#17CE8A"/>
<path fill-rule="evenodd" clip-rule="evenodd" d="M365.114 252.551C366.009 252.551 366.694 252.796 366.694 253.077C366.694 253.358 366.009 253.603 365.114 253.603C364.219 253.603 363.535 253.358 363.535 253.077C363.535 252.796 364.219 252.551 365.114 252.551Z" fill="#F3F3F3"/>
<path fill-rule="evenodd" clip-rule="evenodd" d="M366.694 96.7375V103.393H363.535V96.7375H366.694Z" fill="#17CE8A"/>
<path fill-rule="evenodd" clip-rule="evenodd" d="M365.114 102.528C366.009 102.528 366.694 102.984 366.694 103.505C366.694 104.027 366.009 104.483 365.114 104.483C364.219 104.483 363.535 104.027 363.535 103.505C363.535 102.984 364.219 102.528 365.114 102.528Z" fill="#17CE8A"/>
<path fill-rule="evenodd" clip-rule="evenodd" d="M365.114 96.211C366.009 96.211 366.694 96.4566 366.694 96.7374C366.694 97.0181 366.009 97.2638 365.114 97.2638C364.219 97.2638 363.535 97.0181 363.535 96.7374C363.535 96.4566 364.219 96.211 365.114 96.211Z" fill="#F3F3F3"/>
<path fill-rule="evenodd" clip-rule="evenodd" d="M366.694 266.763V278.683C365.46 278.683 364.769 278.683 363.535 278.683V266.763H366.694Z" fill="#17CE8A"/>
<path fill-rule="evenodd" clip-rule="evenodd" d="M365.114 277.818C366.009 277.818 366.694 278.274 366.694 278.795C366.694 279.317 366.009 279.773 365.114 279.773C364.219 279.773 363.535 279.317 363.535 278.795C363.535 278.274 364.219 277.818 365.114 277.818Z" fill="#17CE8A"/>
<path fill-rule="evenodd" clip-rule="evenodd" d="M365.114 266.237C366.009 266.237 366.694 266.483 366.694 266.763C366.694 267.044 366.009 267.29 365.114 267.29C364.219 267.29 363.535 267.044 363.535 266.763C363.535 266.483 364.219 266.237 365.114 266.237Z" fill="#F3F3F3"/>
<path fill-rule="evenodd" clip-rule="evenodd" d="M358.796 89.8943V93.9174C357.563 93.9174 356.871 93.9174 355.638 93.9174V89.8943H358.796Z" fill="#17CE8A"/>
<path fill-rule="evenodd" clip-rule="evenodd" d="M357.217 93.0526C358.112 93.0526 358.796 93.5088 358.796 94.0302C358.796 94.5516 358.112 95.0078 357.217 95.0078C356.322 95.0078 355.638 94.5516 355.638 94.0302C355.638 93.5088 356.322 93.0526 357.217 93.0526Z" fill="#17CE8A"/>
<path fill-rule="evenodd" clip-rule="evenodd" d="M357.217 89.3677C358.112 89.3677 358.796 89.6134 358.796 89.8941C358.796 90.1749 358.112 90.4205 357.217 90.4205C356.322 90.4205 355.638 90.1749 355.638 89.8941C355.638 89.6134 356.322 89.3677 357.217 89.3677Z" fill="#F3F3F3"/>
<path fill-rule="evenodd" clip-rule="evenodd" d="M358.796 192.541V199.196H355.638V192.541H358.796Z" fill="#17CE8A"/>
<path fill-rule="evenodd" clip-rule="evenodd" d="M357.217 198.332C358.112 198.332 358.796 198.788 358.796 199.309C358.796 199.831 358.112 200.287 357.217 200.287C356.322 200.287 355.638 199.831 355.638 199.309C355.638 198.788 356.322 198.332 357.217 198.332Z" fill="#17CE8A"/>
<path fill-rule="evenodd" clip-rule="evenodd" d="M357.217 192.015C358.112 192.015 358.796 192.26 358.796 192.541C358.796 192.822 358.112 193.068 357.217 193.068C356.322 193.068 355.638 192.822 355.638 192.541C355.638 192.26 356.322 192.015 357.217 192.015Z" fill="#F3F3F3"/>
<path fill-rule="evenodd" clip-rule="evenodd" d="M357.217 106.475C358.112 106.475 358.796 106.721 358.796 107.002C358.796 107.282 358.112 107.528 357.217 107.528C356.322 107.528 355.638 107.282 355.638 107.002C355.638 106.721 356.322 106.475 357.217 106.475Z" fill="#F3F3F3"/>
<path fill-rule="evenodd" clip-rule="evenodd" d="M350.862 79.8924V143.06H347.704V79.8924H350.862Z" fill="#17CE8A"/>
<path fill-rule="evenodd" clip-rule="evenodd" d="M349.283 142.158C350.178 142.158 350.862 142.614 350.862 143.135C350.862 143.657 350.178 144.113 349.283 144.113C348.388 144.113 347.704 143.657 347.704 143.135C347.704 142.614 348.388 142.158 349.283 142.158Z" fill="#17CE8A"/>
<path fill-rule="evenodd" clip-rule="evenodd" d="M349.283 79.366C350.178 79.366 350.862 79.6116 350.862 79.8924C350.862 80.1731 350.178 80.4188 349.283 80.4188C348.388 80.4188 347.704 80.1731 347.704 79.8924C347.704 79.6116 348.388 79.366 349.283 79.366Z" fill="#F3F3F3"/>
<path fill-rule="evenodd" clip-rule="evenodd" d="M342.965 167.274V197.279H339.807V167.274H342.965Z" fill="#17CE8A"/>
<path fill-rule="evenodd" clip-rule="evenodd" d="M341.386 196.226C342.281 196.226 342.965 196.682 342.965 197.204C342.965 197.725 342.281 198.181 341.386 198.181C340.491 198.181 339.807 197.725 339.807 197.204C339.807 196.682 340.491 196.226 341.386 196.226Z" fill="#17CE8A"/>
<path fill-rule="evenodd" clip-rule="evenodd" d="M341.387 166.748C342.282 166.748 342.966 166.993 342.966 167.274C342.966 167.555 342.282 167.801 341.387 167.801C340.492 167.801 339.808 167.555 339.808 167.274C339.808 166.993 340.492 166.748 341.387 166.748Z" fill="#F3F3F3"/>
<path fill-rule="evenodd" clip-rule="evenodd" d="M350.862 154.64V172.538H347.704V154.64H350.862Z" fill="#17CE8A"/>
<path fill-rule="evenodd" clip-rule="evenodd" d="M349.283 171.485C350.178 171.485 350.862 171.941 350.862 172.463C350.862 172.984 350.178 173.44 349.283 173.44C348.388 173.44 347.704 172.984 347.704 172.463C347.704 171.941 348.388 171.485 349.283 171.485Z" fill="#17CE8A"/>
<path fill-rule="evenodd" clip-rule="evenodd" d="M349.283 154.114C350.178 154.114 350.862 154.36 350.862 154.64C350.862 154.921 350.178 155.167 349.283 155.167C348.388 155.167 347.704 154.921 347.704 154.64C347.704 154.36 348.388 154.114 349.283 154.114Z" fill="#F3F3F3"/>
<path fill-rule="evenodd" clip-rule="evenodd" d="M366.653 113.056V127.268H363.495V113.056H366.653Z" fill="#17CE8A"/>
<path fill-rule="evenodd" clip-rule="evenodd" d="M365.074 126.216C365.969 126.216 366.653 126.672 366.653 127.193C366.653 127.715 365.969 128.171 365.074 128.171C364.179 128.171 363.495 127.715 363.495 127.193C363.495 126.672 364.179 126.216 365.074 126.216Z" fill="#17CE8A"/>
<path fill-rule="evenodd" clip-rule="evenodd" d="M365.074 112.529C365.969 112.529 366.653 112.775 366.653 113.055C366.653 113.336 365.969 113.582 365.074 113.582C364.179 113.582 363.495 113.336 363.495 113.055C363.495 112.775 364.179 112.529 365.074 112.529Z" fill="#F3F3F3"/>
<path fill-rule="evenodd" clip-rule="evenodd" d="M366.653 183.066V199.647L363.495 201.49V183.066H366.653Z" fill="#17CE8A"/>
<path fill-rule="evenodd" clip-rule="evenodd" d="M365.074 182.54C365.969 182.54 366.653 182.785 366.653 183.066C366.653 183.347 365.969 183.593 365.074 183.593C364.179 183.593 363.495 183.347 363.495 183.066C363.495 182.785 364.179 182.54 365.074 182.54Z" fill="#F3F3F3"/>
<path fill-rule="evenodd" clip-rule="evenodd" d="M350.862 187.804V208.406L347.704 206.561V187.804H350.862Z" fill="#17CE8A"/>
<path fill-rule="evenodd" clip-rule="evenodd" d="M349.283 187.277C350.178 187.277 350.862 187.523 350.862 187.804C350.862 188.084 350.178 188.33 349.283 188.33C348.388 188.33 347.704 188.084 347.704 187.804C347.704 187.523 348.388 187.277 349.283 187.277Z" fill="#F3F3F3"/>
<path fill-rule="evenodd" clip-rule="evenodd" d="M342.965 96.2103V149.376H339.807V96.2103H342.965Z" fill="#17CE8A"/>
<path fill-rule="evenodd" clip-rule="evenodd" d="M341.386 148.936C342.281 148.936 342.965 149.162 342.965 149.419C342.965 149.677 342.281 149.903 341.386 149.903C340.491 149.903 339.807 149.677 339.807 149.419C339.807 149.162 340.491 148.936 341.386 148.936Z" fill="#17CE8A"/>
<path fill-rule="evenodd" clip-rule="evenodd" d="M341.386 95.684C342.281 95.684 342.965 95.9296 342.965 96.2104C342.965 96.4911 342.281 96.7368 341.386 96.7368C340.491 96.7368 339.807 96.4911 339.807 96.2104C339.807 95.9296 340.491 95.684 341.386 95.684Z" fill="#F3F3F3"/>
</g>
<g opacity="0.5">
<path fill-rule="evenodd" clip-rule="evenodd" d="M87.1857 250.337V289.291H84.0273V250.337H87.1857Z" fill="#3C8AFE"/>
<path fill-rule="evenodd" clip-rule="evenodd" d="M85.6065 288.125C86.5014 288.125 87.1857 288.581 87.1857 289.103C87.1857 289.624 86.5014 290.08 85.6065 290.08C84.7117 290.08 84.0273 289.624 84.0273 289.103C84.0273 288.581 84.7117 288.125 85.6065 288.125Z" fill="#3C8AFE"/>
<path fill-rule="evenodd" clip-rule="evenodd" d="M79.2902 250.864V280.868H76.1318V250.864H79.2902Z" fill="#3C8AFE"/>
<path fill-rule="evenodd" clip-rule="evenodd" d="M77.711 279.816C78.6059 279.816 79.2902 280.272 79.2902 280.793C79.2902 281.315 78.6059 281.771 77.711 281.771C76.8162 281.771 76.1318 281.315 76.1318 280.793C76.1318 280.272 76.8162 279.816 77.711 279.816Z" fill="#3C8AFE"/>
<path fill-rule="evenodd" clip-rule="evenodd" d="M77.711 250.337C78.6059 250.337 79.2902 250.583 79.2902 250.864C79.2902 251.144 78.6059 251.39 77.711 251.39C76.8162 251.39 76.1318 251.144 76.1318 250.864C76.1318 250.583 76.8162 250.337 77.711 250.337Z" fill="#06AFFF"/>
<path fill-rule="evenodd" clip-rule="evenodd" d="M95.0812 241.388V259.286H91.9229V241.388H95.0812Z" fill="#3C8AFE"/>
<path fill-rule="evenodd" clip-rule="evenodd" d="M93.502 258.233C94.3969 258.233 95.0812 258.689 95.0812 259.211C95.0812 259.732 94.3969 260.188 93.502 260.188C92.6072 260.188 91.9229 259.732 91.9229 259.211C91.9229 258.689 92.6072 258.233 93.502 258.233Z" fill="#3C8AFE"/>
<path fill-rule="evenodd" clip-rule="evenodd" d="M-6.94457 211.286L-6.94457 202.199C-6.94457 202.199 79.5395 163.377 80.1856 163.746L166.256 203.073V211.485C166.256 211.485 166.256 212.324 165.417 212.743L80.8779 261.496C80.2318 261.865 79.2165 261.865 78.5704 261.496L-6.43693 212.532C-7.08302 212.162 -6.94457 211.286 -6.94457 211.286Z" fill="#CBDAF8"/>
<path fill-rule="evenodd" clip-rule="evenodd" d="M-6.5379 201.604L78.6587 153.231C79.3048 152.861 80.3201 152.861 80.9661 153.231L165.825 202.443C166.471 202.812 166.471 203.412 165.825 203.781L81.7045 252.129C81.0584 252.498 80.0432 252.498 79.3971 252.129L-6.49175 202.943C-7.13784 202.573 -7.18399 201.974 -6.5379 201.604Z" fill="#E7F0FF"/>
<path fill-rule="evenodd" clip-rule="evenodd" d="M78.9666 181.495L44.7391 201.311C44.4841 201.465 44.4841 201.671 44.7391 201.826L50.9495 205.422C50.8116 205.265 50.8404 205.086 51.0359 204.989C51.0359 204.989 78.5336 189.126 78.7629 189.012C78.9922 188.898 79.3934 188.898 79.6227 189.012C79.852 189.126 108.241 205.067 108.241 205.067C108.462 205.177 108.47 205.392 108.266 205.56L114.367 202.031C114.622 201.877 114.622 201.62 114.367 201.465L79.9358 181.495C79.6297 181.341 79.2216 181.341 78.9666 181.495Z" fill="#DBDDDE"/>
<path fill-rule="evenodd" clip-rule="evenodd" d="M71.3937 271.919V295.124H68.2354V271.919H71.3937Z" fill="#3C8AFE"/>
<path fill-rule="evenodd" clip-rule="evenodd" d="M69.8145 294.641C70.7094 294.641 71.3937 294.866 71.3937 295.124C71.3937 295.382 70.7094 295.607 69.8145 295.607C68.9197 295.607 68.2354 295.382 68.2354 295.124C68.2354 294.866 68.9197 294.641 69.8145 294.641Z" fill="#BDBDBD"/>
<path fill-rule="evenodd" clip-rule="evenodd" d="M69.8145 271.393C70.7094 271.393 71.3937 271.639 71.3937 271.919C71.3937 272.2 70.7094 272.446 69.8145 272.446C68.9197 272.446 68.2354 272.2 68.2354 271.919C68.2354 271.639 68.9197 271.393 69.8145 271.393Z" fill="#F3F3F3"/>
<path fill-rule="evenodd" clip-rule="evenodd" d="M87.2248 120.581V199.277H84.0664V120.581H87.2248Z" fill="#3C8AFE"/>
<path fill-rule="evenodd" clip-rule="evenodd" d="M85.6065 198.374C86.5014 198.374 87.1857 198.831 87.1857 199.352C87.1857 199.873 86.5014 200.329 85.6065 200.329C84.7117 200.329 84.0273 199.873 84.0273 199.352C84.0273 198.831 84.7117 198.374 85.6065 198.374Z" fill="#3C8AFE"/>
<path fill-rule="evenodd" clip-rule="evenodd" d="M95.1203 181.906V188.561H91.9619V181.906H95.1203Z" fill="#3C8AFE"/>
<path fill-rule="evenodd" clip-rule="evenodd" d="M93.5411 187.696C94.436 187.696 95.1203 188.152 95.1203 188.674C95.1203 189.195 94.436 189.651 93.5411 189.651C92.6462 189.651 91.9619 189.195 91.9619 188.674C91.9619 188.152 92.6462 187.696 93.5411 187.696Z" fill="#3C8AFE"/>
<path fill-rule="evenodd" clip-rule="evenodd" d="M93.5411 170.205C94.436 170.205 95.1203 170.661 95.1203 171.183C95.1203 171.704 94.436 172.16 93.5411 172.16C92.6462 172.16 91.9619 171.704 91.9619 171.183C91.9619 170.661 92.6462 170.205 93.5411 170.205Z" fill="#3C8AFE"/>
<path fill-rule="evenodd" clip-rule="evenodd" d="M93.5421 181.379C94.437 181.379 95.1213 181.625 95.1213 181.905C95.1213 182.186 94.437 182.432 93.5421 182.432C92.6472 182.432 91.9629 182.186 91.9629 181.905C91.9629 181.625 92.6472 181.379 93.5421 181.379Z" fill="#F3F3F3"/>
<path fill-rule="evenodd" clip-rule="evenodd" d="M71.4328 89.2597V95.9149H68.2744V89.2597H71.4328Z" fill="#3C8AFE"/>
<path fill-rule="evenodd" clip-rule="evenodd" d="M69.8536 95.0499C70.7485 95.0499 71.4328 95.5061 71.4328 96.0275C71.4328 96.5489 70.7485 97.0051 69.8536 97.0051C68.9587 97.0051 68.2744 96.5489 68.2744 96.0275C68.2744 95.5061 68.9587 95.0499 69.8536 95.0499Z" fill="#3C8AFE"/>
<path fill-rule="evenodd" clip-rule="evenodd" d="M69.8536 88.7334C70.7485 88.7334 71.4328 88.979 71.4328 89.2598C71.4328 89.5405 70.7485 89.7862 69.8536 89.7862C68.9587 89.7862 68.2744 89.5405 68.2744 89.2598C68.2744 88.979 68.9587 88.7334 69.8536 88.7334Z" fill="#F3F3F3"/>
<path fill-rule="evenodd" clip-rule="evenodd" d="M71.4328 258.759V265.415H68.2744V258.759H71.4328Z" fill="#3C8AFE"/>
<path fill-rule="evenodd" clip-rule="evenodd" d="M69.8536 264.55C70.7485 264.55 71.4328 265.006 71.4328 265.528C71.4328 266.049 70.7485 266.505 69.8536 266.505C68.9587 266.505 68.2744 266.049 68.2744 265.528C68.2744 265.006 68.9587 264.55 69.8536 264.55Z" fill="#3C8AFE"/>
<path fill-rule="evenodd" clip-rule="evenodd" d="M95.1213 148.216V171.421H91.9629V148.216H95.1213Z" fill="#3C8AFE"/>
<path fill-rule="evenodd" clip-rule="evenodd" d="M93.5421 147.69C94.437 147.69 95.1213 147.935 95.1213 148.216C95.1213 148.497 94.437 148.743 93.5421 148.743C92.6472 148.743 91.9629 148.497 91.9629 148.216C91.9629 147.935 92.6472 147.69 93.5421 147.69Z" fill="#F3F3F3"/>
<path fill-rule="evenodd" clip-rule="evenodd" d="M69.8536 258.233C70.7485 258.233 71.4328 258.479 71.4328 258.759C71.4328 259.04 70.7485 259.286 69.8536 259.286C68.9587 259.286 68.2744 259.04 68.2744 258.759C68.2744 258.479 68.9587 258.233 69.8536 258.233Z" fill="#F3F3F3"/>
<path fill-rule="evenodd" clip-rule="evenodd" d="M95.1213 266.656V273.311H91.9629V266.656H95.1213Z" fill="#3C8AFE"/>
<path fill-rule="evenodd" clip-rule="evenodd" d="M93.5421 272.446C94.437 272.446 95.1213 272.902 95.1213 273.423C95.1213 273.945 94.437 274.401 93.5421 274.401C92.6472 274.401 91.9629 273.945 91.9629 273.423C91.9629 272.902 92.6472 272.446 93.5421 272.446Z" fill="#3C8AFE"/>
<path fill-rule="evenodd" clip-rule="evenodd" d="M93.5421 266.129C94.437 266.129 95.1213 266.375 95.1213 266.655C95.1213 266.936 94.437 267.182 93.5421 267.182C92.6472 267.182 91.9629 266.936 91.9629 266.655C91.9629 266.375 92.6472 266.129 93.5421 266.129Z" fill="#F3F3F3"/>
<path fill-rule="evenodd" clip-rule="evenodd" d="M95.1213 110.316V116.971H91.9629V110.316H95.1213Z" fill="#3C8AFE"/>
<path fill-rule="evenodd" clip-rule="evenodd" d="M93.5421 116.106C94.437 116.106 95.1213 116.562 95.1213 117.084C95.1213 117.605 94.437 118.061 93.5421 118.061C92.6472 118.061 91.9629 117.605 91.9629 117.084C91.9629 116.562 92.6472 116.106 93.5421 116.106Z" fill="#3C8AFE"/>
<path fill-rule="evenodd" clip-rule="evenodd" d="M93.5421 109.789C94.437 109.789 95.1213 110.035 95.1213 110.316C95.1213 110.597 94.437 110.842 93.5421 110.842C92.6472 110.842 91.9629 110.597 91.9629 110.316C91.9629 110.035 92.6472 109.789 93.5421 109.789Z" fill="#F3F3F3"/>
<path fill-rule="evenodd" clip-rule="evenodd" d="M95.1213 280.342V292.261C93.8878 292.261 93.1963 292.261 91.9629 292.261V280.342H95.1213Z" fill="#3C8AFE"/>
<path fill-rule="evenodd" clip-rule="evenodd" d="M93.5421 291.396C94.437 291.396 95.1213 291.853 95.1213 292.374C95.1213 292.895 94.437 293.352 93.5421 293.352C92.6472 293.352 91.9629 292.895 91.9629 292.374C91.9629 291.853 92.6472 291.396 93.5421 291.396Z" fill="#3C8AFE"/>
<path fill-rule="evenodd" clip-rule="evenodd" d="M93.5421 279.815C94.437 279.815 95.1213 280.061 95.1213 280.342C95.1213 280.622 94.437 280.868 93.5421 280.868C92.6472 280.868 91.9629 280.622 91.9629 280.342C91.9629 280.061 92.6472 279.815 93.5421 279.815Z" fill="#F3F3F3"/>
<path fill-rule="evenodd" clip-rule="evenodd" d="M87.2248 103.473V107.496C85.9914 107.496 85.2998 107.496 84.0664 107.496V103.473H87.2248Z" fill="#3C8AFE"/>
<path fill-rule="evenodd" clip-rule="evenodd" d="M85.6456 106.631C86.5405 106.631 87.2248 107.087 87.2248 107.609C87.2248 108.13 86.5405 108.586 85.6456 108.586C84.7507 108.586 84.0664 108.13 84.0664 107.609C84.0664 107.087 84.7507 106.631 85.6456 106.631Z" fill="#3C8AFE"/>
<path fill-rule="evenodd" clip-rule="evenodd" d="M85.6456 102.946C86.5405 102.946 87.2248 103.192 87.2248 103.473C87.2248 103.753 86.5405 103.999 85.6456 103.999C84.7507 103.999 84.0664 103.753 84.0664 103.473C84.0664 103.192 84.7507 102.946 85.6456 102.946Z" fill="#F3F3F3"/>
<path fill-rule="evenodd" clip-rule="evenodd" d="M87.2248 206.12V212.775H84.0664V206.12H87.2248Z" fill="#3C8AFE"/>
<path fill-rule="evenodd" clip-rule="evenodd" d="M85.6456 211.91C86.5405 211.91 87.2248 212.367 87.2248 212.888C87.2248 213.409 86.5405 213.866 85.6456 213.866C84.7507 213.866 84.0664 213.409 84.0664 212.888C84.0664 212.367 84.7507 211.91 85.6456 211.91Z" fill="#3C8AFE"/>
<path fill-rule="evenodd" clip-rule="evenodd" d="M85.6456 205.593C86.5405 205.593 87.2248 205.839 87.2248 206.12C87.2248 206.4 86.5405 206.646 85.6456 206.646C84.7507 206.646 84.0664 206.4 84.0664 206.12C84.0664 205.839 84.7507 205.593 85.6456 205.593Z" fill="#F3F3F3"/>
<path fill-rule="evenodd" clip-rule="evenodd" d="M85.6456 120.054C86.5405 120.054 87.2248 120.3 87.2248 120.58C87.2248 120.861 86.5405 121.107 85.6456 121.107C84.7507 121.107 84.0664 120.861 84.0664 120.58C84.0664 120.3 84.7507 120.054 85.6456 120.054Z" fill="#F3F3F3"/>
<path fill-rule="evenodd" clip-rule="evenodd" d="M79.2902 93.4715V156.639H76.1318V93.4715H79.2902Z" fill="#3C8AFE"/>
<path fill-rule="evenodd" clip-rule="evenodd" d="M77.711 155.737C78.6059 155.737 79.2902 156.193 79.2902 156.714C79.2902 157.236 78.6059 157.692 77.711 157.692C76.8162 157.692 76.1318 157.236 76.1318 156.714C76.1318 156.193 76.8162 155.737 77.711 155.737Z" fill="#3C8AFE"/>
<path fill-rule="evenodd" clip-rule="evenodd" d="M77.711 92.9448C78.6059 92.9448 79.2902 93.1904 79.2902 93.4712C79.2902 93.7519 78.6059 93.9976 77.711 93.9976C76.8162 93.9976 76.1318 93.7519 76.1318 93.4712C76.1318 93.1904 76.8162 92.9448 77.711 92.9448Z" fill="#F3F3F3"/>
<path fill-rule="evenodd" clip-rule="evenodd" d="M71.3928 180.853V210.858H68.2344V180.853H71.3928Z" fill="#3C8AFE"/>
<path fill-rule="evenodd" clip-rule="evenodd" d="M69.8136 209.805C70.7084 209.805 71.3928 210.261 71.3928 210.783C71.3928 211.304 70.7084 211.76 69.8136 211.76C68.9187 211.76 68.2344 211.304 68.2344 210.783C68.2344 210.261 68.9187 209.805 69.8136 209.805Z" fill="#3C8AFE"/>
<path fill-rule="evenodd" clip-rule="evenodd" d="M69.8145 180.327C70.7094 180.327 71.3937 180.572 71.3937 180.853C71.3937 181.134 70.7094 181.379 69.8145 181.379C68.9197 181.379 68.2354 181.134 68.2354 180.853C68.2354 180.572 68.9197 180.327 69.8145 180.327Z" fill="#F3F3F3"/>
<path fill-rule="evenodd" clip-rule="evenodd" d="M79.2902 168.22V186.117H76.1318V168.22H79.2902Z" fill="#3C8AFE"/>
<path fill-rule="evenodd" clip-rule="evenodd" d="M77.711 185.064C78.6059 185.064 79.2902 185.52 79.2902 186.042C79.2902 186.563 78.6059 187.019 77.711 187.019C76.8162 187.019 76.1318 186.563 76.1318 186.042C76.1318 185.52 76.8162 185.064 77.711 185.064Z" fill="#3C8AFE"/>
<path fill-rule="evenodd" clip-rule="evenodd" d="M77.711 167.693C78.6059 167.693 79.2902 167.939 79.2902 168.219C79.2902 168.5 78.6059 168.746 77.711 168.746C76.8162 168.746 76.1318 168.5 76.1318 168.219C76.1318 167.939 76.8162 167.693 77.711 167.693Z" fill="#F3F3F3"/>
<path fill-rule="evenodd" clip-rule="evenodd" d="M95.0822 126.634V140.847H91.9238V126.634H95.0822Z" fill="#3C8AFE"/>
<path fill-rule="evenodd" clip-rule="evenodd" d="M93.503 139.795C94.3979 139.795 95.0822 140.251 95.0822 140.772C95.0822 141.294 94.3979 141.75 93.503 141.75C92.6081 141.75 91.9238 141.294 91.9238 140.772C91.9238 140.251 92.6081 139.795 93.503 139.795Z" fill="#3C8AFE"/>
<path fill-rule="evenodd" clip-rule="evenodd" d="M93.502 126.108C94.3969 126.108 95.0812 126.354 95.0812 126.634C95.0812 126.915 94.3969 127.161 93.502 127.161C92.6072 127.161 91.9229 126.915 91.9229 126.634C91.9229 126.354 92.6072 126.108 93.502 126.108Z" fill="#F3F3F3"/>
<path fill-rule="evenodd" clip-rule="evenodd" d="M95.0812 196.645V213.226L91.9229 215.069V196.645H95.0812Z" fill="#3C8AFE"/>
<path fill-rule="evenodd" clip-rule="evenodd" d="M93.502 196.118C94.3969 196.118 95.0812 196.364 95.0812 196.645C95.0812 196.926 94.3969 197.171 93.502 197.171C92.6072 197.171 91.9229 196.926 91.9229 196.645C91.9229 196.364 92.6072 196.118 93.502 196.118Z" fill="#F3F3F3"/>
<path fill-rule="evenodd" clip-rule="evenodd" d="M79.2902 201.383V221.985L76.1318 220.14V201.383H79.2902Z" fill="#3C8AFE"/>
<path fill-rule="evenodd" clip-rule="evenodd" d="M77.711 200.856C78.6059 200.856 79.2902 201.102 79.2902 201.382C79.2902 201.663 78.6059 201.909 77.711 201.909C76.8162 201.909 76.1318 201.663 76.1318 201.382C76.1318 201.102 76.8162 200.856 77.711 200.856Z" fill="#F3F3F3"/>
<path fill-rule="evenodd" clip-rule="evenodd" d="M71.3937 109.79V162.956H68.2354V109.79H71.3937Z" fill="#3C8AFE"/>
<path fill-rule="evenodd" clip-rule="evenodd" d="M69.8145 162.515C70.7094 162.515 71.3937 162.741 71.3937 162.999C71.3937 163.256 70.7094 163.482 69.8145 163.482C68.9197 163.482 68.2354 163.256 68.2354 162.999C68.2354 162.741 68.9197 162.515 69.8145 162.515Z" fill="#3C8AFE"/>
<path fill-rule="evenodd" clip-rule="evenodd" d="M69.8145 109.263C70.7094 109.263 71.3937 109.509 71.3937 109.789C71.3937 110.07 70.7094 110.316 69.8145 110.316C68.9197 110.316 68.2354 110.07 68.2354 109.789C68.2354 109.509 68.9197 109.263 69.8145 109.263Z" fill="#F3F3F3"/>
</g>
<path fill-rule="evenodd" clip-rule="evenodd" d="M222.173 168.866V207.819H219.015V168.866H222.173Z" fill="#FFD215"/>
<path fill-rule="evenodd" clip-rule="evenodd" d="M220.594 206.653C221.489 206.653 222.173 207.11 222.173 207.631C222.173 208.152 221.489 208.609 220.594 208.609C219.699 208.609 219.015 208.152 219.015 207.631C219.015 207.11 219.699 206.653 220.594 206.653Z" fill="#FFD215"/>
<path fill-rule="evenodd" clip-rule="evenodd" d="M214.277 169.392V199.396H211.118V169.392H214.277Z" fill="#FFD215"/>
<path fill-rule="evenodd" clip-rule="evenodd" d="M212.697 198.344C213.592 198.344 214.277 198.8 214.277 199.322C214.277 199.843 213.592 200.299 212.697 200.299C211.802 200.299 211.118 199.843 211.118 199.322C211.118 198.8 211.802 198.344 212.697 198.344Z" fill="#FFD215"/>
<path fill-rule="evenodd" clip-rule="evenodd" d="M212.698 168.866C213.593 168.866 214.278 169.111 214.278 169.392C214.278 169.673 213.593 169.919 212.698 169.919C211.803 169.919 211.119 169.673 211.119 169.392C211.119 169.111 211.803 168.866 212.698 168.866Z" fill="#06AFFF"/>
<path fill-rule="evenodd" clip-rule="evenodd" d="M230.07 159.917V177.815H226.912V159.917H230.07Z" fill="#FFD215"/>
<path fill-rule="evenodd" clip-rule="evenodd" d="M228.491 176.762C229.386 176.762 230.07 177.218 230.07 177.739C230.07 178.261 229.386 178.717 228.491 178.717C227.596 178.717 226.912 178.261 226.912 177.739C226.912 177.218 227.596 176.762 228.491 176.762Z" fill="#FFD215"/>
<path fill-rule="evenodd" clip-rule="evenodd" d="M128.042 129.814L128.042 120.727C128.042 120.727 214.526 81.9057 215.172 82.2749L301.242 121.602V130.014C301.242 130.014 301.242 130.852 300.403 131.272L215.864 180.025C215.218 180.394 214.203 180.394 213.557 180.025L128.549 131.06C127.903 130.691 128.042 129.814 128.042 129.814Z" fill="#CBDAF8"/>
<path fill-rule="evenodd" clip-rule="evenodd" d="M128.449 120.133L213.646 71.7591C214.292 71.3899 215.307 71.3899 215.953 71.7591L300.812 120.972C301.458 121.341 301.458 121.941 300.812 122.31L216.692 170.657C216.046 171.027 215.03 171.027 214.384 170.657L128.496 121.471C127.849 121.102 127.803 120.502 128.449 120.133Z" fill="#E7F0FF"/>
<path fill-rule="evenodd" clip-rule="evenodd" d="M213.954 100.024L179.726 119.84C179.471 119.994 179.471 120.2 179.726 120.354L185.939 123.952C185.8 123.795 185.828 123.615 186.024 123.517C186.024 123.517 213.522 107.654 213.751 107.541C213.98 107.427 214.382 107.427 214.611 107.541C214.84 107.654 243.229 123.596 243.229 123.596C243.45 123.705 243.458 123.92 243.255 124.088L249.355 120.56C249.61 120.406 249.61 120.149 249.355 119.994L214.923 100.024C214.617 99.8695 214.209 99.8695 213.954 100.024Z" fill="#DBDDDE"/>
<path fill-rule="evenodd" clip-rule="evenodd" d="M206.381 190.448V213.653H203.223V190.448H206.381Z" fill="#FFD215"/>
<path fill-rule="evenodd" clip-rule="evenodd" d="M204.802 213.169C205.697 213.169 206.381 213.395 206.381 213.652C206.381 213.91 205.697 214.136 204.802 214.136C203.907 214.136 203.223 213.91 203.223 213.652C203.223 213.395 203.907 213.169 204.802 213.169Z" fill="#FFD215"/>
<path fill-rule="evenodd" clip-rule="evenodd" d="M204.802 189.922C205.697 189.922 206.381 190.167 206.381 190.448C206.381 190.729 205.697 190.974 204.802 190.974C203.907 190.974 203.223 190.729 203.223 190.448C203.223 190.167 203.907 189.922 204.802 189.922Z" fill="#F3F3F3"/>
<path fill-rule="evenodd" clip-rule="evenodd" d="M222.213 39.1091V117.805H219.055V39.1091H222.213Z" fill="#FFD215"/>
<path fill-rule="evenodd" clip-rule="evenodd" d="M220.594 116.903C221.489 116.903 222.173 117.359 222.173 117.88C222.173 118.402 221.489 118.858 220.594 118.858C219.699 118.858 219.015 118.402 219.015 117.88C219.015 117.359 219.699 116.903 220.594 116.903Z" fill="#FFD215"/>
<path fill-rule="evenodd" clip-rule="evenodd" d="M230.109 100.434V107.089H226.95V100.434H230.109Z" fill="#FFD215"/>
<path fill-rule="evenodd" clip-rule="evenodd" d="M228.529 106.225C229.424 106.225 230.109 106.681 230.109 107.202C230.109 107.724 229.424 108.18 228.529 108.18C227.635 108.18 226.95 107.724 226.95 107.202C226.95 106.681 227.635 106.225 228.529 106.225Z" fill="#FFD215"/>
<path fill-rule="evenodd" clip-rule="evenodd" d="M228.529 88.7335C229.424 88.7335 230.109 89.1897 230.109 89.7111C230.109 90.2325 229.424 90.6887 228.529 90.6887C227.635 90.6887 226.95 90.2325 226.95 89.7111C226.95 89.1897 227.635 88.7335 228.529 88.7335Z" fill="#FFD215"/>
<path fill-rule="evenodd" clip-rule="evenodd" d="M228.382 100.454C229.232 100.454 229.882 100.687 229.882 100.954C229.882 101.22 229.232 101.454 228.382 101.454C227.532 101.454 226.882 101.22 226.882 100.954C226.882 100.687 227.532 100.454 228.382 100.454Z" fill="#F3F3F3"/>
<path fill-rule="evenodd" clip-rule="evenodd" d="M205.382 13.4537C206.232 13.4537 206.882 13.9203 206.882 14.4537C206.882 14.987 206.232 15.4537 205.382 15.4537C204.532 15.4537 203.882 14.987 203.882 14.4537C203.882 13.9203 204.532 13.4537 205.382 13.4537Z" fill="#FFD215"/>
<path fill-rule="evenodd" clip-rule="evenodd" d="M206.419 177.288V183.943H203.261V177.288H206.419Z" fill="#FFD215"/>
<path fill-rule="evenodd" clip-rule="evenodd" d="M204.84 183.078C205.735 183.078 206.419 183.535 206.419 184.056C206.419 184.577 205.735 185.034 204.84 185.034C203.945 185.034 203.261 184.577 203.261 184.056C203.261 183.535 203.945 183.078 204.84 183.078Z" fill="#FFD215"/>
<path fill-rule="evenodd" clip-rule="evenodd" d="M230.108 66.7448V89.9492H226.949V66.7448H230.108Z" fill="#FFD215"/>
<path fill-rule="evenodd" clip-rule="evenodd" d="M228.528 66.2182C229.423 66.2182 230.108 66.4639 230.108 66.7446C230.108 67.0254 229.423 67.271 228.528 67.271C227.634 67.271 226.949 67.0254 226.949 66.7446C226.949 66.4639 227.634 66.2182 228.528 66.2182Z" fill="#F3F3F3"/>
<path fill-rule="evenodd" clip-rule="evenodd" d="M204.84 176.762C205.735 176.762 206.419 177.007 206.419 177.288C206.419 177.569 205.735 177.814 204.84 177.814C203.945 177.814 203.261 177.569 203.261 177.288C203.261 177.007 203.945 176.762 204.84 176.762Z" fill="#F3F3F3"/>
<path fill-rule="evenodd" clip-rule="evenodd" d="M230.108 185.184V191.839H226.949V185.184H230.108Z" fill="#FFD215"/>
<path fill-rule="evenodd" clip-rule="evenodd" d="M228.528 190.974C229.423 190.974 230.108 191.43 230.108 191.952C230.108 192.473 229.423 192.929 228.528 192.929C227.634 192.929 226.949 192.473 226.949 191.952C226.949 191.43 227.634 190.974 228.528 190.974Z" fill="#FFD215"/>
<path fill-rule="evenodd" clip-rule="evenodd" d="M228.528 184.658C229.423 184.658 230.108 184.903 230.108 185.184C230.108 185.465 229.423 185.711 228.528 185.711C227.634 185.711 226.949 185.465 226.949 185.184C226.949 184.903 227.634 184.658 228.528 184.658Z" fill="#F3F3F3"/>
<path fill-rule="evenodd" clip-rule="evenodd" d="M230.108 28.8444V35.4996H226.949V28.8444H230.108Z" fill="#FFD215"/>
<path fill-rule="evenodd" clip-rule="evenodd" d="M228.528 34.6349C229.423 34.6349 230.108 35.0911 230.108 35.6125C230.108 36.1339 229.423 36.5901 228.528 36.5901C227.634 36.5901 226.949 36.1339 226.949 35.6125C226.949 35.0911 227.634 34.6349 228.528 34.6349Z" fill="#FFD215"/>
<path fill-rule="evenodd" clip-rule="evenodd" d="M228.528 28.3181C229.423 28.3181 230.108 28.5637 230.108 28.8445C230.108 29.1252 229.423 29.3708 228.528 29.3708C227.634 29.3708 226.949 29.1252 226.949 28.8445C226.949 28.5637 227.634 28.3181 228.528 28.3181Z" fill="#F3F3F3"/>
<path fill-rule="evenodd" clip-rule="evenodd" d="M230.108 198.87V210.789C228.874 210.789 228.183 210.789 226.949 210.789V198.87H230.108Z" fill="#FFD215"/>
<path fill-rule="evenodd" clip-rule="evenodd" d="M228.528 209.925C229.423 209.925 230.108 210.381 230.108 210.902C230.108 211.424 229.423 211.88 228.528 211.88C227.634 211.88 226.949 211.424 226.949 210.902C226.949 210.381 227.634 209.925 228.528 209.925Z" fill="#FFD215"/>
<path fill-rule="evenodd" clip-rule="evenodd" d="M228.528 198.344C229.423 198.344 230.108 198.59 230.108 198.87C230.108 199.151 229.423 199.397 228.528 199.397C227.634 199.397 226.949 199.151 226.949 198.87C226.949 198.59 227.634 198.344 228.528 198.344Z" fill="#F3F3F3"/>
<path fill-rule="evenodd" clip-rule="evenodd" d="M222.212 22.0014V26.0245C220.979 26.0245 220.287 26.0245 219.054 26.0245V22.0014H222.212Z" fill="#FFD215"/>
<path fill-rule="evenodd" clip-rule="evenodd" d="M220.633 25.1597C221.528 25.1597 222.212 25.6159 222.212 26.1373C222.212 26.6587 221.528 27.1149 220.633 27.1149C219.738 27.1149 219.054 26.6587 219.054 26.1373C219.054 25.6159 219.738 25.1597 220.633 25.1597Z" fill="#FFD215"/>
<path fill-rule="evenodd" clip-rule="evenodd" d="M220.633 21.4748C221.528 21.4748 222.212 21.7205 222.212 22.0012C222.212 22.2819 221.528 22.5276 220.633 22.5276C219.738 22.5276 219.054 22.2819 219.054 22.0012C219.054 21.7205 219.738 21.4748 220.633 21.4748Z" fill="#F3F3F3"/>
<path fill-rule="evenodd" clip-rule="evenodd" d="M222.212 124.648V131.303H219.054V124.648H222.212Z" fill="#FFD215"/>
<path fill-rule="evenodd" clip-rule="evenodd" d="M220.633 130.439C221.528 130.439 222.212 130.895 222.212 131.417C222.212 131.938 221.528 132.394 220.633 132.394C219.738 132.394 219.054 131.938 219.054 131.417C219.054 130.895 219.738 130.439 220.633 130.439Z" fill="#FFD215"/>
<path fill-rule="evenodd" clip-rule="evenodd" d="M220.633 124.122C221.528 124.122 222.212 124.367 222.212 124.648C222.212 124.929 221.528 125.175 220.633 125.175C219.738 125.175 219.054 124.929 219.054 124.648C219.054 124.367 219.738 124.122 220.633 124.122Z" fill="#F3F3F3"/>
<path fill-rule="evenodd" clip-rule="evenodd" d="M214.277 12V75.1676H211.118V12H214.277Z" fill="#FFD215"/>
<path fill-rule="evenodd" clip-rule="evenodd" d="M212.697 74.2649C213.592 74.2649 214.277 74.7211 214.277 75.2425C214.277 75.7638 213.592 76.22 212.697 76.22C211.802 76.22 211.118 75.7638 211.118 75.2425C211.118 74.7211 211.802 74.2649 212.697 74.2649Z" fill="#FFD215"/>
<path fill-rule="evenodd" clip-rule="evenodd" d="M206.381 99.3819V129.386H203.223V99.3819H206.381Z" fill="#FFD215"/>
<path fill-rule="evenodd" clip-rule="evenodd" d="M204.802 128.333C205.697 128.333 206.381 128.79 206.381 129.311C206.381 129.832 205.697 130.289 204.802 130.289C203.907 130.289 203.223 129.832 203.223 129.311C203.223 128.79 203.907 128.333 204.802 128.333Z" fill="#FFD215"/>
<path fill-rule="evenodd" clip-rule="evenodd" d="M204.803 98.8553C205.698 98.8553 206.382 99.101 206.382 99.3817C206.382 99.6625 205.698 99.9081 204.803 99.9081C203.908 99.9081 203.224 99.6625 203.224 99.3817C203.224 99.101 203.908 98.8553 204.803 98.8553Z" fill="#F3F3F3"/>
<path fill-rule="evenodd" clip-rule="evenodd" d="M214.277 86.7482V104.646H211.118V86.7482H214.277Z" fill="#FFD215"/>
<path fill-rule="evenodd" clip-rule="evenodd" d="M212.697 103.593C213.592 103.593 214.277 104.049 214.277 104.57C214.277 105.092 213.592 105.548 212.697 105.548C211.802 105.548 211.118 105.092 211.118 104.57C211.118 104.049 211.802 103.593 212.697 103.593Z" fill="#FFD215"/>
<path fill-rule="evenodd" clip-rule="evenodd" d="M212.698 86.2215C213.593 86.2215 214.278 86.4672 214.278 86.7479C214.278 87.0287 213.593 87.2743 212.698 87.2743C211.803 87.2743 211.119 87.0287 211.119 86.7479C211.119 86.4672 211.803 86.2215 212.698 86.2215Z" fill="#F3F3F3"/>
<path fill-rule="evenodd" clip-rule="evenodd" d="M230.07 45.163V59.3757H226.912V45.163H230.07Z" fill="#FFD215"/>
<path fill-rule="evenodd" clip-rule="evenodd" d="M228.491 58.3232C229.386 58.3232 230.07 58.7794 230.07 59.3008C230.07 59.8221 229.386 60.2784 228.491 60.2784C227.596 60.2784 226.912 59.8221 226.912 59.3008C226.912 58.7794 227.596 58.3232 228.491 58.3232Z" fill="#FFD215"/>
<path fill-rule="evenodd" clip-rule="evenodd" d="M228.489 44.6363C229.384 44.6363 230.069 44.8819 230.069 45.1627C230.069 45.4434 229.384 45.6891 228.489 45.6891C227.594 45.6891 226.91 45.4434 226.91 45.1627C226.91 44.8819 227.594 44.6363 228.489 44.6363Z" fill="#F3F3F3"/>
<path fill-rule="evenodd" clip-rule="evenodd" d="M230.069 115.174V131.755L226.91 133.597V115.174H230.069Z" fill="#FFD215"/>
<path fill-rule="evenodd" clip-rule="evenodd" d="M228.489 114.647C229.384 114.647 230.069 114.893 230.069 115.173C230.069 115.454 229.384 115.7 228.489 115.7C227.594 115.7 226.91 115.454 226.91 115.173C226.91 114.893 227.594 114.647 228.489 114.647Z" fill="#F3F3F3"/>
<path fill-rule="evenodd" clip-rule="evenodd" d="M214.277 119.911V140.513L211.118 138.669V119.911H214.277Z" fill="#FFD215"/>
<path fill-rule="evenodd" clip-rule="evenodd" d="M212.698 119.384C213.593 119.384 214.278 119.63 214.278 119.911C214.278 120.192 213.593 120.437 212.698 120.437C211.803 120.437 211.119 120.192 211.119 119.911C211.119 119.63 211.803 119.384 212.698 119.384Z" fill="#F3F3F3"/>
<path fill-rule="evenodd" clip-rule="evenodd" d="M206.381 28.3181V81.4841H203.223V28.3181H206.381Z" fill="#FFD215"/>
<path fill-rule="evenodd" clip-rule="evenodd" d="M204.802 81.0434C205.697 81.0434 206.381 81.269 206.381 81.5268C206.381 81.7846 205.697 82.0102 204.802 82.0102C203.907 82.0102 203.223 81.7846 203.223 81.5268C203.223 81.269 203.907 81.0434 204.802 81.0434Z" fill="#FFD215"/>
<path fill-rule="evenodd" clip-rule="evenodd" d="M204.802 27.7914C205.697 27.7914 206.381 28.0371 206.381 28.3178C206.381 28.5986 205.697 28.8442 204.802 28.8442C203.907 28.8442 203.223 28.5986 203.223 28.3178C203.223 28.0371 203.907 27.7914 204.802 27.7914Z" fill="#F3F3F3"/>
<path fill-rule="evenodd" clip-rule="evenodd" d="M249.336 369.091V428.198H244.544V369.091H249.336Z" fill="#FFD215"/>
<path fill-rule="evenodd" clip-rule="evenodd" d="M246.94 426.429C248.298 426.429 249.336 427.121 249.336 427.913C249.336 428.704 248.298 429.396 246.94 429.396C245.582 429.396 244.544 428.704 244.544 427.913C244.544 427.121 245.582 426.429 246.94 426.429Z" fill="#FFD215"/>
<path fill-rule="evenodd" clip-rule="evenodd" d="M237.357 369.89V415.418H232.564V369.89H237.357Z" fill="#3C8AFE"/>
<path fill-rule="evenodd" clip-rule="evenodd" d="M234.961 413.821C236.319 413.821 237.357 414.513 237.357 415.304C237.357 416.095 236.319 416.787 234.961 416.787C233.603 416.787 232.564 416.095 232.564 415.304C232.564 414.513 233.603 413.821 234.961 413.821Z" fill="#3C8AFE"/>
<path fill-rule="evenodd" clip-rule="evenodd" d="M234.96 369.091C236.318 369.091 237.356 369.464 237.356 369.89C237.356 370.316 236.318 370.689 234.96 370.689C233.602 370.689 232.563 370.316 232.563 369.89C232.563 369.464 233.602 369.091 234.96 369.091Z" fill="#06AFFF"/>
<path fill-rule="evenodd" clip-rule="evenodd" d="M261.318 355.513V382.67H256.525V355.513H261.318Z" fill="#17CE8A"/>
<path fill-rule="evenodd" clip-rule="evenodd" d="M258.922 381.072C260.279 381.072 261.318 381.765 261.318 382.556C261.318 383.347 260.279 384.039 258.922 384.039C257.564 384.039 256.525 383.347 256.525 382.556C256.525 381.765 257.564 381.072 258.922 381.072Z" fill="#17CE8A"/>
<path fill-rule="evenodd" clip-rule="evenodd" d="M106.504 309.835L106.504 296.047C106.504 296.047 237.733 237.14 238.713 237.7L369.314 297.374V310.138C369.314 310.138 369.314 311.41 368.041 312.047L239.764 386.024C238.783 386.584 237.243 386.584 236.262 386.024L107.275 311.726C106.294 311.166 106.504 309.835 106.504 309.835Z" fill="#CBDAF8"/>
<path fill-rule="evenodd" clip-rule="evenodd" d="M107.122 295.146L236.397 221.745C237.378 221.184 238.918 221.184 239.898 221.745L368.661 296.418C369.641 296.979 369.641 297.889 368.661 298.449L241.019 371.81C240.039 372.371 238.498 372.371 237.518 371.81L107.192 297.176C106.212 296.616 106.142 295.706 107.122 295.146Z" fill="#E7F0FF"/>
<path fill-rule="evenodd" clip-rule="evenodd" d="M236.865 264.632L184.929 294.7C184.542 294.934 184.542 295.247 184.929 295.481L194.354 300.94C194.144 300.702 194.188 300.428 194.485 300.281C194.485 300.281 236.209 276.211 236.557 276.038C236.905 275.865 237.514 275.865 237.862 276.038C238.21 276.211 281.287 300.4 281.287 300.4C281.62 300.565 281.634 300.889 281.329 301.144L290.581 295.794C290.968 295.559 290.968 295.169 290.581 294.934L238.335 264.632C237.871 264.398 237.252 264.398 236.865 264.632Z" fill="#DBDDDE"/>
<path fill-rule="evenodd" clip-rule="evenodd" d="M225.882 401.454V437.454H220.882V401.454H225.882Z" fill="#F32626"/>
<path fill-rule="evenodd" clip-rule="evenodd" d="M223.382 400.454C224.799 400.454 225.882 400.92 225.882 401.454C225.882 401.987 224.799 402.454 223.382 402.454C221.965 402.454 220.882 401.987 220.882 401.454C220.882 400.92 221.965 400.454 223.382 400.454Z" fill="#F67C7C"/>
<path fill-rule="evenodd" clip-rule="evenodd" d="M249.395 172.202V291.614H244.603V172.202H249.395Z" fill="#FFD215"/>
<path fill-rule="evenodd" clip-rule="evenodd" d="M246.94 290.244C248.298 290.244 249.336 290.937 249.336 291.728C249.336 292.519 248.298 293.211 246.94 293.211C245.582 293.211 244.544 292.519 244.544 291.728C244.544 290.937 245.582 290.244 246.94 290.244Z" fill="#FFD215"/>
<path fill-rule="evenodd" clip-rule="evenodd" d="M261.376 265.255V275.354H256.584V265.255H261.376Z" fill="#FFD215"/>
<path fill-rule="evenodd" clip-rule="evenodd" d="M258.98 274.042C260.338 274.042 261.376 274.734 261.376 275.525C261.376 276.316 260.338 277.008 258.98 277.008C257.622 277.008 256.584 276.316 256.584 275.525C256.584 274.734 257.622 274.042 258.98 274.042Z" fill="#FFD215"/>
<path fill-rule="evenodd" clip-rule="evenodd" d="M258.979 264.456C260.337 264.456 261.375 264.829 261.375 265.255C261.375 265.681 260.337 266.054 258.979 266.054C257.621 266.054 256.583 265.681 256.583 265.255C256.583 264.829 257.621 264.456 258.979 264.456Z" fill="#FFEE50"/>
<path fill-rule="evenodd" clip-rule="evenodd" d="M225.433 124.677V134.775H220.641V124.677H225.433Z" fill="#FFD215"/>
<path fill-rule="evenodd" clip-rule="evenodd" d="M223.037 133.463C224.395 133.463 225.433 134.155 225.433 134.946C225.433 135.737 224.395 136.43 223.037 136.43C221.679 136.43 220.641 135.737 220.641 134.946C220.641 134.155 221.679 133.463 223.037 133.463Z" fill="#FFD215"/>
<path fill-rule="evenodd" clip-rule="evenodd" d="M223.037 123.878C224.395 123.878 225.433 124.251 225.433 124.677C225.433 125.103 224.395 125.476 223.037 125.476C221.679 125.476 220.641 125.103 220.641 124.677C220.641 124.251 221.679 123.878 223.037 123.878Z" fill="#FFEE50"/>
<path fill-rule="evenodd" clip-rule="evenodd" d="M225.432 391.969V381.871H220.64V391.969H220.656C220.645 392.026 220.64 392.083 220.64 392.14C220.64 392.932 221.678 393.624 223.036 393.624C224.394 393.624 225.432 392.932 225.432 392.14C225.432 392.083 225.427 392.026 225.416 391.969H225.432Z" fill="#17CE8A"/>
<path fill-rule="evenodd" clip-rule="evenodd" d="M261.375 214.136V249.345H256.583V214.136H261.375Z" fill="#F32626"/>
<path fill-rule="evenodd" clip-rule="evenodd" d="M258.979 213.337C260.337 213.337 261.375 213.71 261.375 214.136C261.375 214.562 260.337 214.934 258.979 214.934C257.621 214.934 256.583 214.562 256.583 214.136C256.583 213.71 257.621 213.337 258.979 213.337Z" fill="#F67C7C"/>
<path fill-rule="evenodd" clip-rule="evenodd" d="M223.037 381.072C224.395 381.072 225.433 381.445 225.433 381.871C225.433 382.297 224.395 382.67 223.037 382.67C221.679 382.67 220.641 382.297 220.641 381.871C220.641 381.445 221.679 381.072 223.037 381.072Z" fill="#42E7AA"/>
<path fill-rule="evenodd" clip-rule="evenodd" d="M261.375 393.852V403.951H256.583V393.852H261.375Z" fill="#2F80ED"/>
<path fill-rule="evenodd" clip-rule="evenodd" d="M258.979 402.638C260.337 402.638 261.375 403.331 261.375 404.122C261.375 404.913 260.337 405.605 258.979 405.605C257.621 405.605 256.583 404.913 256.583 404.122C256.583 403.331 257.621 402.638 258.979 402.638Z" fill="#2F80ED"/>
<path fill-rule="evenodd" clip-rule="evenodd" d="M258.979 393.053C260.337 393.053 261.375 393.426 261.375 393.852C261.375 394.278 260.337 394.651 258.979 394.651C257.621 394.651 256.583 394.278 256.583 393.852C256.583 393.426 257.621 393.053 258.979 393.053Z" fill="#47D2FF"/>
<path fill-rule="evenodd" clip-rule="evenodd" d="M261.375 156.626V166.725H256.583V156.626H261.375Z" fill="#2F80ED"/>
<path fill-rule="evenodd" clip-rule="evenodd" d="M258.979 165.412C260.337 165.412 261.375 166.105 261.375 166.896C261.375 167.687 260.337 168.379 258.979 168.379C257.621 168.379 256.583 167.687 256.583 166.896C256.583 166.105 257.621 165.412 258.979 165.412Z" fill="#2F80ED"/>
<path fill-rule="evenodd" clip-rule="evenodd" d="M258.979 155.828C260.337 155.828 261.375 156.2 261.375 156.626C261.375 157.052 260.337 157.425 258.979 157.425C257.621 157.425 256.583 157.052 256.583 156.626C256.583 156.2 257.621 155.828 258.979 155.828Z" fill="#47D2FF"/>
<path fill-rule="evenodd" clip-rule="evenodd" d="M261.375 414.62V432.705C259.504 432.705 258.455 432.705 256.583 432.705V414.62H261.375Z" fill="#FF5256"/>
<path fill-rule="evenodd" clip-rule="evenodd" d="M258.979 431.393C260.337 431.393 261.375 432.085 261.375 432.876C261.375 433.668 260.337 434.36 258.979 434.36C257.621 434.36 256.583 433.668 256.583 432.876C256.583 432.085 257.621 431.393 258.979 431.393Z" fill="#FF5256"/>
<path fill-rule="evenodd" clip-rule="evenodd" d="M258.979 413.821C260.337 413.821 261.375 414.193 261.375 414.619C261.375 415.045 260.337 415.418 258.979 415.418C257.621 415.418 256.583 415.045 256.583 414.619C256.583 414.193 257.621 413.821 258.979 413.821Z" fill="#F67C7C"/>
<path fill-rule="evenodd" clip-rule="evenodd" d="M249.395 146.242V152.347C247.523 152.347 246.474 152.347 244.603 152.347V146.242H249.395Z" fill="#FF5256"/>
<path fill-rule="evenodd" clip-rule="evenodd" d="M246.999 151.035C248.357 151.035 249.395 151.727 249.395 152.518C249.395 153.309 248.357 154.002 246.999 154.002C245.641 154.002 244.603 153.309 244.603 152.518C244.603 151.727 245.641 151.035 246.999 151.035Z" fill="#FF5256"/>
<path fill-rule="evenodd" clip-rule="evenodd" d="M246.999 145.444C248.357 145.444 249.395 145.817 249.395 146.243C249.395 146.669 248.357 147.041 246.999 147.041C245.641 147.041 244.603 146.669 244.603 146.243C244.603 145.817 245.641 145.444 246.999 145.444Z" fill="#F67C7C"/>
<path fill-rule="evenodd" clip-rule="evenodd" d="M249.395 301.997V312.095H244.603V301.997H249.395Z" fill="#2F80ED"/>
<path fill-rule="evenodd" clip-rule="evenodd" d="M246.999 310.783C248.357 310.783 249.395 311.475 249.395 312.267C249.395 313.058 248.357 313.75 246.999 313.75C245.641 313.75 244.603 313.058 244.603 312.267C244.603 311.475 245.641 310.783 246.999 310.783Z" fill="#2F80ED"/>
<path fill-rule="evenodd" clip-rule="evenodd" d="M246.999 301.198C248.357 301.198 249.395 301.571 249.395 301.997C249.395 302.423 248.357 302.796 246.999 302.796C245.641 302.796 244.603 302.423 244.603 301.997C244.603 301.571 245.641 301.198 246.999 301.198Z" fill="#47D2FF"/>
<path fill-rule="evenodd" clip-rule="evenodd" d="M246.382 171.454C247.799 171.454 248.882 171.92 248.882 172.454C248.882 172.987 247.799 173.454 246.382 173.454C244.965 173.454 243.882 172.987 243.882 172.454C243.882 171.92 244.965 171.454 246.382 171.454Z" fill="#FFEE50"/>
<path fill-rule="evenodd" clip-rule="evenodd" d="M237.357 131.067V226.915H232.564V131.067H237.357Z" fill="#3C8AFE"/>
<path fill-rule="evenodd" clip-rule="evenodd" d="M234.961 225.546C236.319 225.546 237.357 226.238 237.357 227.029C237.357 227.821 236.319 228.513 234.961 228.513C233.603 228.513 232.564 227.821 232.564 227.029C232.564 226.238 233.603 225.546 234.961 225.546Z" fill="#3C8AFE"/>
<path fill-rule="evenodd" clip-rule="evenodd" d="M234.96 130.268C236.318 130.268 237.356 130.641 237.356 131.067C237.356 131.493 236.318 131.865 234.96 131.865C233.602 131.865 232.563 131.493 232.563 131.067C232.563 130.641 233.602 130.268 234.96 130.268Z" fill="#06AFFF"/>
<path fill-rule="evenodd" clip-rule="evenodd" d="M225.373 263.657V309.185H220.581V263.657H225.373Z" fill="#3C8AFE"/>
<path fill-rule="evenodd" clip-rule="evenodd" d="M222.977 307.588C224.335 307.588 225.373 308.28 225.373 309.072C225.373 309.863 224.335 310.555 222.977 310.555C221.619 310.555 220.581 309.863 220.581 309.072C220.581 308.28 221.619 307.588 222.977 307.588Z" fill="#3C8AFE"/>
<path fill-rule="evenodd" clip-rule="evenodd" d="M222.978 262.859C224.336 262.859 225.374 263.231 225.374 263.657C225.374 264.083 224.336 264.456 222.978 264.456C221.62 264.456 220.582 264.083 220.582 263.657C220.582 263.231 221.62 262.859 222.978 262.859Z" fill="#06AFFF"/>
<path fill-rule="evenodd" clip-rule="evenodd" d="M237.357 244.488V271.645H232.564V244.488H237.357Z" fill="#17CE8A"/>
<path fill-rule="evenodd" clip-rule="evenodd" d="M234.961 270.048C236.319 270.048 237.357 270.74 237.357 271.531C237.357 272.322 236.319 273.015 234.961 273.015C233.603 273.015 232.564 272.322 232.564 271.531C232.564 270.74 233.603 270.048 234.961 270.048Z" fill="#17CE8A"/>
<path fill-rule="evenodd" clip-rule="evenodd" d="M234.96 243.689C236.318 243.689 237.356 244.062 237.356 244.488C237.356 244.914 236.318 245.287 234.96 245.287C233.602 245.287 232.563 244.914 232.563 244.488C232.563 244.062 233.602 243.689 234.96 243.689Z" fill="#42E7AA"/>
<path fill-rule="evenodd" clip-rule="evenodd" d="M261.318 181.387V202.953H256.525V181.387H261.318Z" fill="#17CE8A"/>
<path fill-rule="evenodd" clip-rule="evenodd" d="M258.922 201.356C260.279 201.356 261.318 202.048 261.318 202.839C261.318 203.63 260.279 204.323 258.922 204.323C257.564 204.323 256.525 203.63 256.525 202.839C256.525 202.048 257.564 201.356 258.922 201.356Z" fill="#17CE8A"/>
<path fill-rule="evenodd" clip-rule="evenodd" d="M258.922 180.589C260.279 180.589 261.318 180.961 261.318 181.387C261.318 181.813 260.279 182.186 258.922 182.186C257.564 182.186 256.525 181.813 256.525 181.387C256.525 180.961 257.564 180.589 258.922 180.589Z" fill="#42E7AA"/>
<path fill-rule="evenodd" clip-rule="evenodd" d="M261.318 287.619V312.78L256.525 315.575V287.619H261.318Z" fill="#17CE8A"/>
<path fill-rule="evenodd" clip-rule="evenodd" d="M258.922 286.821C260.279 286.821 261.318 287.194 261.318 287.62C261.318 288.046 260.279 288.418 258.922 288.418C257.564 288.418 256.525 288.046 256.525 287.62C256.525 287.194 257.564 286.821 258.922 286.821Z" fill="#42E7AA"/>
<path fill-rule="evenodd" clip-rule="evenodd" d="M237.357 294.809V326.07L232.564 323.271V294.809H237.357Z" fill="#F32626"/>
<path fill-rule="evenodd" clip-rule="evenodd" d="M234.96 294.01C236.318 294.01 237.356 294.382 237.356 294.808C237.356 295.234 236.318 295.607 234.96 295.607C233.602 295.607 232.563 295.234 232.563 294.808C232.563 294.382 233.602 294.01 234.96 294.01Z" fill="#F67C7C"/>
<path fill-rule="evenodd" clip-rule="evenodd" d="M225.373 155.828V236.5H220.581V155.828H225.373Z" fill="#F32626"/>
<path fill-rule="evenodd" clip-rule="evenodd" d="M222.977 235.832C224.335 235.832 225.373 236.174 225.373 236.565C225.373 236.957 224.335 237.299 222.977 237.299C221.619 237.299 220.581 236.957 220.581 236.565C220.581 236.174 221.619 235.832 222.977 235.832Z" fill="#F32626"/>
<path fill-rule="evenodd" clip-rule="evenodd" d="M222.977 155.029C224.335 155.029 225.373 155.402 225.373 155.828C225.373 156.254 224.335 156.626 222.977 156.626C221.619 156.626 220.581 156.254 220.581 155.828C220.581 155.402 221.619 155.029 222.977 155.029Z" fill="#F67C7C"/>
</g>
<defs>
<clipPath id="clip0_162_3198">
<rect width="449" height="449" fill="white"/>
</clipPath>
</defs>
</svg>
