<svg width="68" height="81" viewBox="0 0 68 81" fill="none" xmlns="http://www.w3.org/2000/svg">
<path d="M56.2993 40.5855L52.5556 30.1408C51.9581 28.4738 51.6594 27.6403 51.2078 27.0377C50.2158 25.714 48.6333 24.9666 46.9808 25.0413C46.2285 25.0753 45.395 25.3741 43.728 25.9716C42.0609 26.5691 41.2274 26.8678 40.6248 27.3194C39.3011 28.3114 38.5537 29.8939 38.6284 31.5464C38.6624 32.2987 38.9612 33.1322 39.5587 34.7993L43.3023 45.2439C43.6545 46.2265 43.8306 46.7179 44.1249 46.9018C44.3809 47.0618 44.6955 47.0976 44.9809 46.9992C45.3089 46.8861 45.5909 46.4469 46.1549 45.5685L47.1094 44.0817C47.8237 42.9692 48.1809 42.4129 48.6723 42.072C49.1059 41.7712 49.6111 41.5901 50.1371 41.547C50.7331 41.4981 51.3623 41.7009 52.6207 42.1063L54.3024 42.6482C55.2959 42.9683 55.7927 43.1284 56.1179 43.0074C56.4009 42.9021 56.6211 42.6746 56.7172 42.3884C56.8276 42.0594 56.6515 41.5681 56.2993 40.5855Z" stroke="#3C8AFE" stroke-linecap="round" stroke-linejoin="round"/>
<path d="M29.0683 46.1172L34.566 36.4798C35.4435 34.9416 35.8822 34.1725 36.0462 33.4376C36.4063 31.823 35.9445 30.1349 34.8129 28.9284C34.2977 28.3792 33.5286 27.9405 31.9904 27.063C30.4522 26.1855 29.6831 25.7468 28.9481 25.5829C27.3336 25.2228 25.6455 25.6845 24.439 26.8162C23.8898 27.3313 23.451 28.1004 22.5735 29.6386L17.0758 39.276C16.5586 40.1827 16.2999 40.6361 16.3517 40.9792C16.3966 41.2777 16.5741 41.54 16.8345 41.6927C17.1338 41.8683 17.6508 41.7968 18.6848 41.6538L20.435 41.4117C21.7446 41.2305 22.3994 41.1399 22.9779 41.2914C23.4885 41.425 23.9547 41.691 24.3296 42.0624C24.7544 42.4833 25.0097 43.0931 25.5203 44.3126L26.2026 45.9424C26.6058 46.9052 26.8073 47.3867 27.1108 47.5549C27.3748 47.7013 27.6909 47.7206 27.9707 47.6074C28.2924 47.4773 28.551 47.0239 29.0683 46.1172Z" stroke="#3C8AFE" stroke-linecap="round" stroke-linejoin="round"/>
<path d="M55.3995 15.251C55.1256 15.1507 54.8753 14.9925 54.6648 14.7867C54.4542 14.5809 54.2882 14.3321 54.1775 14.0564C54.0667 13.7807 54.0136 13.4843 54.0217 13.1863C54.0298 12.8882 54.0989 12.5953 54.2244 12.3263C54.7062 11.2873 54.8624 10.1209 54.6716 8.98729C54.4807 7.85366 53.9522 6.80834 53.1586 5.99481C52.3649 5.18127 51.3451 4.6394 50.2389 4.44357C49.1328 4.24773 47.9947 4.40753 46.9807 4.90104C46.7182 5.02943 46.4324 5.09998 46.1417 5.10813C45.8509 5.11628 45.5618 5.06186 45.2928 4.94837C45.0239 4.83489 44.7812 4.66486 44.5803 4.44927C44.3795 4.23368 44.225 3.97732 44.1269 3.69675C43.7495 2.61475 43.0549 1.67877 42.1383 1.01699C41.2217 0.355213 40.128 0 39.0067 0C37.8855 0 36.7917 0.355213 35.8752 1.01699C34.9586 1.67877 34.264 2.61475 33.8866 3.69675C33.7887 3.97749 33.6343 4.23403 33.4335 4.44977C33.2327 4.66551 32.99 4.83564 32.721 4.94916C32.452 5.06267 32.1627 5.11705 31.8719 5.10876C31.5811 5.10047 31.2952 5.0297 31.0328 4.90104C30.0183 4.40362 28.8782 4.24082 27.7697 4.43507C26.6612 4.62932 25.6387 5.17106 24.8431 5.98566C24.0475 6.80026 23.5179 7.84764 23.3273 8.98352C23.1368 10.1194 23.2946 11.2879 23.779 12.3281C23.9048 12.597 23.9741 12.89 23.9823 13.1881C23.9905 13.4862 23.9375 13.7827 23.8267 14.0585C23.7159 14.3342 23.5498 14.5831 23.3391 14.7888C23.1285 14.9945 22.878 15.1526 22.6039 15.2527C21.5489 15.6403 20.6364 16.3524 19.9913 17.2916C19.3462 18.2309 19 19.3514 19 20.5C19 21.6486 19.3462 22.7691 19.9913 23.7084C20.6364 24.6476 21.5489 25.3597 22.6039 25.7473C22.8786 25.8467 23.1298 26.0043 23.3412 26.2097C23.5526 26.4151 23.7195 26.6637 23.8311 26.9395C23.9427 27.2153 23.9965 27.512 23.989 27.8105C23.9814 28.109 23.9128 28.4025 23.7874 28.672C23.3053 29.7103 23.1486 30.8762 23.3388 32.0094C23.529 33.1427 24.0567 34.1879 24.8496 35.0016C25.6424 35.8153 26.6616 36.3576 27.7671 36.554C28.8727 36.7505 30.0105 36.5916 31.0244 36.099C31.2868 35.9703 31.5727 35.8995 31.8635 35.8912C32.1543 35.883 32.4436 35.9373 32.7126 36.0508C32.9816 36.1644 33.2243 36.3345 33.4251 36.5502C33.6259 36.766 33.7803 37.0225 33.8782 37.3033C34.2556 38.3853 34.9502 39.3212 35.8668 39.983C36.7833 40.6448 37.8771 41 38.9983 41C40.1196 41 41.2134 40.6448 42.1299 39.983C43.0465 39.3212 43.7411 38.3853 44.1185 37.3033C44.2164 37.0225 44.3708 36.766 44.5716 36.5502C44.7724 36.3345 45.0151 36.1644 45.2841 36.0508C45.5531 35.9373 45.8424 35.883 46.1332 35.8912C46.424 35.8995 46.7099 35.9703 46.9723 36.099C47.9862 36.5927 49.1243 36.7528 50.2305 36.5572C51.3366 36.3616 52.3566 35.82 53.1504 35.0067C53.9443 34.1933 54.473 33.1481 54.6641 32.0145C54.8552 30.881 54.6993 29.7145 54.2177 28.6754C54.0924 28.4064 54.0236 28.1135 54.0156 27.8155C54.0077 27.5176 54.0608 27.2212 54.1715 26.9456C54.2823 26.67 54.4482 26.4213 54.6585 26.2154C54.8689 26.0096 55.119 25.8513 55.3928 25.7507C56.4486 25.3639 57.3619 24.6521 58.0077 23.7128C58.6534 22.7734 59 21.6525 59 20.5034C59 19.3544 58.6534 18.2334 58.0077 17.2941C57.3619 16.3548 56.4486 15.643 55.3928 15.2562L55.3995 15.251Z" fill="#3C8AFE"/>
<path d="M49 20C49 26.1588 44.4427 31 39 31C33.5573 31 29 26.1588 29 20C29 13.8412 33.5573 9 39 9C44.4427 9 49 13.8412 49 20Z" stroke="white" stroke-width="2"/>
<path d="M34 20.7857L38.8 24L46 19" stroke="white" stroke-linecap="round"/>
<path d="M41.5215 60.6626C41.9215 58.2626 40.6882 56.9959 40.0215 56.6626L21.5215 50.6626C18.7215 49.4626 16.0215 50.1626 15.0215 50.6626L7.02148 56.1626L12.5215 76.1626C14.5215 74.9959 19.9215 73.0626 25.5215 74.6626C31.1215 76.2626 34.5215 76.3293 35.5215 76.1626L63.5215 60.1626C71.0215 54.6626 63.5215 48.6626 60.0215 50.6626L41.5215 60.6626ZM41.5215 60.6626C41.3548 62.9417 39.6215 67.2 34.0215 66C28.4215 64.8 25.0215 63.5 24.0215 63" stroke="#3C8AFE" stroke-width="2"/>
<rect x="1.22643" y="54.9244" width="5.10877" height="25.6747" transform="rotate(-15.1371 1.22643 54.9244)" fill="white" stroke="#3C8AFE" stroke-width="2"/>
</svg>
