<svg width="86" height="62" viewBox="0 0 86 62" fill="none" xmlns="http://www.w3.org/2000/svg">
<path fill-rule="evenodd" clip-rule="evenodd" d="M85.6129 61.5H0.387054C0.134384 60.4498 0 59.3488 0 58.2143C0 50.9557 5.5005 45.0714 12.2857 45.0714C13.7122 45.0714 15.0819 45.3315 16.3556 45.8097C17.4644 39.7703 22.4402 35.2143 28.4107 35.2143C29.4634 35.2143 30.4852 35.3559 31.4603 35.6224C33.1832 30.5907 37.6996 27 43 27C46.6694 27 49.9631 28.7209 52.2143 31.4494C54.4655 28.7209 57.7592 27 61.4286 27C68.2138 27 73.7143 32.8843 73.7143 40.1429C73.7143 41.8992 73.3922 43.5751 72.8079 45.1067C73.1071 45.0833 73.4094 45.0714 73.7143 45.0714C80.4995 45.0714 86 50.9557 86 58.2143C86 59.3488 85.8656 60.4498 85.6129 61.5Z" fill="#6D9EFC"/>
<path fill-rule="evenodd" clip-rule="evenodd" d="M1.50038 61.5C2.65217 57.119 10.4432 49.5143 21.5004 50.5C21.9108 49.8433 22.2835 49.1012 22.6769 48.3179C24.6796 44.3298 27.2182 39.2746 38.0004 39L49.9612 29.3119C47.9825 27.8537 45.5845 27 43 27C37.6996 27 33.1832 30.5907 31.4603 35.6224C30.4852 35.3559 29.4634 35.2143 28.4107 35.2143C22.4402 35.2143 17.4644 39.7703 16.3556 45.8097C15.0819 45.3315 13.7122 45.0714 12.2857 45.0714C5.5005 45.0714 0 50.9557 0 58.2143C0 59.3488 0.134384 60.4498 0.387054 61.5H1.50038Z" fill="#4A88FE"/>
<ellipse cx="14.7122" cy="13.4139" rx="14.7122" ry="13.4139" transform="matrix(0.997501 -0.0706574 0.0850925 0.996373 31 10.0791)" fill="#FFD215"/>
<path d="M59.7835 24.7319C56.7517 31.4379 54.2925 45.5219 47.3055 46.0168C40.3184 46.5118 38.5733 33.1892 34.4811 26.5242C33.9376 20.1609 39.1612 14.6012 46.1483 14.1063C53.1354 13.6113 59.2401 18.3686 59.7835 24.7319Z" fill="#FFD215"/>
<ellipse cx="14.7122" cy="13.4139" rx="14.7122" ry="13.4139" transform="matrix(0.997501 -0.0706574 0.0850925 0.996373 31 10.0791)" fill="#FFD628"/>
<path d="M59.7835 24.7319C56.7517 31.4379 54.2925 45.5219 47.3055 46.0168C40.3184 46.5118 38.5733 33.1892 34.4811 26.5242C33.9376 20.1609 39.1612 14.6012 46.1483 14.1063C53.1354 13.6113 59.2401 18.3686 59.7835 24.7319Z" fill="#FFD215"/>
<path fill-rule="evenodd" clip-rule="evenodd" d="M47.53 9.01345C39.1066 9.68842 30.3078 21.7528 41.1585 31.6347L42.6812 41.8046L41.3533 41.986C40.0409 39.8119 38.9728 37.011 37.9107 34.2261C37.7071 33.6922 37.5037 33.1589 37.2989 32.6307C34.4081 30.3988 32.4588 27.1572 32.1417 23.4443C31.5113 16.0629 37.5707 9.61363 45.6757 9.03952C46.3008 8.99525 46.9197 8.9872 47.53 9.01345Z" fill="#F0C614"/>
<ellipse cx="46.7419" cy="21.9272" rx="9.13641" ry="8.32076" fill="#D9B109"/>
<ellipse cx="46.7418" cy="21.9272" rx="7.10609" ry="6.4717" fill="#FFDF58"/>
<path fill-rule="evenodd" clip-rule="evenodd" d="M47.7569 25.5087C49.508 25.098 50.8019 23.6502 50.8019 21.9272C50.8019 19.8848 48.9839 18.2291 46.7413 18.2291C44.4987 18.2291 42.6807 19.8848 42.6807 21.9272C42.6807 23.6505 43.975 25.0985 45.7266 25.5089V40.3272C45.7266 40.8878 46.1811 41.3423 46.7417 41.3423C47.3024 41.3423 47.7569 40.8878 47.7569 40.3272V25.5087ZM47.7569 25.5087V24.7914C47.7569 24.2308 47.3024 23.7763 46.7417 23.7763C46.1811 23.7763 45.7266 24.2308 45.7266 24.7914V25.5089C46.0509 25.5849 46.3909 25.6253 46.7413 25.6253C47.092 25.6253 47.4323 25.5848 47.7569 25.5087Z" fill="#D9B109"/>
<path fill-rule="evenodd" clip-rule="evenodd" d="M47.7508 57C51.3951 57 54.3493 54.5164 54.3493 51.4528C54.3493 51.3513 54.3461 51.2503 54.3397 51.1501C53.8957 51.3805 53.3818 51.5121 52.8343 51.5121H45.7282H41.6675C41.4919 51.5121 41.3198 51.4986 41.1523 51.4726C41.165 54.5271 44.1144 57 47.7508 57ZM46.7825 45.965H48.7191C48.4031 45.9259 48.0797 45.9057 47.7508 45.9057C47.4219 45.9057 47.0986 45.9259 46.7825 45.965Z" fill="#082A54"/>
<ellipse cx="46.7423" cy="21.9272" rx="4.06062" ry="3.69811" fill="#FF6C58"/>
<rect x="38.6211" y="40.4178" width="17.2577" height="5.54717" rx="2.77359" fill="#0E458A"/>
<rect x="42.6816" y="40.4178" width="13.197" height="5.54717" rx="2.77359" fill="#246BC5"/>
<rect x="38.6211" y="45.965" width="17.2577" height="5.54717" rx="2.77359" fill="#0E458A"/>
<rect x="42.6816" y="45.965" width="13.197" height="5.54717" rx="2.77359" fill="#246BC5"/>
<circle cx="58" cy="49" r="10" fill="#17CE8A"/>
<path d="M51.5 48.5L56.5 53L64 46" stroke="white" stroke-width="2" stroke-linecap="round"/>
<rect x="64" y="23" width="7" height="1" rx="0.5" fill="#FFD215"/>
<rect x="23" y="24" width="7" height="1" rx="0.5" fill="#FFD215"/>
<rect x="27.6826" y="8.65192" width="6.25716" height="1" rx="0.5" transform="rotate(28.382 27.6826 8.65192)" fill="#FFD215"/>
<rect x="19" y="48" width="15" height="2" rx="1" fill="#0E458A"/>
<rect x="19" y="51" width="15" height="2" rx="1" fill="#0E458A"/>
<rect x="19" y="54" width="15" height="2" rx="1" fill="#0E458A"/>
<rect x="48" width="5" height="1" rx="0.5" transform="rotate(90 48 0)" fill="#FFD215"/>
<rect width="5.50633" height="1" rx="0.5" transform="matrix(-0.879798 0.475348 0.475348 0.879798 65.3809 8.83032)" fill="#FFD215"/>
</svg>
