<svg width="68" height="57" viewBox="0 0 68 57" fill="none" xmlns="http://www.w3.org/2000/svg">
<path d="M50.1572 14.1728H55.3177C58.6314 14.1728 61.3177 16.8591 61.3177 20.1728V21.7531H44.1572V20.1728C44.1572 16.8591 46.8435 14.1728 50.1572 14.1728Z" fill="white" stroke="#3C8AFE" stroke-width="2"/>
<circle cx="52.937" cy="7.78393" r="5.58642" fill="white" stroke="#3C8AFE" stroke-width="2"/>
<path d="M19.0215 14.1728H24.182C27.4957 14.1728 30.182 16.8591 30.182 20.1728V21.7531H13.0215V20.1728C13.0215 16.8591 15.7078 14.1728 19.0215 14.1728Z" fill="white" stroke="#3C8AFE" stroke-width="2"/>
<circle cx="21.8013" cy="7.78393" r="5.58642" fill="white" stroke="#3C8AFE" stroke-width="2"/>
<path d="M33.3916 14.4722H40.9472C44.2609 14.4722 46.9472 17.1585 46.9472 20.4722V23.25H27.3916V20.4722C27.3916 17.1585 30.0779 14.4722 33.3916 14.4722Z" fill="white" stroke="#3C8AFE" stroke-width="2"/>
<circle cx="37.3941" cy="7.40972" r="6.40972" fill="white" stroke="#3C8AFE" stroke-width="2"/>
<path d="M41.5215 36.6626C41.9215 34.2626 40.6882 32.9959 40.0215 32.6626L21.5215 26.6626C18.7215 25.4626 16.0215 26.1626 15.0215 26.6626L7.02148 32.1626L12.5215 52.1626C14.5215 50.9959 19.9215 49.0626 25.5215 50.6626C31.1215 52.2626 34.5215 52.3293 35.5215 52.1626L63.5215 36.1626C71.0215 30.6626 63.5215 24.6626 60.0215 26.6626L41.5215 36.6626ZM41.5215 36.6626C41.3548 38.9417 39.6215 43.2 34.0215 42C28.4215 40.8 25.0215 39.5 24.0215 39" stroke="#3C8AFE" stroke-width="2"/>
<rect x="1.22643" y="30.9244" width="5.10877" height="25.6747" transform="rotate(-15.1371 1.22643 30.9244)" fill="white" stroke="#3C8AFE" stroke-width="2"/>
</svg>
