<svg width="1512" height="982" viewBox="0 0 1512 982" fill="none" xmlns="http://www.w3.org/2000/svg">
<rect width="1512" height="982" fill="url(#paint0_linear_832_30)"/>
<circle cx="975" cy="276" r="26" fill="url(#paint1_linear_832_30)"/>
<circle cx="196" cy="504" r="30" fill="url(#paint2_linear_832_30)"/>
<circle cx="795" cy="156" r="39" fill="url(#paint3_linear_832_30)"/>
<circle cx="753" cy="533" r="42" fill="url(#paint4_linear_832_30)"/>
<circle cx="435" cy="116" r="20" fill="url(#paint5_linear_832_30)"/>
<circle cx="126" cy="136" r="20" fill="url(#paint6_linear_832_30)"/>
<rect width="174.13" height="174.13" transform="matrix(0.866025 0.5 -0.866025 0.5 1293.8 250)" fill="url(#paint7_linear_832_30)"/>
<rect width="174.13" height="174.13" transform="matrix(0.866025 -0.5 2.20305e-08 1 1293.95 424.13)" fill="url(#paint8_linear_832_30)"/>
<rect width="174.307" height="174.13" transform="matrix(0.866025 0.5 -2.20305e-08 1 1143 337.064)" fill="#2C2C3A"/>
<rect width="125.352" height="125.352" transform="matrix(0.866025 0.5 -0.866025 0.5 773.558 571)" fill="url(#paint9_linear_832_30)"/>
<rect width="125.352" height="125.352" transform="matrix(0.866025 -0.5 2.20305e-08 1 773.668 696.352)" fill="url(#paint10_linear_832_30)"/>
<rect width="125.48" height="125.352" transform="matrix(0.866025 0.5 -2.20305e-08 1 665 633.675)" fill="#2C2C3A"/>
<rect width="93.7458" height="93.7458" transform="matrix(0.866025 0.5 -0.866025 0.5 963.186 757)" fill="url(#paint11_linear_832_30)"/>
<rect width="93.7458" height="93.7458" transform="matrix(0.866025 -0.5 2.20305e-08 1 963.269 850.746)" fill="url(#paint12_linear_832_30)"/>
<rect width="93.8412" height="93.7458" transform="matrix(0.866025 0.5 -2.20305e-08 1 882 803.872)" fill="#2C2C3A"/>
<rect width="75.6478" height="75.6478" transform="matrix(0.866025 0.5 -0.866025 0.5 1015.51 428)" fill="url(#paint13_linear_832_30)"/>
<rect width="75.6478" height="75.6478" transform="matrix(0.866025 -0.5 2.20305e-08 1 1015.58 503.648)" fill="url(#paint14_linear_832_30)"/>
<rect width="75.7248" height="75.6478" transform="matrix(0.866025 0.5 -2.20305e-08 1 950 465.823)" fill="#2C2C3A"/>
<rect width="84.1017" height="84.1017" transform="matrix(0.866025 0.5 -0.866025 0.5 1233.83 828)" fill="url(#paint15_linear_832_30)"/>
<rect width="84.1017" height="84.1017" transform="matrix(0.866025 -0.5 2.20305e-08 1 1233.91 912.103)" fill="url(#paint16_linear_832_30)"/>
<rect width="84.1873" height="84.1017" transform="matrix(0.866025 0.5 -2.20305e-08 1 1161 870.05)" fill="#2C2C3A"/>
<path d="M1512 498.112V794.082L1390 723.646V568.549L1512 498.112Z" fill="url(#paint17_linear_832_30)"/>
<path d="M1512 199.322V301.407L1479.5 320.172V320.222L1391 269.128V167.043L1479.41 116L1512 134.817V199.269L1479.41 218.086L1479.5 218.137V218.086L1512 199.322Z" fill="url(#paint18_linear_832_30)"/>
<rect width="201.829" height="201.829" transform="matrix(0.866025 0.5 -0.866025 0.5 1176.03 519.113)" fill="url(#paint19_linear_832_30)"/>
<rect width="201.829" height="201.829" transform="matrix(0.866025 -0.5 2.20305e-08 1 1176.21 720.941)" fill="url(#paint20_linear_832_30)"/>
<rect width="202.034" height="201.829" transform="matrix(0.866025 0.5 -2.20305e-08 1 1001.24 620.027)" fill="#2C2C3A"/>
<path d="M1360.93 0L1389.63 16.5668L1251.81 96.1337L1251.95 96.2142V96.1337L1389.77 16.5669V175.701L1251.95 255.267V255.348L1114 175.7V16.5668L1142.69 0H1360.93Z" fill="url(#paint21_linear_832_30)"/>
<defs>
<linearGradient id="paint0_linear_832_30" x1="13.5" y1="471.73" x2="1506.5" y2="473.027" gradientUnits="userSpaceOnUse">
<stop stop-color="#2C2C3A"/>
<stop offset="1" stop-color="#3E3E56"/>
</linearGradient>
<linearGradient id="paint1_linear_832_30" x1="949" y1="286.849" x2="985.582" y2="247.749" gradientUnits="userSpaceOnUse">
<stop stop-color="#2C2C3A"/>
<stop offset="1" stop-color="#535B60"/>
</linearGradient>
<linearGradient id="paint2_linear_832_30" x1="166" y1="516.518" x2="208.211" y2="471.403" gradientUnits="userSpaceOnUse">
<stop stop-color="#2C2C3A"/>
<stop offset="1" stop-color="#535B60"/>
</linearGradient>
<linearGradient id="paint3_linear_832_30" x1="756" y1="172.273" x2="810.874" y2="113.624" gradientUnits="userSpaceOnUse">
<stop stop-color="#2C2C3A"/>
<stop offset="1" stop-color="#535B60"/>
</linearGradient>
<linearGradient id="paint4_linear_832_30" x1="711" y1="550.525" x2="770.095" y2="487.364" gradientUnits="userSpaceOnUse">
<stop stop-color="#2C2C3A"/>
<stop offset="1" stop-color="#535B60"/>
</linearGradient>
<linearGradient id="paint5_linear_832_30" x1="415" y1="124.345" x2="443.14" y2="94.2686" gradientUnits="userSpaceOnUse">
<stop stop-color="#2C2C3A"/>
<stop offset="1" stop-color="#535B60"/>
</linearGradient>
<linearGradient id="paint6_linear_832_30" x1="106" y1="144.345" x2="134.14" y2="114.269" gradientUnits="userSpaceOnUse">
<stop stop-color="#2C2C3A"/>
<stop offset="1" stop-color="#535B60"/>
</linearGradient>
<linearGradient id="paint7_linear_832_30" x1="92.323" y1="-43.4664" x2="83.1863" y2="295.294" gradientUnits="userSpaceOnUse">
<stop stop-color="#535B60" stop-opacity="0.44"/>
<stop offset="1" stop-color="#2C2C3A"/>
</linearGradient>
<linearGradient id="paint8_linear_832_30" x1="-1.85624e-05" y1="123.394" x2="122.502" y2="-7.53717" gradientUnits="userSpaceOnUse">
<stop stop-color="#2C2C3A"/>
<stop offset="1" stop-color="#535B60"/>
</linearGradient>
<linearGradient id="paint9_linear_832_30" x1="66.4612" y1="-31.2904" x2="59.8838" y2="212.575" gradientUnits="userSpaceOnUse">
<stop stop-color="#535B60" stop-opacity="0.44"/>
<stop offset="1" stop-color="#2C2C3A"/>
</linearGradient>
<linearGradient id="paint10_linear_832_30" x1="-1.33627e-05" y1="88.8286" x2="88.1863" y2="-5.42583" gradientUnits="userSpaceOnUse">
<stop stop-color="#2C2C3A"/>
<stop offset="1" stop-color="#535B60"/>
</linearGradient>
<linearGradient id="paint11_linear_832_30" x1="49.7037" y1="-23.4009" x2="44.7847" y2="158.977" gradientUnits="userSpaceOnUse">
<stop stop-color="#535B60" stop-opacity="0.44"/>
<stop offset="1" stop-color="#2C2C3A"/>
</linearGradient>
<linearGradient id="paint12_linear_832_30" x1="-9.9934e-06" y1="66.4314" x2="65.9511" y2="-4.05777" gradientUnits="userSpaceOnUse">
<stop stop-color="#2C2C3A"/>
<stop offset="1" stop-color="#535B60"/>
</linearGradient>
<linearGradient id="paint13_linear_832_30" x1="40.1082" y1="-18.8833" x2="36.1389" y2="128.286" gradientUnits="userSpaceOnUse">
<stop stop-color="#535B60" stop-opacity="0.44"/>
<stop offset="1" stop-color="#2C2C3A"/>
</linearGradient>
<linearGradient id="paint14_linear_832_30" x1="-8.06414e-06" y1="53.6066" x2="53.219" y2="-3.2744" gradientUnits="userSpaceOnUse">
<stop stop-color="#2C2C3A"/>
<stop offset="1" stop-color="#535B60"/>
</linearGradient>
<linearGradient id="paint15_linear_832_30" x1="44.5904" y1="-20.9935" x2="40.1775" y2="142.622" gradientUnits="userSpaceOnUse">
<stop stop-color="#535B60" stop-opacity="0.44"/>
<stop offset="1" stop-color="#2C2C3A"/>
</linearGradient>
<linearGradient id="paint16_linear_832_30" x1="-8.96533e-06" y1="59.5973" x2="59.1664" y2="-3.64033" gradientUnits="userSpaceOnUse">
<stop stop-color="#2C2C3A"/>
<stop offset="1" stop-color="#535B60"/>
</linearGradient>
<linearGradient id="paint17_linear_832_30" x1="1512.1" y1="228.86" x2="1386.49" y2="232.461" gradientUnits="userSpaceOnUse">
<stop stop-color="#4E5258" stop-opacity="0"/>
<stop offset="0.515738" stop-color="#46465A"/>
<stop offset="1" stop-color="#242432"/>
</linearGradient>
<linearGradient id="paint18_linear_832_30" x1="1512.1" y1="228.86" x2="1386.49" y2="232.461" gradientUnits="userSpaceOnUse">
<stop stop-color="#4E5258" stop-opacity="0"/>
<stop offset="0.515738" stop-color="#46465A"/>
<stop offset="1" stop-color="#242432"/>
</linearGradient>
<linearGradient id="paint19_linear_832_30" x1="107.009" y1="-50.3806" x2="96.4187" y2="342.266" gradientUnits="userSpaceOnUse">
<stop stop-color="#535B60" stop-opacity="0.44"/>
<stop offset="1" stop-color="#2C2C3A"/>
</linearGradient>
<linearGradient id="paint20_linear_832_30" x1="-2.15151e-05" y1="143.022" x2="141.988" y2="-8.73611" gradientUnits="userSpaceOnUse">
<stop stop-color="#2C2C3A"/>
<stop offset="1" stop-color="#535B60"/>
</linearGradient>
<linearGradient id="paint21_linear_832_30" x1="1390" y1="42.5" x2="1114" y2="90" gradientUnits="userSpaceOnUse">
<stop stop-color="#4E5258" stop-opacity="0"/>
<stop offset="0.515738" stop-color="#46465A"/>
<stop offset="1" stop-color="#242432"/>
</linearGradient>
</defs>
</svg>
