<svg width="1512" height="982" viewBox="0 0 1512 982" fill="none" xmlns="http://www.w3.org/2000/svg">
<rect width="1512" height="982" fill="url(#paint0_linear_762_1272)"/>
<circle cx="1419" cy="276" r="26" fill="url(#paint1_linear_762_1272)"/>
<circle cx="196" cy="504" r="30" fill="url(#paint2_linear_762_1272)"/>
<circle cx="795" cy="156" r="39" fill="url(#paint3_linear_762_1272)"/>
<circle cx="1338" cy="721" r="55" fill="url(#paint4_linear_762_1272)"/>
<circle cx="753" cy="533" r="42" fill="url(#paint5_linear_762_1272)"/>
<circle cx="435" cy="116" r="20" fill="url(#paint6_linear_762_1272)"/>
<circle cx="126" cy="136" r="20" fill="url(#paint7_linear_762_1272)"/>
<path d="M1504 0H1126.66L971.813 196.073L971.825 196.083C971.232 196.816 970.643 197.554 970.057 198.297C903.618 282.423 900.371 393.493 962.805 446.378C1025.24 499.263 1129.71 473.938 1196.15 389.811C1196.73 389.069 1197.32 388.324 1197.89 387.578L1197.9 387.588L1504 0Z" fill="url(#paint8_linear_762_1272)"/>
<defs>
<linearGradient id="paint0_linear_762_1272" x1="13.5" y1="471.73" x2="1506.5" y2="473.027" gradientUnits="userSpaceOnUse">
<stop stop-color="#082B81"/>
<stop offset="1" stop-color="#0A86CC" stop-opacity="0.99"/>
</linearGradient>
<linearGradient id="paint1_linear_762_1272" x1="1419" y1="255.673" x2="1419" y2="331.782" gradientUnits="userSpaceOnUse">
<stop stop-color="#064FCC" stop-opacity="0"/>
<stop offset="1" stop-color="#0C7DC4"/>
</linearGradient>
<linearGradient id="paint2_linear_762_1272" x1="196" y1="474" x2="196" y2="534" gradientUnits="userSpaceOnUse">
<stop stop-color="#1850B0"/>
<stop offset="1" stop-color="#064FCC" stop-opacity="0"/>
</linearGradient>
<linearGradient id="paint3_linear_762_1272" x1="795" y1="117" x2="795" y2="195" gradientUnits="userSpaceOnUse">
<stop stop-color="#1850B0"/>
<stop offset="1" stop-color="#064FCC" stop-opacity="0"/>
</linearGradient>
<linearGradient id="paint4_linear_762_1272" x1="1338" y1="678" x2="1338" y2="839" gradientUnits="userSpaceOnUse">
<stop stop-color="#064FCC" stop-opacity="0"/>
<stop offset="1" stop-color="#0C7DC4"/>
</linearGradient>
<linearGradient id="paint5_linear_762_1272" x1="753" y1="491" x2="753" y2="575" gradientUnits="userSpaceOnUse">
<stop stop-color="#1850B0"/>
<stop offset="1" stop-color="#064FCC" stop-opacity="0"/>
</linearGradient>
<linearGradient id="paint6_linear_762_1272" x1="435" y1="96" x2="435" y2="136" gradientUnits="userSpaceOnUse">
<stop stop-color="#1850B0"/>
<stop offset="1" stop-color="#064FCC" stop-opacity="0"/>
</linearGradient>
<linearGradient id="paint7_linear_762_1272" x1="126" y1="116" x2="126" y2="156" gradientUnits="userSpaceOnUse">
<stop stop-color="#1850B0"/>
<stop offset="1" stop-color="#064FCC" stop-opacity="0"/>
</linearGradient>
<linearGradient id="paint8_linear_762_1272" x1="1211.01" y1="0" x2="1211.01" y2="474" gradientUnits="userSpaceOnUse">
<stop stop-color="#064FCC" stop-opacity="0"/>
<stop offset="1" stop-color="#1850B0"/>
</linearGradient>
</defs>
</svg>
