<svg width="1512" height="982" viewBox="0 0 1512 982" fill="none" xmlns="http://www.w3.org/2000/svg">
<rect width="1512" height="982" fill="url(#paint0_linear_765_14)"/>
<circle cx="1419" cy="276" r="26" fill="url(#paint1_linear_765_14)"/>
<circle cx="196" cy="504" r="30" fill="url(#paint2_linear_765_14)"/>
<circle cx="795" cy="156" r="39" fill="url(#paint3_linear_765_14)"/>
<circle cx="753" cy="533" r="42" fill="url(#paint4_linear_765_14)"/>
<circle cx="435" cy="116" r="20" fill="url(#paint5_linear_765_14)"/>
<circle cx="126" cy="136" r="20" fill="url(#paint6_linear_765_14)"/>
<path d="M1504 0H1126.66L971.813 196.073L971.825 196.083C971.232 196.816 970.643 197.554 970.057 198.297C903.618 282.423 900.371 393.493 962.805 446.378C1025.24 499.263 1129.71 473.938 1196.15 389.811C1196.73 389.069 1197.32 388.324 1197.89 387.578L1197.9 387.588L1504 0Z" fill="url(#paint7_linear_765_14)"/>
<rect width="174.13" height="174.13" transform="matrix(0.866025 0.5 -0.866025 0.5 1293.8 250)" fill="url(#paint8_linear_765_14)"/>
<rect width="174.13" height="174.13" transform="matrix(0.866025 -0.5 2.20305e-08 1 1293.95 424.13)" fill="url(#paint9_linear_765_14)"/>
<rect width="174.307" height="174.13" transform="matrix(0.866025 0.5 -2.20305e-08 1 1143 337.064)" fill="#184491"/>
<rect width="125.352" height="125.352" transform="matrix(0.866025 0.5 -0.866025 0.5 773.558 571)" fill="url(#paint10_linear_765_14)"/>
<rect width="125.352" height="125.352" transform="matrix(0.866025 -0.5 2.20305e-08 1 773.668 696.352)" fill="url(#paint11_linear_765_14)"/>
<rect width="125.48" height="125.352" transform="matrix(0.866025 0.5 -2.20305e-08 1 665 633.675)" fill="#184491"/>
<rect width="93.7458" height="93.7458" transform="matrix(0.866025 0.5 -0.866025 0.5 963.186 757)" fill="url(#paint12_linear_765_14)"/>
<rect width="93.7458" height="93.7458" transform="matrix(0.866025 -0.5 2.20305e-08 1 963.269 850.746)" fill="url(#paint13_linear_765_14)"/>
<rect width="93.8412" height="93.7458" transform="matrix(0.866025 0.5 -2.20305e-08 1 882 803.872)" fill="#184491"/>
<rect width="75.6478" height="75.6478" transform="matrix(0.866025 0.5 -0.866025 0.5 1015.51 428)" fill="url(#paint14_linear_765_14)"/>
<rect width="75.6478" height="75.6478" transform="matrix(0.866025 -0.5 2.20305e-08 1 1015.58 503.648)" fill="url(#paint15_linear_765_14)"/>
<rect width="75.7248" height="75.6478" transform="matrix(0.866025 0.5 -2.20305e-08 1 950 465.823)" fill="#184491"/>
<rect width="84.1017" height="84.1017" transform="matrix(0.866025 0.5 -0.866025 0.5 1233.83 828)" fill="url(#paint16_linear_765_14)"/>
<rect width="84.1017" height="84.1017" transform="matrix(0.866025 -0.5 2.20305e-08 1 1233.91 912.103)" fill="url(#paint17_linear_765_14)"/>
<rect width="84.1873" height="84.1017" transform="matrix(0.866025 0.5 -2.20305e-08 1 1161 870.05)" fill="#184491"/>
<path d="M1512 498.112V794.082L1390 723.646V568.549L1512 498.112Z" fill="url(#paint18_linear_765_14)"/>
<path d="M1512 199.322V301.407L1479.5 320.172V320.222L1391 269.128V167.043L1479.41 116L1512 134.817V199.269L1479.41 218.086L1479.5 218.137V218.086L1512 199.322Z" fill="url(#paint19_linear_765_14)"/>
<rect width="201.829" height="201.829" transform="matrix(0.866025 0.5 -0.866025 0.5 1176.03 519.113)" fill="url(#paint20_linear_765_14)"/>
<rect width="201.829" height="201.829" transform="matrix(0.866025 -0.5 2.20305e-08 1 1176.21 720.941)" fill="url(#paint21_linear_765_14)"/>
<rect width="202.034" height="201.829" transform="matrix(0.866025 0.5 -2.20305e-08 1 1001.24 620.027)" fill="#184491"/>
<defs>
<linearGradient id="paint0_linear_765_14" x1="13.5" y1="471.73" x2="1506.5" y2="473.027" gradientUnits="userSpaceOnUse">
<stop stop-color="#082B81"/>
<stop offset="1" stop-color="#0A86CC" stop-opacity="0.99"/>
</linearGradient>
<linearGradient id="paint1_linear_765_14" x1="1419" y1="255.673" x2="1419" y2="331.782" gradientUnits="userSpaceOnUse">
<stop stop-color="#064FCC" stop-opacity="0"/>
<stop offset="1" stop-color="#0C7DC4"/>
</linearGradient>
<linearGradient id="paint2_linear_765_14" x1="196" y1="474" x2="196" y2="534" gradientUnits="userSpaceOnUse">
<stop stop-color="#1850B0"/>
<stop offset="1" stop-color="#064FCC" stop-opacity="0"/>
</linearGradient>
<linearGradient id="paint3_linear_765_14" x1="795" y1="117" x2="795" y2="195" gradientUnits="userSpaceOnUse">
<stop stop-color="#1850B0"/>
<stop offset="1" stop-color="#064FCC" stop-opacity="0"/>
</linearGradient>
<linearGradient id="paint4_linear_765_14" x1="753" y1="491" x2="753" y2="575" gradientUnits="userSpaceOnUse">
<stop stop-color="#1850B0"/>
<stop offset="1" stop-color="#064FCC" stop-opacity="0"/>
</linearGradient>
<linearGradient id="paint5_linear_765_14" x1="435" y1="96" x2="435" y2="136" gradientUnits="userSpaceOnUse">
<stop stop-color="#1850B0"/>
<stop offset="1" stop-color="#064FCC" stop-opacity="0"/>
</linearGradient>
<linearGradient id="paint6_linear_765_14" x1="126" y1="116" x2="126" y2="156" gradientUnits="userSpaceOnUse">
<stop stop-color="#1850B0"/>
<stop offset="1" stop-color="#064FCC" stop-opacity="0"/>
</linearGradient>
<linearGradient id="paint7_linear_765_14" x1="1211.01" y1="0" x2="1211.01" y2="474" gradientUnits="userSpaceOnUse">
<stop stop-color="#064FCC" stop-opacity="0"/>
<stop offset="1" stop-color="#1850B0"/>
</linearGradient>
<linearGradient id="paint8_linear_765_14" x1="92.323" y1="-43.4664" x2="83.1863" y2="295.294" gradientUnits="userSpaceOnUse">
<stop stop-color="#0D85CA" stop-opacity="0.44"/>
<stop offset="1" stop-color="#092E83"/>
</linearGradient>
<linearGradient id="paint9_linear_765_14" x1="-1.85624e-05" y1="123.394" x2="122.502" y2="-7.53717" gradientUnits="userSpaceOnUse">
<stop stop-color="#174391"/>
<stop offset="1" stop-color="#0D85CB"/>
</linearGradient>
<linearGradient id="paint10_linear_765_14" x1="66.4612" y1="-31.2904" x2="59.8838" y2="212.575" gradientUnits="userSpaceOnUse">
<stop stop-color="#0D85CA" stop-opacity="0.44"/>
<stop offset="1" stop-color="#092E83"/>
</linearGradient>
<linearGradient id="paint11_linear_765_14" x1="-1.33627e-05" y1="88.8286" x2="88.1863" y2="-5.42583" gradientUnits="userSpaceOnUse">
<stop stop-color="#174391"/>
<stop offset="1" stop-color="#0D85CB"/>
</linearGradient>
<linearGradient id="paint12_linear_765_14" x1="49.7037" y1="-23.4009" x2="44.7847" y2="158.977" gradientUnits="userSpaceOnUse">
<stop stop-color="#0D85CA" stop-opacity="0.44"/>
<stop offset="1" stop-color="#092E83"/>
</linearGradient>
<linearGradient id="paint13_linear_765_14" x1="-9.9934e-06" y1="66.4314" x2="65.9511" y2="-4.05777" gradientUnits="userSpaceOnUse">
<stop stop-color="#174391"/>
<stop offset="1" stop-color="#0D85CB"/>
</linearGradient>
<linearGradient id="paint14_linear_765_14" x1="40.1082" y1="-18.8833" x2="36.1389" y2="128.286" gradientUnits="userSpaceOnUse">
<stop stop-color="#0D85CA" stop-opacity="0.44"/>
<stop offset="1" stop-color="#092E83"/>
</linearGradient>
<linearGradient id="paint15_linear_765_14" x1="-8.06414e-06" y1="53.6066" x2="53.219" y2="-3.2744" gradientUnits="userSpaceOnUse">
<stop stop-color="#174391"/>
<stop offset="1" stop-color="#0D85CB"/>
</linearGradient>
<linearGradient id="paint16_linear_765_14" x1="44.5904" y1="-20.9935" x2="40.1775" y2="142.622" gradientUnits="userSpaceOnUse">
<stop stop-color="#0D85CA" stop-opacity="0.44"/>
<stop offset="1" stop-color="#092E83"/>
</linearGradient>
<linearGradient id="paint17_linear_765_14" x1="-8.96533e-06" y1="59.5973" x2="59.1664" y2="-3.64033" gradientUnits="userSpaceOnUse">
<stop stop-color="#174391"/>
<stop offset="1" stop-color="#0D85CB"/>
</linearGradient>
<linearGradient id="paint18_linear_765_14" x1="1781.5" y1="80" x2="1451" y2="794.082" gradientUnits="userSpaceOnUse">
<stop stop-color="#184491"/>
<stop offset="1" stop-color="#184491" stop-opacity="0"/>
</linearGradient>
<linearGradient id="paint19_linear_765_14" x1="1781.5" y1="80" x2="1451" y2="794.082" gradientUnits="userSpaceOnUse">
<stop stop-color="#184491"/>
<stop offset="1" stop-color="#184491" stop-opacity="0"/>
</linearGradient>
<linearGradient id="paint20_linear_765_14" x1="107.009" y1="-50.3806" x2="96.4187" y2="342.266" gradientUnits="userSpaceOnUse">
<stop stop-color="#0D85CA" stop-opacity="0.44"/>
<stop offset="1" stop-color="#092E83"/>
</linearGradient>
<linearGradient id="paint21_linear_765_14" x1="-2.15151e-05" y1="143.022" x2="141.988" y2="-8.73611" gradientUnits="userSpaceOnUse">
<stop stop-color="#174391"/>
<stop offset="1" stop-color="#0D85CB"/>
</linearGradient>
</defs>
</svg>
